Literata-M0Italic.ufo
<glyph name="dollar" format="2">
	<unicode hex="0024"/>
	<advance width="497"/>
	<outline>
		<contour>
			<point x="237" y="-80" type="line"/>
			<point x="278" y="-80" type="line"/>
			<point x="280" y="-11" type="line"/>
			<point x="396" y="6"/>
			<point x="474" y="87"/>
			<point x="474" y="197" type="curve" smooth="yes"/>
			<point x="474" y="283"/>
			<point x="441" y="320"/>
			<point x="317" y="386" type="curve" smooth="yes"/>
			<point x="310" y="390"/>
			<point x="302" y="394"/>
			<point x="295" y="398" type="curve"/>
			<point x="303" y="653" type="line"/>
			<point x="364" y="650"/>
			<point x="394" y="619"/>
			<point x="373" y="579" type="curve" smooth="yes"/>
			<point x="354" y="542" type="line"/>
			<point x="368" y="528"/>
			<point x="395" y="518"/>
			<point x="419" y="518" type="curve" smooth="yes"/>
			<point x="455" y="518"/>
			<point x="479" y="544"/>
			<point x="479" y="582" type="curve" smooth="yes"/>
			<point x="479" y="655"/>
			<point x="404" y="712"/>
			<point x="305" y="715" type="curve"/>
			<point x="308" y="788" type="line"/>
			<point x="267" y="788" type="line"/>
			<point x="264" y="713" type="line"/>
			<point x="150" y="700"/>
			<point x="72" y="623"/>
			<point x="72" y="519" type="curve" smooth="yes"/>
			<point x="72" y="439"/>
			<point x="117" y="387"/>
			<point x="251" y="317" type="curve"/>
			<point x="241" y="49" type="line"/>
			<point x="168" y="49"/>
			<point x="133" y="81"/>
			<point x="156" y="128" type="curve" smooth="yes"/>
			<point x="172" y="161" type="line"/>
			<point x="156" y="177"/>
			<point x="130" y="187"/>
			<point x="105" y="187" type="curve" smooth="yes"/>
			<point x="68" y="187"/>
			<point x="42" y="157"/>
			<point x="42" y="115" type="curve" smooth="yes"/>
			<point x="42" y="42"/>
			<point x="121" y="-16"/>
			<point x="239" y="-14" type="curve"/>
		</contour>
		<contour>
			<point x="283" y="53" type="curve"/>
			<point x="291" y="295" type="line"/>
			<point x="369" y="250"/>
			<point x="393" y="222"/>
			<point x="393" y="179" type="curve" smooth="yes"/>
			<point x="393" y="113"/>
			<point x="351" y="66"/>
		</contour>
		<contour>
			<point x="254" y="421" type="line"/>
			<point x="179" y="467"/>
			<point x="154" y="499"/>
			<point x="154" y="545" type="curve" smooth="yes"/>
			<point x="154" y="607"/>
			<point x="192" y="643"/>
			<point x="262" y="651" type="curve"/>
		</contour>
	</outline>
</glyph>
<glyph name="ampersand" format="2">
	<unicode hex="0026"/>
	<advance width="730"/>
	<outline>
		<contour>
			<point x="303" y="-14" type="curve" smooth="yes"/>
			<point x="468" y="-14"/>
			<point x="579" y="71"/>
			<point x="586" y="203" type="curve" smooth="yes"/>
			<point x="588" y="244"/>
			<point x="576" y="283"/>
			<point x="546" y="328" type="curve"/>
			<point x="540" y="336" type="line"/>
			<point x="563" y="331"/>
			<point x="596" y="328"/>
			<point x="619" y="328" type="curve" smooth="yes"/>
			<point x="679" y="328"/>
			<point x="720" y="361"/>
			<point x="720" y="409" type="curve" smooth="yes"/>
			<point x="720" y="447"/>
			<point x="697" y="472"/>
			<point x="660" y="472" type="curve" smooth="yes"/>
			<point x="643" y="472"/>
			<point x="625" y="469"/>
			<point x="607" y="459" type="curve"/>
			<point x="622" y="420" type="line" smooth="yes"/>
			<point x="634" y="388"/>
			<point x="614" y="369"/>
			<point x="576" y="374" type="curve" smooth="yes"/>
			<point x="512" y="382" type="line"/>
			<point x="482" y="339" type="line"/>
			<point x="501" y="302"/>
			<point x="509" y="262"/>
			<point x="509" y="211" type="curve" smooth="yes"/>
			<point x="509" y="110"/>
			<point x="433" y="43"/>
			<point x="318" y="43" type="curve" smooth="yes"/>
			<point x="219" y="43"/>
			<point x="169" y="87"/>
			<point x="169" y="175" type="curve" smooth="yes"/>
			<point x="169" y="271"/>
			<point x="250" y="332"/>
			<point x="393" y="344" type="curve"/>
			<point x="388" y="393" type="line"/>
			<point x="360" y="389"/>
			<point x="344" y="387"/>
			<point x="325" y="387" type="curve" smooth="yes"/>
			<point x="230" y="387"/>
			<point x="187" y="424"/>
			<point x="187" y="506" type="curve" smooth="yes"/>
			<point x="187" y="599"/>
			<point x="257" y="662"/>
			<point x="362" y="662" type="curve" smooth="yes"/>
			<point x="433" y="662"/>
			<point x="470" y="626"/>
			<point x="443" y="582" type="curve" smooth="yes"/>
			<point x="426" y="555" type="line"/>
			<point x="436" y="536"/>
			<point x="457" y="524"/>
			<point x="480" y="524" type="curve" smooth="yes"/>
			<point x="519" y="524"/>
			<point x="552" y="554"/>
			<point x="552" y="593" type="curve" smooth="yes"/>
			<point x="552" y="667"/>
			<point x="481" y="715"/>
			<point x="377" y="715" type="curve" smooth="yes"/>
			<point x="215" y="715"/>
			<point x="90" y="618"/>
			<point x="90" y="494" type="curve" smooth="yes"/>
			<point x="90" y="412"/>
			<point x="141" y="365"/>
			<point x="243" y="355" type="curve"/>
			<point x="242" y="347" type="line"/>
			<point x="137" y="318"/>
			<point x="72" y="246"/>
			<point x="72" y="159" type="curve" smooth="yes"/>
			<point x="72" y="51"/>
			<point x="159" y="-14"/>
		</contour>
	</outline>
</glyph>
<glyph name="parenleft" format="2">
	<unicode hex="0028"/>
	<advance width="328"/>
	<outline>
		<contour>
			<point x="83" y="276" type="curve" smooth="yes"/>
			<point x="83" y="68"/>
			<point x="179" y="-125"/>
			<point x="252" y="-210" type="curve"/>
			<point x="289" y="-189" type="line"/>
			<point x="232" y="-71"/>
			<point x="177" y="105"/>
			<point x="177" y="274" type="curve" smooth="yes"/>
			<point x="177" y="450"/>
			<point x="229" y="631"/>
			<point x="328" y="791" type="curve"/>
			<point x="292" y="811" type="line"/>
			<point x="157" y="654"/>
			<point x="83" y="460"/>
		</contour>
	</outline>
</glyph>
<glyph name="asterisk" format="2">
	<unicode hex="002A"/>
	<advance width="475"/>
	<outline>
		<contour>
			<point x="238" y="620" type="line"/>
			<point x="143" y="708" type="line"/>
			<point x="109" y="704"/>
			<point x="96" y="687"/>
			<point x="96" y="668" type="curve" smooth="yes"/>
			<point x="96" y="651"/>
			<point x="102" y="640"/>
			<point x="127" y="631" type="curve" smooth="yes"/>
			<point x="223" y="599" type="line"/>
			<point x="89" y="555" type="line"/>
			<point x="86" y="546"/>
			<point x="86" y="535"/>
			<point x="86" y="528" type="curve" smooth="yes"/>
			<point x="86" y="485"/>
			<point x="133" y="487"/>
			<point x="152" y="503" type="curve" smooth="yes"/>
			<point x="233" y="574" type="line"/>
			<point x="205" y="441" type="line"/>
			<point x="215" y="424"/>
			<point x="236" y="416"/>
			<point x="248" y="417" type="curve" smooth="yes"/>
			<point x="272" y="418"/>
			<point x="285" y="437"/>
			<point x="281" y="463" type="curve" smooth="yes"/>
			<point x="263" y="573" type="line"/>
			<point x="361" y="479" type="line"/>
			<point x="392" y="481"/>
			<point x="406" y="499"/>
			<point x="406" y="518" type="curve" smooth="yes"/>
			<point x="406" y="533"/>
			<point x="397" y="549"/>
			<point x="379" y="556" type="curve" smooth="yes"/>
			<point x="279" y="596" type="line"/>
			<point x="408" y="641" type="line"/>
			<point x="412" y="652"/>
			<point x="413" y="661"/>
			<point x="413" y="669" type="curve" smooth="yes"/>
			<point x="413" y="707"/>
			<point x="375" y="710"/>
			<point x="357" y="694" type="curve" smooth="yes"/>
			<point x="267" y="619" type="line"/>
			<point x="297" y="765" type="line"/>
			<point x="286" y="776"/>
			<point x="272" y="782"/>
			<point x="259" y="782" type="curve" smooth="yes"/>
			<point x="233" y="782"/>
			<point x="218" y="766"/>
			<point x="223" y="727" type="curve" smooth="yes"/>
		</contour>
	</outline>
</glyph>
<glyph name="plus" format="2">
	<unicode hex="002B"/>
	<advance width="582"/>
	<outline>
		<contour>
			<point x="255" y="81" type="line"/>
			<point x="322" y="81" type="line"/>
			<point x="329" y="276" type="line"/>
			<point x="513" y="276" type="line"/>
			<point x="515" y="339" type="line"/>
			<point x="331" y="339" type="line"/>
			<point x="338" y="521" type="line"/>
			<point x="271" y="521" type="line"/>
			<point x="264" y="339" type="line"/>
			<point x="87" y="339" type="line"/>
			<point x="85" y="276" type="line"/>
			<point x="262" y="276" type="line"/>
		</contour>
	</outline>
</glyph>
<glyph name="hyphen" format="2">
	<unicode hex="002D"/>
	<advance width="353"/>
	<outline>
		<contour>
			<point x="54" y="329" type="line"/>
			<point x="51" y="247" type="line"/>
			<point x="318" y="247" type="line"/>
			<point x="321" y="329" type="line"/>
		</contour>
	</outline>
</glyph>
<glyph name="four" format="2">
	<unicode hex="0034"/>
	<advance width="554"/>
	<outline>
		<contour>
			<point x="429" y="239" type="line"/>
			<point x="451" y="701" type="line"/>
			<point x="440" y="710" type="line"/>
			<point x="354" y="695" type="line"/>
			<point x="19" y="221" type="line"/>
			<point x="26" y="173" type="line"/>
			<point x="340" y="173" type="line"/>
			<point x="335" y="62" type="line"/>
			<point x="200" y="44" type="line"/>
			<point x="194" y="0" type="line"/>
			<point x="504" y="0" type="line"/>
			<point x="510" y="48" type="line"/>
			<point x="422" y="62" type="line"/>
			<point x="426" y="173" type="line"/>
			<point x="532" y="173" type="line"/>
			<point x="538" y="239" type="line"/>
		</contour>
		<contour>
			<point x="343" y="239" type="line"/>
			<point x="104" y="239" type="line"/>
			<point x="364" y="606" type="line"/>
		</contour>
	</outline>
</glyph>
<glyph name="five" format="2">
	<unicode hex="0035"/>
	<advance width="522"/>
	<outline>
		<contour>
			<point x="391" y="246" type="curve" smooth="yes"/>
			<point x="391" y="123"/>
			<point x="315" y="39"/>
			<point x="202" y="39" type="curve" smooth="yes"/>
			<point x="142" y="39"/>
			<point x="114" y="70"/>
			<point x="137" y="109" type="curve" smooth="yes"/>
			<point x="153" y="136" type="line"/>
			<point x="141" y="155"/>
			<point x="120" y="167"/>
			<point x="98" y="167" type="curve" smooth="yes"/>
			<point x="59" y="167"/>
			<point x="30" y="137"/>
			<point x="30" y="98" type="curve" smooth="yes"/>
			<point x="30" y="31"/>
			<point x="98" y="-14"/>
			<point x="199" y="-14" type="curve" smooth="yes"/>
			<point x="371" y="-14"/>
			<point x="490" y="97"/>
			<point x="490" y="258" type="curve" smooth="yes"/>
			<point x="490" y="379"/>
			<point x="418" y="455"/>
			<point x="301" y="455" type="curve" smooth="yes"/>
			<point x="253" y="455"/>
			<point x="192" y="440"/>
			<point x="159" y="419" type="curve"/>
			<point x="182" y="613" type="line"/>
			<point x="454" y="613" type="line"/>
			<point x="466" y="700" type="line"/>
			<point x="143" y="700" type="line"/>
			<point x="127" y="686" type="line"/>
			<point x="99" y="391" type="line"/>
			<point x="130" y="355" type="line"/>
			<point x="180" y="375"/>
			<point x="225" y="385"/>
			<point x="263" y="385" type="curve" smooth="yes"/>
			<point x="350" y="385"/>
			<point x="391" y="340"/>
		</contour>
	</outline>
</glyph>
<glyph name="less" format="2">
	<unicode hex="003C"/>
	<advance width="582"/>
	<outline>
		<contour>
			<point x="448" y="37" type="line"/>
			<point x="480" y="91" type="line"/>
			<point x="156" y="285" type="line"/>
			<point x="493" y="480" type="line"/>
			<point x="465" y="532" type="line"/>
			<point x="79" y="305" type="line"/>
			<point x="78" y="263" type="line"/>
		</contour>
	</outline>
</glyph>
<glyph name="question" format="2">
	<unicode hex="003F"/>
	<advance width="511"/>
	<outline>
		<contour>
			<point x="172" y="382" type="curve"/>
			<point x="210" y="194" type="line"/>
			<point x="273" y="194" type="line"/>
			<point x="246" y="319" type="line"/>
			<point x="390" y="365"/>
			<point x="452" y="449"/>
			<point x="452" y="547" type="curve" smooth="yes"/>
			<point x="452" y="662"/>
			<point x="366" y="715"/>
			<point x="261" y="715" type="curve" smooth="yes"/>
			<point x="168" y="715"/>
			<point x="61" y="662"/>
			<point x="61" y="571" type="curve" smooth="yes"/>
			<point x="61" y="533"/>
			<point x="84" y="510"/>
			<point x="122" y="510" type="curve" smooth="yes"/>
			<point x="150" y="510"/>
			<point x="174" y="528"/>
			<point x="184" y="552" type="curve"/>
			<point x="163" y="576" type="line" smooth="yes"/>
			<point x="125" y="619"/>
			<point x="163" y="663"/>
			<point x="246" y="663" type="curve" smooth="yes"/>
			<point x="323" y="663"/>
			<point x="365" y="620"/>
			<point x="365" y="552" type="curve" smooth="yes"/>
			<point x="365" y="474"/>
			<point x="303" y="410"/>
		</contour>
		<contour>
			<point x="170" y="50" type="curve" smooth="yes"/>
			<point x="170" y="9"/>
			<point x="197" y="-14"/>
			<point x="238" y="-14" type="curve" smooth="yes"/>
			<point x="279" y="-14"/>
			<point x="311" y="10"/>
			<point x="311" y="51" type="curve" smooth="yes"/>
			<point x="311" y="92"/>
			<point x="284" y="119"/>
			<point x="243" y="119" type="curve" smooth="yes"/>
			<point x="202" y="119"/>
			<point x="170" y="92"/>
		</contour>
	</outline>
</glyph>
<glyph name="C" format="2">
	<unicode hex="0043"/>
	<advance width="619"/>
	<outline>
		<contour>
			<point x="487" y="571" type="curve" smooth="yes"/>
			<point x="470" y="537" type="line"/>
			<point x="489" y="518"/>
			<point x="515" y="507"/>
			<point x="542" y="507" type="curve" smooth="yes"/>
			<point x="574" y="507"/>
			<point x="597" y="531"/>
			<point x="597" y="566" type="curve" smooth="yes"/>
			<point x="597" y="649"/>
			<point x="499" y="715"/>
			<point x="377" y="715" type="curve" smooth="yes"/>
			<point x="184" y="715"/>
			<point x="59" y="562"/>
			<point x="59" y="325" type="curve" smooth="yes"/>
			<point x="59" y="119"/>
			<point x="170" y="-14"/>
			<point x="342" y="-14" type="curve" smooth="yes"/>
			<point x="437" y="-14"/>
			<point x="519" y="34"/>
			<point x="587" y="128" type="curve"/>
			<point x="548" y="168" type="line"/>
			<point x="482" y="90"/>
			<point x="423" y="55"/>
			<point x="352" y="55" type="curve" smooth="yes"/>
			<point x="231" y="55"/>
			<point x="153" y="165"/>
			<point x="153" y="334" type="curve" smooth="yes"/>
			<point x="153" y="538"/>
			<point x="232" y="652"/>
			<point x="373" y="652" type="curve" smooth="yes"/>
			<point x="459" y="652"/>
			<point x="509" y="616"/>
		</contour>
	</outline>
	<anchor name="bottom" x="332" y="-30"/>
	<anchor name="top" x="371" y="730"/>
</glyph>
<glyph name="F" format="2">
	<unicode hex="0046"/>
	<advance width="561"/>
	<outline>
		<contour>
			<point x="58" y="46" type="line"/>
			<point x="52" y="0" type="line"/>
			<point x="347" y="0" type="line"/>
			<point x="353" y="46" type="line"/>
			<point x="224" y="58" type="line"/>
			<point x="236" y="320" type="line"/>
			<point x="473" y="320" type="line"/>
			<point x="478" y="383" type="line"/>
			<point x="239" y="383" type="line"/>
			<point x="250" y="643" type="line"/>
			<point x="389" y="643" type="line" smooth="yes"/>
			<point x="444" y="643"/>
			<point x="462" y="628"/>
			<point x="484" y="562" type="curve" smooth="yes"/>
			<point x="497" y="523" type="line"/>
			<point x="551" y="533" type="line"/>
			<point x="537" y="700" type="line"/>
			<point x="83" y="700" type="line"/>
			<point x="77" y="654" type="line"/>
			<point x="163" y="637" type="line"/>
			<point x="140" y="59" type="line"/>
		</contour>
	</outline>
</glyph>
<glyph name="H" format="2">
	<unicode hex="0048"/>
	<advance width="760"/>
	<outline>
		<contour>
			<point x="552" y="328" type="line"/>
			<point x="541" y="59" type="line"/>
			<point x="459" y="46" type="line"/>
			<point x="453" y="0" type="line"/>
			<point x="718" y="0" type="line"/>
			<point x="724" y="46" type="line"/>
			<point x="629" y="59" type="line"/>
			<point x="651" y="637" type="line"/>
			<point x="736" y="654" type="line"/>
			<point x="742" y="700" type="line"/>
			<point x="485" y="700" type="line"/>
			<point x="479" y="654" type="line"/>
			<point x="565" y="637" type="line"/>
			<point x="554" y="391" type="line"/>
			<point x="240" y="391" type="line"/>
			<point x="250" y="637" type="line"/>
			<point x="335" y="654" type="line"/>
			<point x="341" y="700" type="line"/>
			<point x="83" y="700" type="line"/>
			<point x="77" y="654" type="line"/>
			<point x="163" y="637" type="line"/>
			<point x="140" y="59" type="line"/>
			<point x="58" y="46" type="line"/>
			<point x="52" y="0" type="line"/>
			<point x="317" y="0" type="line"/>
			<point x="323" y="46" type="line"/>
			<point x="228" y="59" type="line"/>
			<point x="238" y="328" type="line"/>
		</contour>
	</outline>
	<anchor name="bottom" x="376" y="-30"/>
	<anchor name="top" x="411" y="730"/>
</glyph>
<glyph name="J" format="2">
	<unicode hex="004A"/>
	<advance width="367"/>
	<outline>
		<contour>
			<point x="162" y="637" type="line"/>
			<point x="137" y="59" type="line" smooth="yes"/>
			<point x="132" y="-48"/>
			<point x="109" y="-103"/>
			<point x="31" y="-190" type="curve"/>
			<point x="58" y="-229" type="line"/>
			<point x="197" y="-119"/>
			<point x="221" y="-45"/>
			<point x="225" y="59" type="curve" smooth="yes"/>
			<point x="247" y="637" type="line"/>
			<point x="332" y="654" type="line"/>
			<point x="338" y="700" type="line"/>
			<point x="66" y="700" type="line"/>
			<point x="60" y="654" type="line"/>
		</contour>
	</outline>
	<anchor name="top" x="209" y="730"/>
</glyph>
<glyph name="K" format="2">
	<unicode hex="004B"/>
	<advance width="688"/>
	<outline>
		<contour>
			<point x="577" y="-14" type="curve" smooth="yes"/>
			<point x="615" y="-14"/>
			<point x="656" y="2"/>
			<point x="683" y="28" type="curve"/>
			<point x="663" y="63" type="line"/>
			<point x="639" y="51"/>
			<point x="621" y="45"/>
			<point x="604" y="45" type="curve" smooth="yes"/>
			<point x="557" y="45"/>
			<point x="540" y="71"/>
			<point x="498" y="208" type="curve" smooth="yes"/>
			<point x="467" y="310"/>
			<point x="435" y="348"/>
			<point x="353" y="382" type="curve"/>
			<point x="353" y="388" type="line"/>
			<point x="602" y="638" type="line"/>
			<point x="680" y="653" type="line"/>
			<point x="687" y="700" type="line"/>
			<point x="449" y="700" type="line"/>
			<point x="440" y="652" type="line"/>
			<point x="522" y="639" type="line"/>
			<point x="268" y="373" type="line"/>
			<point x="266" y="342" type="line"/>
			<point x="340" y="333"/>
			<point x="377" y="293"/>
			<point x="408" y="191" type="curve" smooth="yes"/>
			<point x="459" y="22"/>
			<point x="489" y="-14"/>
		</contour>
		<contour>
			<point x="52" y="0" type="line"/>
			<point x="317" y="0" type="line"/>
			<point x="323" y="46" type="line"/>
			<point x="228" y="59" type="line"/>
			<point x="250" y="637" type="line"/>
			<point x="335" y="654" type="line"/>
			<point x="341" y="700" type="line"/>
			<point x="85" y="700" type="line"/>
			<point x="79" y="654" type="line"/>
			<point x="165" y="637" type="line"/>
			<point x="140" y="59" type="line"/>
			<point x="58" y="46" type="line"/>
		</contour>
	</outline>
	<anchor name="bottom" x="345" y="-30"/>
	<anchor name="top" x="390" y="730"/>
</glyph>
<glyph name="M" format="2">
	<unicode hex="004D"/>
	<advance width="932"/>
	<outline>
		<contour>
			<point x="721" y="622" type="line"/>
			<point x="738" y="59" type="line"/>
			<point x="656" y="46" type="line"/>
			<point x="650" y="0" type="line"/>
			<point x="915" y="0" type="line"/>
			<point x="921" y="46" type="line"/>
			<point x="826" y="59" type="line"/>
			<point x="806" y="637" type="line"/>
			<point x="885" y="652" type="line"/>
			<point x="891" y="700" type="line"/>
			<point x="684" y="700" type="line"/>
			<point x="483" y="86" type="line"/>
			<point x="307" y="700" type="line"/>
			<point x="96" y="700" type="line"/>
			<point x="90" y="654" type="line"/>
			<point x="175" y="637" type="line"/>
			<point x="135" y="60" type="line"/>
			<point x="52" y="46" type="line"/>
			<point x="46" y="0" type="line"/>
			<point x="284" y="0" type="line"/>
			<point x="290" y="46" type="line"/>
			<point x="201" y="60" type="line"/>
			<point x="239" y="612" type="line"/>
			<point x="423" y="-11" type="line"/>
			<point x="520" y="6" type="line"/>
		</contour>
	</outline>
	<anchor name="bottom" x="468" y="-30"/>
</glyph>
<glyph name="N" format="2">
	<unicode hex="004E"/>
	<advance width="747"/>
	<outline>
		<contour>
			<point x="563" y="119" type="line"/>
			<point x="287" y="700" type="line"/>
			<point x="90" y="700" type="line"/>
			<point x="84" y="652" type="line"/>
			<point x="163" y="641" type="line"/>
			<point x="139" y="59" type="line"/>
			<point x="58" y="46" type="line"/>
			<point x="52" y="0" type="line"/>
			<point x="295" y="0" type="line"/>
			<point x="301" y="46" type="line"/>
			<point x="207" y="59" type="line"/>
			<point x="227" y="619" type="line"/>
			<point x="531" y="-11" type="line"/>
			<point x="623" y="0" type="line"/>
			<point x="648" y="637" type="line"/>
			<point x="733" y="654" type="line"/>
			<point x="739" y="700" type="line"/>
			<point x="502" y="700" type="line"/>
			<point x="496" y="654" type="line"/>
			<point x="581" y="637" type="line"/>
		</contour>
	</outline>
	<anchor name="bottom" x="370" y="-30"/>
	<anchor name="top" x="401" y="730"/>
</glyph>
<glyph name="Q" format="2">
	<unicode hex="0051"/>
	<advance width="703"/>
	<outline>
		<contour>
			<point x="60" y="346" type="curve" smooth="yes"/>
			<point x="60" y="187"/>
			<point x="140" y="72"/>
			<point x="275" y="37" type="curve"/>
			<point x="275" y="32" type="line"/>
			<point x="246" y="26"/>
			<point x="215" y="15"/>
			<point x="185" y="0" type="curve"/>
			<point x="209" y="-54" type="line"/>
			<point x="275" y="-25"/>
			<point x="297" y="-18"/>
			<point x="333" y="-18" type="curve" smooth="yes"/>
			<point x="384" y="-18"/>
			<point x="409" y="-31"/>
			<point x="494" y="-100" type="curve" smooth="yes"/>
			<point x="560" y="-154"/>
			<point x="605" y="-174"/>
			<point x="649" y="-174" type="curve" smooth="yes"/>
			<point x="697" y="-174"/>
			<point x="731" y="-143"/>
			<point x="731" y="-100" type="curve" smooth="yes"/>
			<point x="731" y="-58"/>
			<point x="698" y="-33"/>
			<point x="644" y="-33" type="curve"/>
			<point x="636" y="-63" type="line" smooth="yes"/>
			<point x="627" y="-95"/>
			<point x="611" y="-101"/>
			<point x="530" y="-43" type="curve" smooth="yes"/>
			<point x="477" y="-5"/>
			<point x="436" y="14"/>
			<point x="383" y="24" type="curve"/>
			<point x="383" y="32" type="line"/>
			<point x="575" y="56"/>
			<point x="675" y="178"/>
			<point x="675" y="390" type="curve" smooth="yes"/>
			<point x="675" y="587"/>
			<point x="561" y="715"/>
			<point x="386" y="715" type="curve" smooth="yes"/>
			<point x="186" y="715"/>
			<point x="60" y="573"/>
		</contour>
		<contour>
			<point x="155" y="355" type="curve" smooth="yes"/>
			<point x="155" y="546"/>
			<point x="233" y="653"/>
			<point x="372" y="653" type="curve" smooth="yes"/>
			<point x="500" y="653"/>
			<point x="577" y="549"/>
			<point x="577" y="376" type="curve" smooth="yes"/>
			<point x="577" y="194"/>
			<point x="492" y="75"/>
			<point x="361" y="75" type="curve" smooth="yes"/>
			<point x="228" y="75"/>
			<point x="155" y="174"/>
		</contour>
	</outline>
</glyph>
<glyph name="S" format="2">
	<unicode hex="0053"/>
	<advance width="497"/>
	<outline>
		<contour>
			<point x="474" y="197" type="curve" smooth="yes"/>
			<point x="474" y="283"/>
			<point x="441" y="320"/>
			<point x="317" y="386" type="curve" smooth="yes"/>
			<point x="192" y="452"/>
			<point x="154" y="488"/>
			<point x="154" y="545" type="curve" smooth="yes"/>
			<point x="154" y="615"/>
			<point x="203" y="653"/>
			<point x="293" y="653" type="curve" smooth="yes"/>
			<point x="360" y="653"/>
			<point x="395" y="621"/>
			<point x="373" y="579" type="curve" smooth="yes"/>
			<point x="354" y="542" type="line"/>
			<point x="368" y="528"/>
			<point x="395" y="518"/>
			<point x="419" y="518" type="curve" smooth="yes"/>
			<point x="455" y="518"/>
			<point x="479" y="544"/>
			<point x="479" y="582" type="curve" smooth="yes"/>
			<point x="479" y="657"/>
			<point x="400" y="715"/>
			<point x="298" y="715" type="curve" smooth="yes"/>
			<point x="166" y="715"/>
			<point x="72" y="633"/>
			<point x="72" y="519" type="curve" smooth="yes"/>
			<point x="72" y="438"/>
			<point x="118" y="386"/>
			<point x="254" y="315" type="curve" smooth="yes"/>
			<point x="362" y="258"/>
			<point x="393" y="228"/>
			<point x="393" y="179" type="curve" smooth="yes"/>
			<point x="393" y="101"/>
			<point x="333" y="49"/>
			<point x="241" y="49" type="curve" smooth="yes"/>
			<point x="168" y="49"/>
			<point x="133" y="81"/>
			<point x="156" y="128" type="curve" smooth="yes"/>
			<point x="172" y="161" type="line"/>
			<point x="156" y="177"/>
			<point x="130" y="187"/>
			<point x="105" y="187" type="curve" smooth="yes"/>
			<point x="68" y="187"/>
			<point x="42" y="157"/>
			<point x="42" y="115" type="curve" smooth="yes"/>
			<point x="42" y="40"/>
			<point x="123" y="-14"/>
			<point x="234" y="-14" type="curve" smooth="yes"/>
			<point x="375" y="-14"/>
			<point x="474" y="73"/>
		</contour>
	</outline>
	<anchor name="bottom" x="241" y="-32"/>
	<anchor name="top" x="291" y="730"/>
</glyph>
<glyph name="T" format="2">
	<unicode hex="0054"/>
	<advance width="621"/>
	<outline>
		<contour>
			<point x="164" y="46" type="line"/>
			<point x="158" y="0" type="line"/>
			<point x="456" y="0" type="line"/>
			<point x="462" y="46" type="line"/>
			<point x="353" y="58" type="line"/>
			<point x="375" y="643" type="line"/>
			<point x="464" y="643" type="line" smooth="yes"/>
			<point x="519" y="643"/>
			<point x="537" y="628"/>
			<point x="559" y="562" type="curve" smooth="yes"/>
			<point x="572" y="523" type="line"/>
			<point x="626" y="533" type="line"/>
			<point x="612" y="700" type="line"/>
			<point x="59" y="700" type="line"/>
			<point x="35" y="534" type="line"/>
			<point x="91" y="523" type="line"/>
			<point x="104" y="562" type="line" smooth="yes"/>
			<point x="129" y="637"/>
			<point x="149" y="643"/>
			<point x="202" y="643" type="curve" smooth="yes"/>
			<point x="290" y="643" type="line"/>
			<point x="269" y="59" type="line"/>
		</contour>
	</outline>
	<anchor name="bottom" x="302" y="-30"/>
	<anchor name="top" x="340" y="730"/>
</glyph>
<glyph name="U" format="2">
	<unicode hex="0055"/>
	<advance width="748"/>
	<outline>
		<contour>
			<point x="610" y="60" type="line"/>
			<point x="641" y="637" type="line"/>
			<point x="714" y="654" type="line"/>
			<point x="720" y="700" type="line"/>
			<point x="488" y="700" type="line"/>
			<point x="482" y="654" type="line"/>
			<point x="565" y="637" type="line"/>
			<point x="556" y="570" type="line" smooth="yes"/>
			<point x="526" y="345"/>
			<point x="457" y="58"/>
			<point x="306" y="58" type="curve" smooth="yes"/>
			<point x="230" y="58"/>
			<point x="201" y="108"/>
			<point x="207" y="230" type="curve" smooth="yes"/>
			<point x="228" y="637" type="line"/>
			<point x="313" y="654" type="line"/>
			<point x="319" y="700" type="line"/>
			<point x="71" y="700" type="line"/>
			<point x="65" y="654" type="line"/>
			<point x="141" y="639" type="line"/>
			<point x="119" y="222" type="line" smooth="yes"/>
			<point x="111" y="67"/>
			<point x="170" y="-14"/>
			<point x="293" y="-14" type="curve" smooth="yes"/>
			<point x="424" y="-14"/>
			<point x="498" y="90"/>
			<point x="561" y="365" type="curve"/>
			<point x="565" y="365" type="line"/>
			<point x="530" y="12" type="line"/>
			<point x="537" y="0" type="line"/>
			<point x="689" y="0" type="line"/>
			<point x="696" y="47" type="line"/>
		</contour>
	</outline>
	<anchor name="bottom" x="349" y="-30"/>
	<anchor name="top" x="396" y="730"/>
</glyph>
<glyph name="V" format="2">
	<unicode hex="0056"/>
	<advance width="690"/>
	<outline>
		<contour>
			<point x="352" y="86" type="line"/>
			<point x="197" y="640" type="line"/>
			<point x="285" y="653" type="line"/>
			<point x="291" y="700" type="line"/>
			<point x="28" y="700" type="line"/>
			<point x="21" y="653" type="line"/>
			<point x="98" y="638" type="line"/>
			<point x="288" y="-11" type="line"/>
			<point x="391" y="2" type="line"/>
			<point x="625" y="635" type="line"/>
			<point x="705" y="652" type="line"/>
			<point x="712" y="700" type="line"/>
			<point x="475" y="700" type="line"/>
			<point x="469" y="656" type="line"/>
			<point x="556" y="638" type="line"/>
			<point x="356" y="86" type="line"/>
		</contour>
	</outline>
	<anchor name="top" x="381" y="730"/>
</glyph>
<glyph name="Z" format="2">
	<unicode hex="005A"/>
	<advance width="614"/>
	<outline>
		<contour>
			<point x="583" y="650" type="line"/>
			<point x="577" y="700" type="line"/>
			<point x="113" y="700" type="line"/>
			<point x="88" y="524" type="line"/>
			<point x="145" y="514" type="line"/>
			<point x="159" y="560" type="line" smooth="yes"/>
			<point x="181" y="633"/>
			<point x="199" y="647"/>
			<point x="270" y="647" type="curve" smooth="yes"/>
			<point x="476" y="647" type="line"/>
			<point x="61" y="48" type="line"/>
			<point x="59" y="0" type="line"/>
			<point x="550" y="0" type="line"/>
			<point x="576" y="199" type="line"/>
			<point x="521" y="199" type="line"/>
			<point x="508" y="154" type="line" smooth="yes"/>
			<point x="484" y="70"/>
			<point x="453" y="55"/>
			<point x="380" y="55" type="curve" smooth="yes"/>
			<point x="170" y="55" type="line"/>
		</contour>
	</outline>
	<anchor name="bottom" x="306" y="-30"/>
	<anchor name="top" x="339" y="730"/>
</glyph>
<glyph name="bracketleft" format="2">
	<unicode hex="005B"/>
	<advance width="319"/>
	<outline>
		<contour>
			<point x="175" y="-154" type="line"/>
			<point x="208" y="755" type="line"/>
			<point x="305" y="764" type="line"/>
			<point x="309" y="812" type="line"/>
			<point x="128" y="812" type="line"/>
			<point x="90" y="-212" type="line"/>
			<point x="274" y="-212" type="line"/>
			<point x="280" y="-163" type="line"/>
		</contour>
	</outline>
</glyph>
<glyph name="bracketright" format="2">
	<unicode hex="005D"/>
	<advance width="322"/>
	<outline>
		<contour>
			<point x="168" y="754" type="line"/>
			<point x="135" y="-151" type="line"/>
			<point x="34" y="-160" type="line"/>
			<point x="30" y="-212" type="line"/>
			<point x="215" y="-212" type="line"/>
			<point x="253" y="812" type="line"/>
			<point x="74" y="812" type="line"/>
			<point x="68" y="763" type="line"/>
		</contour>
	</outline>
</glyph>
<glyph name="a" format="2">
	<unicode hex="0061"/>
	<advance width="571"/>
	<outline>
		<contour>
			<point x="466" y="90" type="curve" smooth="yes"/>
			<point x="479" y="511" type="line"/>
			<point x="462" y="519" type="line"/>
			<point x="392" y="496" type="line"/>
			<point x="368" y="508"/>
			<point x="325" y="521"/>
			<point x="278" y="521" type="curve" smooth="yes"/>
			<point x="145" y="521"/>
			<point x="48" y="390"/>
			<point x="48" y="201" type="curve" smooth="yes"/>
			<point x="48" y="77"/>
			<point x="96" y="-14"/>
			<point x="203" y="-14" type="curve" smooth="yes"/>
			<point x="299" y="-14"/>
			<point x="340" y="59"/>
			<point x="376" y="193" type="curve" smooth="yes"/>
			<point x="398" y="275" type="line"/>
			<point x="405" y="274" type="line"/>
			<point x="388" y="86" type="line" smooth="yes"/>
			<point x="382" y="19"/>
			<point x="405" y="-14"/>
			<point x="456" y="-14" type="curve" smooth="yes"/>
			<point x="497" y="-14"/>
			<point x="543" y="13"/>
			<point x="565" y="34" type="curve"/>
			<point x="540" y="72" type="line"/>
			<point x="521" y="56"/>
			<point x="504" y="47"/>
			<point x="491" y="47" type="curve" smooth="yes"/>
			<point x="471" y="47"/>
			<point x="465" y="57"/>
		</contour>
		<contour>
			<point x="216" y="54" type="curve" smooth="yes"/>
			<point x="162" y="54"/>
			<point x="139" y="100"/>
			<point x="139" y="205" type="curve" smooth="yes"/>
			<point x="139" y="355"/>
			<point x="199" y="460"/>
			<point x="287" y="460" type="curve" smooth="yes"/>
			<point x="323" y="460"/>
			<point x="370" y="449"/>
			<point x="395" y="436" type="curve"/>
			<point x="362" y="317" type="line" smooth="yes"/>
			<point x="300" y="94"/>
			<point x="279" y="54"/>
		</contour>
	</outline>
	<anchor name="bottom" x="282" y="-30"/>
	<anchor name="top" x="291" y="550"/>
</glyph>
<glyph name="e" format="2">
	<unicode hex="0065"/>
	<advance width="477"/>
	<outline>
		<contour>
			<point x="287" y="521" type="curve" smooth="yes"/>
			<point x="143" y="521"/>
			<point x="47" y="397"/>
			<point x="47" y="225" type="curve" smooth="yes"/>
			<point x="47" y="88"/>
			<point x="116" y="-14"/>
			<point x="245" y="-14" type="curve" smooth="yes"/>
			<point x="344" y="-14"/>
			<point x="406" y="51"/>
			<point x="429" y="80" type="curve"/>
			<point x="395" y="117" type="line"/>
			<point x="345" y="70"/>
			<point x="309" y="52"/>
			<point x="265" y="52" type="curve" smooth="yes"/>
			<point x="182" y="52"/>
			<point x="144" y="132"/>
			<point x="138" y="199" type="curve"/>
			<point x="249" y="226" type="line" smooth="yes"/>
			<point x="331" y="246"/>
			<point x="432" y="282"/>
			<point x="432" y="394" type="curve" smooth="yes"/>
			<point x="432" y="471"/>
			<point x="387" y="521"/>
		</contour>
		<contour>
			<point x="343" y="391" type="curve" smooth="yes"/>
			<point x="343" y="326"/>
			<point x="309" y="300"/>
			<point x="239" y="282" type="curve" smooth="yes"/>
			<point x="138" y="256" type="line"/>
			<point x="145" y="387"/>
			<point x="197" y="465"/>
			<point x="280" y="465" type="curve" smooth="yes"/>
			<point x="326" y="465"/>
			<point x="343" y="430"/>
		</contour>
	</outline>
	<anchor name="bottom" x="248" y="-30"/>
	<anchor name="top" x="269" y="550"/>
</glyph>
<glyph name="f" format="2">
	<unicode hex="0066"/>
	<advance width="382"/>
	<outline>
		<contour>
			<point x="326" y="734" type="curve" smooth="yes"/>
			<point x="370" y="734"/>
			<point x="385" y="710"/>
			<point x="369" y="666" type="curve" smooth="yes"/>
			<point x="359" y="639" type="line"/>
			<point x="371" y="623"/>
			<point x="391" y="613"/>
			<point x="412" y="613" type="curve" smooth="yes"/>
			<point x="447" y="613"/>
			<point x="470" y="636"/>
			<point x="470" y="671" type="curve" smooth="yes"/>
			<point x="470" y="754"/>
			<point x="393" y="782"/>
			<point x="332" y="782" type="curve" smooth="yes"/>
			<point x="207" y="782"/>
			<point x="138" y="691"/>
			<point x="130" y="559" type="curve" smooth="yes"/>
			<point x="127" y="508" type="line"/>
			<point x="46" y="500" type="line"/>
			<point x="39" y="448" type="line"/>
			<point x="125" y="448" type="line"/>
			<point x="110" y="23" type="line" smooth="yes"/>
			<point x="108" y="-23"/>
			<point x="106" y="-54"/>
			<point x="103" y="-82" type="curve" smooth="yes"/>
			<point x="97" y="-133"/>
			<point x="66" y="-145"/>
			<point x="32" y="-131" type="curve" smooth="yes"/>
			<point x="-9" y="-114" type="line"/>
			<point x="-24" y="-134"/>
			<point x="-32" y="-157"/>
			<point x="-32" y="-181" type="curve" smooth="yes"/>
			<point x="-32" y="-209"/>
			<point x="-5" y="-229"/>
			<point x="34" y="-229" type="curve" smooth="yes"/>
			<point x="63" y="-229"/>
			<point x="91" y="-213"/>
			<point x="115" y="-184" type="curve" smooth="yes"/>
			<point x="165" y="-124"/>
			<point x="195" y="14"/>
			<point x="200" y="122" type="curve" smooth="yes"/>
			<point x="214" y="448" type="line"/>
			<point x="354" y="448" type="line"/>
			<point x="358" y="507" type="line"/>
			<point x="214" y="507" type="line"/>
			<point x="219" y="602" type="line" smooth="yes"/>
			<point x="223" y="677"/>
			<point x="256" y="734"/>
		</contour>
	</outline>
</glyph>
<glyph name="g" format="2">
	<unicode hex="0067"/>
	<advance width="551"/>
	<outline>
		<contour>
			<point x="406" y="274" type="line"/>
			<point x="388" y="76" type="line" smooth="yes"/>
			<point x="374" y="-82"/>
			<point x="319" y="-181"/>
			<point x="216" y="-181" type="curve" smooth="yes"/>
			<point x="153" y="-181"/>
			<point x="148" y="-153"/>
			<point x="160" y="-115" type="curve" smooth="yes"/>
			<point x="169" y="-86" type="line"/>
			<point x="157" y="-70"/>
			<point x="133" y="-60"/>
			<point x="112" y="-60" type="curve" smooth="yes"/>
			<point x="77" y="-60"/>
			<point x="48" y="-88"/>
			<point x="48" y="-133" type="curve" smooth="yes"/>
			<point x="48" y="-206"/>
			<point x="130" y="-230"/>
			<point x="200" y="-230" type="curve" smooth="yes"/>
			<point x="398" y="-230"/>
			<point x="456" y="-77"/>
			<point x="462" y="81" type="curve" smooth="yes"/>
			<point x="478" y="512" type="line"/>
			<point x="448" y="522" type="line"/>
			<point x="410" y="497" type="line"/>
			<point x="371" y="513"/>
			<point x="322" y="521"/>
			<point x="282" y="521" type="curve" smooth="yes"/>
			<point x="141" y="521"/>
			<point x="49" y="393"/>
			<point x="49" y="206" type="curve" smooth="yes"/>
			<point x="49" y="87"/>
			<point x="93" y="-11"/>
			<point x="200" y="-11" type="curve" smooth="yes"/>
			<point x="309" y="-11"/>
			<point x="344" y="70"/>
			<point x="376" y="189" type="curve" smooth="yes"/>
			<point x="399" y="275" type="line"/>
		</contour>
		<contour>
			<point x="216" y="57" type="curve" smooth="yes"/>
			<point x="161" y="57"/>
			<point x="139" y="113"/>
			<point x="139" y="211" type="curve" smooth="yes"/>
			<point x="139" y="354"/>
			<point x="196" y="460"/>
			<point x="290" y="460" type="curve" smooth="yes"/>
			<point x="320" y="460"/>
			<point x="372" y="450"/>
			<point x="397" y="437" type="curve"/>
			<point x="364" y="316" type="line" smooth="yes"/>
			<point x="306" y="104"/>
			<point x="279" y="57"/>
		</contour>
	</outline>
	<anchor name="top" x="285" y="550"/>
</glyph>
<glyph name="n" format="2">
	<unicode hex="006E"/>
	<advance width="596"/>
	<outline>
		<contour>
			<point x="582" y="35" type="curve"/>
			<point x="559" y="71" type="line"/>
			<point x="540" y="56"/>
			<point x="518" y="47"/>
			<point x="503" y="47" type="curve" smooth="yes"/>
			<point x="482" y="47"/>
			<point x="477" y="58"/>
			<point x="480" y="90" type="curve" smooth="yes"/>
			<point x="502" y="348" type="line" smooth="yes"/>
			<point x="512" y="464"/>
			<point x="488" y="521"/>
			<point x="399" y="521" type="curve" smooth="yes"/>
			<point x="322" y="521"/>
			<point x="282" y="473"/>
			<point x="246" y="367" type="curve" smooth="yes"/>
			<point x="173" y="150" type="line"/>
			<point x="166" y="152" type="line"/>
			<point x="191" y="419" type="line" smooth="yes"/>
			<point x="197" y="486"/>
			<point x="178" y="521"/>
			<point x="121" y="521" type="curve" smooth="yes"/>
			<point x="81" y="521"/>
			<point x="27" y="500"/>
			<point x="6" y="488" type="curve"/>
			<point x="23" y="438" type="line"/>
			<point x="51" y="450"/>
			<point x="69" y="456"/>
			<point x="82" y="456" type="curve" smooth="yes"/>
			<point x="103" y="456"/>
			<point x="110" y="445"/>
			<point x="109" y="416" type="curve" smooth="yes"/>
			<point x="93" y="0" type="line"/>
			<point x="175" y="0" type="line"/>
			<point x="292" y="330" type="line" smooth="yes"/>
			<point x="320" y="409"/>
			<point x="334" y="447"/>
			<point x="378" y="447" type="curve" smooth="yes"/>
			<point x="411" y="447"/>
			<point x="423" y="425"/>
			<point x="417" y="354" type="curve" smooth="yes"/>
			<point x="392" y="69" type="line" smooth="yes"/>
			<point x="387" y="14"/>
			<point x="413" y="-14"/>
			<point x="465" y="-14" type="curve" smooth="yes"/>
			<point x="506" y="-14"/>
			<point x="559" y="14"/>
		</contour>
	</outline>
	<anchor name="bottom" x="282" y="-30"/>
	<anchor name="top" x="299" y="550"/>
</glyph>
<glyph name="p" format="2">
	<unicode hex="0070"/>
	<advance width="576"/>
	<outline>
		<contour>
			<point x="109" y="421" type="curve" smooth="yes"/>
			<point x="97" y="61" type="line"/>
			<point x="79" y="-215" type="line"/>
			<point x="95" y="-227" type="line"/>
			<point x="252" y="-224" type="line"/>
			<point x="257" y="-176" type="line"/>
			<point x="164" y="-166" type="line"/>
			<point x="176" y="13" type="line"/>
			<point x="199" y="1"/>
			<point x="243" y="-14"/>
			<point x="292" y="-14" type="curve" smooth="yes"/>
			<point x="423" y="-14"/>
			<point x="530" y="100"/>
			<point x="530" y="308" type="curve" smooth="yes"/>
			<point x="530" y="440"/>
			<point x="485" y="521"/>
			<point x="382" y="521" type="curve" smooth="yes"/>
			<point x="292" y="521"/>
			<point x="246" y="462"/>
			<point x="210" y="326" type="curve" smooth="yes"/>
			<point x="173" y="188" type="line"/>
			<point x="165" y="190" type="line"/>
			<point x="192" y="425" type="line" smooth="yes"/>
			<point x="199" y="485"/>
			<point x="179" y="521"/>
			<point x="123" y="521" type="curve" smooth="yes"/>
			<point x="77" y="521"/>
			<point x="37" y="504"/>
			<point x="6" y="488" type="curve"/>
			<point x="23" y="437" type="line"/>
			<point x="38" y="447"/>
			<point x="70" y="456"/>
			<point x="85" y="456" type="curve" smooth="yes"/>
			<point x="101" y="456"/>
			<point x="110" y="444"/>
		</contour>
		<contour>
			<point x="369" y="451" type="curve" smooth="yes"/>
			<point x="439" y="451"/>
			<point x="440" y="357"/>
			<point x="440" y="301" type="curve" smooth="yes"/>
			<point x="440" y="153"/>
			<point x="379" y="48"/>
			<point x="285" y="48" type="curve" smooth="yes"/>
			<point x="242" y="48"/>
			<point x="210" y="60"/>
			<point x="186" y="71" type="curve"/>
			<point x="220" y="186" type="line" smooth="yes"/>
			<point x="282" y="397"/>
			<point x="301" y="451"/>
		</contour>
	</outline>
</glyph>
<glyph name="q" format="2">
	<unicode hex="0071"/>
	<advance width="541"/>
	<outline>
		<contour>
			<point x="447" y="-127" type="curve" smooth="yes"/>
			<point x="476" y="512" type="line"/>
			<point x="446" y="522" type="line"/>
			<point x="408" y="497" type="line"/>
			<point x="369" y="513"/>
			<point x="320" y="521"/>
			<point x="280" y="521" type="curve" smooth="yes"/>
			<point x="139" y="521"/>
			<point x="47" y="393"/>
			<point x="47" y="206" type="curve" smooth="yes"/>
			<point x="47" y="87"/>
			<point x="91" y="-14"/>
			<point x="198" y="-14" type="curve" smooth="yes"/>
			<point x="305" y="-14"/>
			<point x="342" y="68"/>
			<point x="374" y="189" type="curve" smooth="yes"/>
			<point x="397" y="275" type="line"/>
			<point x="404" y="274" type="line"/>
			<point x="383" y="87" type="line"/>
			<point x="370" y="-127" type="line" smooth="yes"/>
			<point x="367" y="-183"/>
			<point x="378" y="-227"/>
			<point x="438" y="-227" type="curve" smooth="yes"/>
			<point x="479" y="-227"/>
			<point x="525" y="-199"/>
			<point x="547" y="-178" type="curve"/>
			<point x="524" y="-144" type="line"/>
			<point x="498" y="-161"/>
			<point x="485" y="-167"/>
			<point x="473" y="-167" type="curve" smooth="yes"/>
			<point x="451" y="-167"/>
			<point x="446" y="-157"/>
		</contour>
		<contour>
			<point x="214" y="54" type="curve" smooth="yes"/>
			<point x="166" y="54"/>
			<point x="137" y="113"/>
			<point x="137" y="211" type="curve" smooth="yes"/>
			<point x="137" y="354"/>
			<point x="194" y="460"/>
			<point x="288" y="460" type="curve" smooth="yes"/>
			<point x="318" y="460"/>
			<point x="370" y="450"/>
			<point x="395" y="437" type="curve"/>
			<point x="362" y="316" type="line" smooth="yes"/>
			<point x="302" y="97"/>
			<point x="276" y="54"/>
		</contour>
	</outline>
</glyph>
<glyph name="r" format="2">
	<unicode hex="0072"/>
	<advance width="464"/>
	<outline>
		<contour>
			<point x="109" y="416" type="curve" smooth="yes"/>
			<point x="89" y="0" type="line"/>
			<point x="163" y="0" type="line"/>
			<point x="171" y="82" type="line" smooth="yes"/>
			<point x="177" y="140"/>
			<point x="177" y="151"/>
			<point x="265" y="346" type="curve" smooth="yes"/>
			<point x="299" y="422"/>
			<point x="307" y="433"/>
			<point x="327" y="433" type="curve" smooth="yes"/>
			<point x="339" y="433"/>
			<point x="346" y="429"/>
			<point x="361" y="411" type="curve" smooth="yes"/>
			<point x="384" y="384" type="line"/>
			<point x="415" y="397"/>
			<point x="431" y="425"/>
			<point x="431" y="453" type="curve" smooth="yes"/>
			<point x="431" y="489"/>
			<point x="405" y="521"/>
			<point x="354" y="521" type="curve" smooth="yes"/>
			<point x="302" y="521"/>
			<point x="275" y="493"/>
			<point x="237" y="403" type="curve" smooth="yes"/>
			<point x="183" y="276" type="line"/>
			<point x="177" y="277" type="line"/>
			<point x="191" y="419" type="line" smooth="yes"/>
			<point x="198" y="486"/>
			<point x="178" y="521"/>
			<point x="121" y="521" type="curve" smooth="yes"/>
			<point x="81" y="521"/>
			<point x="27" y="500"/>
			<point x="6" y="488" type="curve"/>
			<point x="23" y="438" type="line"/>
			<point x="51" y="450"/>
			<point x="69" y="456"/>
			<point x="82" y="456" type="curve" smooth="yes"/>
			<point x="103" y="456"/>
			<point x="110" y="444"/>
		</contour>
	</outline>
	<anchor name="bottom" x="124" y="-30"/>
	<anchor name="top" x="239" y="550"/>
</glyph>
<glyph name="s" format="2">
	<unicode hex="0073"/>
	<advance width="441"/>
	<outline>
		<contour>
			<point x="211" y="44" type="curve" smooth="yes"/>
			<point x="157" y="44"/>
			<point x="139" y="59"/>
			<point x="139" y="96" type="curve" smooth="yes"/>
			<point x="139" y="122" type="line"/>
			<point x="129" y="128"/>
			<point x="111" y="133"/>
			<point x="95" y="133" type="curve" smooth="yes"/>
			<point x="66" y="133"/>
			<point x="39" y="116"/>
			<point x="39" y="79" type="curve" smooth="yes"/>
			<point x="39" y="24"/>
			<point x="105" y="-14"/>
			<point x="199" y="-14" type="curve" smooth="yes"/>
			<point x="318" y="-14"/>
			<point x="386" y="54"/>
			<point x="386" y="146" type="curve" smooth="yes"/>
			<point x="386" y="231"/>
			<point x="312" y="269"/>
			<point x="246" y="303" type="curve" smooth="yes"/>
			<point x="195" y="329"/>
			<point x="149" y="353"/>
			<point x="149" y="394" type="curve" smooth="yes"/>
			<point x="149" y="431"/>
			<point x="174" y="468"/>
			<point x="249" y="468" type="curve" smooth="yes"/>
			<point x="296" y="468"/>
			<point x="311" y="449"/>
			<point x="305" y="422" type="curve" smooth="yes"/>
			<point x="299" y="393" type="line"/>
			<point x="308" y="385"/>
			<point x="327" y="376"/>
			<point x="350" y="376" type="curve" smooth="yes"/>
			<point x="378" y="376"/>
			<point x="398" y="394"/>
			<point x="398" y="425" type="curve" smooth="yes"/>
			<point x="398" y="480"/>
			<point x="333" y="521"/>
			<point x="253" y="521" type="curve" smooth="yes"/>
			<point x="117" y="521"/>
			<point x="73" y="432"/>
			<point x="73" y="374" type="curve" smooth="yes"/>
			<point x="73" y="286"/>
			<point x="146" y="252"/>
			<point x="211" y="221" type="curve" smooth="yes"/>
			<point x="264" y="196"/>
			<point x="312" y="172"/>
			<point x="312" y="123" type="curve" smooth="yes"/>
			<point x="312" y="72"/>
			<point x="269" y="44"/>
		</contour>
	</outline>
	<anchor name="bottom" x="205" y="-30"/>
	<anchor name="top" x="238" y="550"/>
</glyph>
<glyph name="t" format="2">
	<unicode hex="0074"/>
	<advance width="402"/>
	<outline>
		<contour>
			<point x="44" y="501" type="line"/>
			<point x="36" y="448" type="line"/>
			<point x="116" y="448" type="line"/>
			<point x="102" y="133" type="line" smooth="yes"/>
			<point x="98" y="43"/>
			<point x="134" y="-14"/>
			<point x="232" y="-14" type="curve" smooth="yes"/>
			<point x="297" y="-14"/>
			<point x="351" y="23"/>
			<point x="386" y="70" type="curve"/>
			<point x="354" y="105" type="line"/>
			<point x="323" y="75"/>
			<point x="291" y="52"/>
			<point x="253" y="52" type="curve" smooth="yes"/>
			<point x="206" y="52"/>
			<point x="185" y="81"/>
			<point x="188" y="137" type="curve" smooth="yes"/>
			<point x="203" y="448" type="line"/>
			<point x="358" y="448" type="line"/>
			<point x="362" y="507" type="line"/>
			<point x="206" y="507" type="line"/>
			<point x="216" y="674" type="line"/>
			<point x="161" y="674" type="line"/>
			<point x="120" y="509" type="line"/>
		</contour>
	</outline>
	<anchor name="bottom" x="228" y="-30"/>
</glyph>
<glyph name="w" format="2">
	<unicode hex="0077"/>
	<advance width="786"/>
	<outline>
		<contour>
			<point x="448" y="508" type="curve"/>
			<point x="367" y="498" type="line"/>
			<point x="372" y="456"/>
			<point x="375" y="411"/>
			<point x="375" y="366" type="curve" smooth="yes"/>
			<point x="375" y="208"/>
			<point x="338" y="51"/>
			<point x="238" y="51" type="curve" smooth="yes"/>
			<point x="191" y="51"/>
			<point x="171" y="88"/>
			<point x="175" y="156" type="curve" smooth="yes"/>
			<point x="191" y="437" type="line" smooth="yes"/>
			<point x="194" y="486"/>
			<point x="173" y="521"/>
			<point x="116" y="521" type="curve" smooth="yes"/>
			<point x="75" y="521"/>
			<point x="23" y="501"/>
			<point x="0" y="488" type="curve"/>
			<point x="17" y="441" type="line"/>
			<point x="62" y="455" type="line" smooth="yes"/>
			<point x="87" y="463"/>
			<point x="104" y="452"/>
			<point x="103" y="421" type="curve" smooth="yes"/>
			<point x="90" y="149" type="line" smooth="yes"/>
			<point x="83" y="4"/>
			<point x="168" y="-14"/>
			<point x="216" y="-14" type="curve" smooth="yes"/>
			<point x="291" y="-14"/>
			<point x="340" y="22"/>
			<point x="375" y="87" type="curve"/>
			<point x="385" y="10"/>
			<point x="441" y="-14"/>
			<point x="488" y="-14" type="curve" smooth="yes"/>
			<point x="672" y="-14"/>
			<point x="743" y="254"/>
			<point x="743" y="410" type="curve" smooth="yes"/>
			<point x="743" y="484"/>
			<point x="715" y="521"/>
			<point x="658" y="521" type="curve" smooth="yes"/>
			<point x="609" y="521"/>
			<point x="592" y="481"/>
			<point x="596" y="436" type="curve"/>
			<point x="631" y="423" type="line" smooth="yes"/>
			<point x="658" y="413"/>
			<point x="669" y="399"/>
			<point x="666" y="346" type="curve" smooth="yes"/>
			<point x="659" y="238"/>
			<point x="604" y="52"/>
			<point x="503" y="52" type="curve" smooth="yes"/>
			<point x="442" y="52"/>
			<point x="432" y="96"/>
			<point x="441" y="164" type="curve" smooth="yes"/>
			<point x="450" y="231"/>
			<point x="459" y="311"/>
			<point x="459" y="385" type="curve" smooth="yes"/>
			<point x="459" y="428"/>
			<point x="456" y="470"/>
		</contour>
	</outline>
	<anchor name="top" x="401" y="550"/>
</glyph>
<glyph name="y" format="2">
	<unicode hex="0079"/>
	<advance width="538"/>
	<outline>
		<contour>
			<point x="304" y="-57" type="curve" smooth="yes"/>
			<point x="428" y="226" type="line" smooth="yes"/>
			<point x="480" y="344"/>
			<point x="497" y="396"/>
			<point x="497" y="437" type="curve" smooth="yes"/>
			<point x="497" y="485"/>
			<point x="472" y="521"/>
			<point x="423" y="521" type="curve" smooth="yes"/>
			<point x="374" y="521"/>
			<point x="349" y="485"/>
			<point x="356" y="436" type="curve"/>
			<point x="391" y="423" type="line" smooth="yes"/>
			<point x="424" y="411"/>
			<point x="428" y="389"/>
			<point x="406" y="338" type="curve" smooth="yes"/>
			<point x="293" y="67" type="line"/>
			<point x="277" y="67" type="line" smooth="yes"/>
			<point x="258" y="67"/>
			<point x="248" y="74"/>
			<point x="232" y="108" type="curve" smooth="yes"/>
			<point x="207" y="162"/>
			<point x="194" y="243"/>
			<point x="194" y="360" type="curve" smooth="yes"/>
			<point x="194" y="390"/>
			<point x="196" y="412"/>
			<point x="196" y="435" type="curve" smooth="yes"/>
			<point x="196" y="488"/>
			<point x="177" y="521"/>
			<point x="124" y="521" type="curve" smooth="yes"/>
			<point x="78" y="521"/>
			<point x="28" y="500"/>
			<point x="6" y="488" type="curve"/>
			<point x="23" y="439" type="line"/>
			<point x="39" y="447"/>
			<point x="72" y="457"/>
			<point x="87" y="457" type="curve" smooth="yes"/>
			<point x="102" y="457"/>
			<point x="109" y="450"/>
			<point x="109" y="429" type="curve" smooth="yes"/>
			<point x="109" y="408"/>
			<point x="108" y="375"/>
			<point x="108" y="353" type="curve" smooth="yes"/>
			<point x="108" y="225"/>
			<point x="130" y="115"/>
			<point x="164" y="59" type="curve" smooth="yes"/>
			<point x="188" y="19"/>
			<point x="211" y="0"/>
			<point x="254" y="0" type="curve" smooth="yes"/>
			<point x="263" y="0" type="line"/>
			<point x="233" y="-69" type="line" smooth="yes"/>
			<point x="203" y="-139"/>
			<point x="187" y="-160"/>
			<point x="156" y="-160" type="curve" smooth="yes"/>
			<point x="132" y="-160"/>
			<point x="125" y="-148"/>
			<point x="108" y="-117" type="curve" smooth="yes"/>
			<point x="93" y="-89" type="line"/>
			<point x="53" y="-95"/>
			<point x="29" y="-125"/>
			<point x="29" y="-159" type="curve" smooth="yes"/>
			<point x="29" y="-202"/>
			<point x="69" y="-229"/>
			<point x="121" y="-229" type="curve" smooth="yes"/>
			<point x="227" y="-229"/>
			<point x="263" y="-150"/>
		</contour>
	</outline>
	<anchor name="bottom" x="387" y="-30"/>
	<anchor name="top" x="275" y="550"/>
</glyph>
<glyph name="braceright" format="2">
	<unicode hex="007D"/>
	<advance width="364"/>
	<outline>
		<contour>
			<point x="316" y="278" type="curve"/>
			<point x="319" y="335" type="line"/>
			<point x="251" y="337"/>
			<point x="228" y="361"/>
			<point x="228" y="431" type="curve" smooth="yes"/>
			<point x="228" y="503"/>
			<point x="255" y="640"/>
			<point x="255" y="701" type="curve" smooth="yes"/>
			<point x="255" y="778"/>
			<point x="210" y="822"/>
			<point x="130" y="822" type="curve" smooth="yes"/>
			<point x="104" y="822"/>
			<point x="80" y="819"/>
			<point x="58" y="813" type="curve"/>
			<point x="66" y="764" type="line"/>
			<point x="80" y="767"/>
			<point x="98" y="768"/>
			<point x="114" y="768" type="curve" smooth="yes"/>
			<point x="152" y="768"/>
			<point x="167" y="748"/>
			<point x="167" y="698" type="curve" smooth="yes"/>
			<point x="167" y="658"/>
			<point x="142" y="504"/>
			<point x="142" y="439" type="curve" smooth="yes"/>
			<point x="142" y="362"/>
			<point x="171" y="324"/>
			<point x="244" y="305" type="curve"/>
			<point x="167" y="287"/>
			<point x="130" y="245"/>
			<point x="130" y="173" type="curve" smooth="yes"/>
			<point x="130" y="106"/>
			<point x="142" y="-62"/>
			<point x="142" y="-107" type="curve" smooth="yes"/>
			<point x="142" y="-151"/>
			<point x="125" y="-173"/>
			<point x="91" y="-173" type="curve" smooth="yes"/>
			<point x="77" y="-173"/>
			<point x="61" y="-172"/>
			<point x="42" y="-169" type="curve"/>
			<point x="31" y="-218" type="line"/>
			<point x="51" y="-223"/>
			<point x="80" y="-227"/>
			<point x="102" y="-227" type="curve" smooth="yes"/>
			<point x="181" y="-227"/>
			<point x="229" y="-182"/>
			<point x="229" y="-108" type="curve" smooth="yes"/>
			<point x="229" y="-43"/>
			<point x="216" y="107"/>
			<point x="216" y="182" type="curve" smooth="yes"/>
			<point x="216" y="245"/>
			<point x="249" y="276"/>
		</contour>
	</outline>
</glyph>
<glyph name="currency" format="2">
	<unicode hex="00A4"/>
	<advance width="533"/>
	<outline>
		<contour>
			<point x="100" y="310" type="curve" smooth="yes"/>
			<point x="100" y="269"/>
			<point x="108" y="233"/>
			<point x="123" y="208" type="curve"/>
			<point x="56" y="126" type="line"/>
			<point x="85" y="96" type="line"/>
			<point x="169" y="160" type="line"/>
			<point x="196" y="144"/>
			<point x="229" y="136"/>
			<point x="268" y="136" type="curve" smooth="yes"/>
			<point x="306" y="136"/>
			<point x="341" y="145"/>
			<point x="368" y="162" type="curve"/>
			<point x="452" y="95" type="line"/>
			<point x="483" y="125" type="line"/>
			<point x="420" y="209" type="line"/>
			<point x="442" y="241"/>
			<point x="453" y="280"/>
			<point x="453" y="324" type="curve" smooth="yes"/>
			<point x="453" y="366"/>
			<point x="446" y="398"/>
			<point x="431" y="423" type="curve"/>
			<point x="497" y="503" type="line"/>
			<point x="468" y="533" type="line"/>
			<point x="385" y="470" type="line"/>
			<point x="358" y="486"/>
			<point x="323" y="495"/>
			<point x="287" y="495" type="curve" smooth="yes"/>
			<point x="250" y="495"/>
			<point x="212" y="484"/>
			<point x="179" y="465" type="curve"/>
			<point x="99" y="530" type="line"/>
			<point x="68" y="500" type="line"/>
			<point x="130" y="416" type="line"/>
			<point x="110" y="386"/>
			<point x="100" y="351"/>
		</contour>
		<contour>
			<point x="175" y="315" type="curve" smooth="yes"/>
			<point x="175" y="395"/>
			<point x="214" y="440"/>
			<point x="283" y="440" type="curve" smooth="yes"/>
			<point x="348" y="440"/>
			<point x="379" y="400"/>
			<point x="379" y="317" type="curve" smooth="yes"/>
			<point x="379" y="235"/>
			<point x="340" y="189"/>
			<point x="270" y="189" type="curve" smooth="yes"/>
			<point x="208" y="189"/>
			<point x="175" y="233"/>
		</contour>
	</outline>
</glyph>
<glyph name="yen" format="2">
	<unicode hex="00A5"/>
	<advance width="670"/>
	<outline>
		<contour>
			<point x="203" y="0" type="line"/>
			<point x="468" y="0" type="line"/>
			<point x="474" y="46" type="line"/>
			<point x="379" y="59" type="line"/>
			<point x="385" y="213" type="line"/>
			<point x="601" y="213" type="line"/>
			<point x="603" y="267" type="line"/>
			<point x="390" y="267" type="line"/>
			<point x="390" y="267" type="line"/>
			<point x="428" y="331" type="line"/>
			<point x="605" y="331" type="line"/>
			<point x="607" y="386" type="line"/>
			<point x="460" y="386" type="line"/>
			<point x="605" y="635" type="line"/>
			<point x="685" y="652" type="line"/>
			<point x="692" y="700" type="line"/>
			<point x="455" y="700" type="line"/>
			<point x="449" y="656" type="line"/>
			<point x="536" y="638" type="line"/>
			<point x="363" y="327" type="line"/>
			<point x="359" y="327" type="line"/>
			<point x="197" y="640" type="line"/>
			<point x="280" y="653" type="line"/>
			<point x="286" y="700" type="line"/>
			<point x="28" y="700" type="line"/>
			<point x="21" y="653" type="line"/>
			<point x="98" y="638" type="line"/>
			<point x="234" y="386" type="line"/>
			<point x="91" y="386" type="line"/>
			<point x="84" y="331" type="line"/>
			<point x="263" y="331" type="line"/>
			<point x="298" y="267" type="line"/>
			<point x="298" y="267" type="line"/>
			<point x="86" y="267" type="line"/>
			<point x="79" y="213" type="line"/>
			<point x="299" y="213" type="line"/>
			<point x="291" y="59" type="line"/>
			<point x="209" y="46" type="line"/>
		</contour>
	</outline>
</glyph>
<glyph name="section" format="2">
	<unicode hex="00A7"/>
	<advance width="616"/>
	<outline>
		<contour>
			<point x="543" y="225" type="curve" smooth="yes"/>
			<point x="543" y="379"/>
			<point x="242" y="421"/>
			<point x="242" y="558" type="curve" smooth="yes"/>
			<point x="242" y="612"/>
			<point x="269" y="661"/>
			<point x="344" y="661" type="curve" smooth="yes"/>
			<point x="395" y="661"/>
			<point x="425" y="634"/>
			<point x="406" y="596" type="curve" smooth="yes"/>
			<point x="389" y="562" type="line"/>
			<point x="405" y="546"/>
			<point x="430" y="532"/>
			<point x="461" y="532" type="curve" smooth="yes"/>
			<point x="490" y="532"/>
			<point x="516" y="556"/>
			<point x="516" y="594" type="curve" smooth="yes"/>
			<point x="516" y="668"/>
			<point x="440" y="715"/>
			<point x="349" y="715" type="curve" smooth="yes"/>
			<point x="227" y="715"/>
			<point x="161" y="629"/>
			<point x="161" y="545" type="curve" smooth="yes"/>
			<point x="161" y="341"/>
			<point x="483" y="340"/>
			<point x="483" y="162" type="curve"/>
			<point x="523" y="154" type="line"/>
			<point x="532" y="169"/>
			<point x="543" y="197"/>
		</contour>
		<contour>
			<point x="106" y="334" type="curve"/>
			<point x="106" y="180"/>
			<point x="407" y="138"/>
			<point x="407" y="1" type="curve" smooth="yes"/>
			<point x="407" y="-53"/>
			<point x="380" y="-102"/>
			<point x="305" y="-102" type="curve" smooth="yes"/>
			<point x="252" y="-102"/>
			<point x="225" y="-78"/>
			<point x="244" y="-40" type="curve" smooth="yes"/>
			<point x="261" y="-6" type="line"/>
			<point x="245" y="10"/>
			<point x="222" y="22"/>
			<point x="191" y="22" type="curve" smooth="yes"/>
			<point x="162" y="22"/>
			<point x="130" y="-3"/>
			<point x="130" y="-45" type="curve" smooth="yes"/>
			<point x="130" y="-121"/>
			<point x="209" y="-156"/>
			<point x="300" y="-156" type="curve" smooth="yes"/>
			<point x="422" y="-156"/>
			<point x="488" y="-70"/>
			<point x="488" y="14" type="curve" smooth="yes"/>
			<point x="488" y="218"/>
			<point x="166" y="218"/>
			<point x="166" y="397" type="curve"/>
			<point x="126" y="405" type="line"/>
			<point x="117" y="390"/>
			<point x="106" y="362"/>
		</contour>
	</outline>
</glyph>
<glyph name="dieresis" format="2">
	<unicode hex="00A8"/>
	<advance width="501"/>
	<outline>
		<contour>
			<point x="114" y="680" type="curve" smooth="yes"/>
			<point x="114" y="644"/>
			<point x="137" y="620"/>
			<point x="173" y="620" type="curve" smooth="yes"/>
			<point x="211" y="620"/>
			<point x="238" y="648"/>
			<point x="238" y="685" type="curve" smooth="yes"/>
			<point x="238" y="721"/>
			<point x="216" y="745"/>
			<point x="178" y="745" type="curve" smooth="yes"/>
			<point x="142" y="745"/>
			<point x="114" y="716"/>
		</contour>
		<contour>
			<point x="312" y="680" type="curve" smooth="yes"/>
			<point x="312" y="644"/>
			<point x="335" y="620"/>
			<point x="372" y="620" type="curve" smooth="yes"/>
			<point x="409" y="620"/>
			<point x="436" y="648"/>
			<point x="436" y="685" type="curve" smooth="yes"/>
			<point x="436" y="721"/>
			<point x="414" y="745"/>
			<point x="377" y="745" type="curve" smooth="yes"/>
			<point x="340" y="745"/>
			<point x="312" y="716"/>
		</contour>
	</outline>
	<anchor name="_top" x="269" y="550"/>
</glyph>
<glyph name="copyright" format="2">
	<unicode hex="00A9"/>
	<advance width="794"/>
	<outline>
		<contour>
			<point x="395" y="-12" type="curve" smooth="yes"/>
			<point x="599" y="-12"/>
			<point x="733" y="123"/>
			<point x="733" y="325" type="curve" smooth="yes"/>
			<point x="733" y="521"/>
			<point x="600" y="647"/>
			<point x="397" y="647" type="curve" smooth="yes"/>
			<point x="213" y="647"/>
			<point x="58" y="522"/>
			<point x="58" y="311" type="curve" smooth="yes"/>
			<point x="58" y="128"/>
			<point x="169" y="-12"/>
		</contour>
		<contour>
			<point x="394" y="106" type="curve" smooth="yes"/>
			<point x="469" y="106"/>
			<point x="517" y="149"/>
			<point x="546" y="187" type="curve"/>
			<point x="520" y="214" type="line"/>
			<point x="488" y="178"/>
			<point x="451" y="153"/>
			<point x="401" y="153" type="curve" smooth="yes"/>
			<point x="321" y="153"/>
			<point x="289" y="228"/>
			<point x="289" y="308" type="curve" smooth="yes"/>
			<point x="289" y="423"/>
			<point x="335" y="478"/>
			<point x="413" y="478" type="curve" smooth="yes"/>
			<point x="464" y="478"/>
			<point x="496" y="447"/>
			<point x="479" y="416" type="curve" smooth="yes"/>
			<point x="469" y="397" type="line"/>
			<point x="479" y="388"/>
			<point x="494" y="380"/>
			<point x="513" y="380" type="curve" smooth="yes"/>
			<point x="535" y="380"/>
			<point x="550" y="396"/>
			<point x="550" y="417" type="curve" smooth="yes"/>
			<point x="550" y="472"/>
			<point x="485" y="521"/>
			<point x="412" y="521" type="curve" smooth="yes"/>
			<point x="306" y="521"/>
			<point x="216" y="447"/>
			<point x="216" y="303" type="curve" smooth="yes"/>
			<point x="216" y="222"/>
			<point x="262" y="106"/>
		</contour>
		<contour>
			<point x="397" y="40" type="curve" smooth="yes"/>
			<point x="224" y="40"/>
			<point x="120" y="147"/>
			<point x="120" y="312" type="curve" smooth="yes"/>
			<point x="120" y="487"/>
			<point x="238" y="595"/>
			<point x="397" y="595" type="curve" smooth="yes"/>
			<point x="558" y="595"/>
			<point x="673" y="495"/>
			<point x="673" y="319" type="curve" smooth="yes"/>
			<point x="673" y="152"/>
			<point x="568" y="40"/>
		</contour>
	</outline>
</glyph>
<glyph name="softhyphen" format="2">
	<unicode hex="00AD"/>
	<advance width="353"/>
	<outline>
		<contour>
			<point x="44" y="329" type="line"/>
			<point x="41" y="247" type="line"/>
			<point x="308" y="247" type="line"/>
			<point x="311" y="329" type="line"/>
		</contour>
	</outline>
</glyph>
<glyph name="degree" format="2">
	<unicode hex="00B0"/>
	<advance width="301"/>
	<outline>
		<contour>
			<point x="170" y="547" type="curve" smooth="yes"/>
			<point x="251" y="547"/>
			<point x="296" y="602"/>
			<point x="296" y="671" type="curve" smooth="yes"/>
			<point x="296" y="736"/>
			<point x="257" y="782"/>
			<point x="181" y="782" type="curve" smooth="yes"/>
			<point x="97" y="782"/>
			<point x="53" y="725"/>
			<point x="53" y="661" type="curve" smooth="yes"/>
			<point x="53" y="596"/>
			<point x="89" y="547"/>
		</contour>
		<contour>
			<point x="174" y="598" type="curve" smooth="yes"/>
			<point x="130" y="598"/>
			<point x="111" y="627"/>
			<point x="111" y="663" type="curve" smooth="yes"/>
			<point x="111" y="704"/>
			<point x="135" y="732"/>
			<point x="175" y="732" type="curve" smooth="yes"/>
			<point x="215" y="732"/>
			<point x="239" y="706"/>
			<point x="239" y="666" type="curve" smooth="yes"/>
			<point x="239" y="627"/>
			<point x="214" y="598"/>
		</contour>
	</outline>
</glyph>
<glyph name="plusminus" format="2">
	<unicode hex="00B1"/>
	<advance width="582"/>
	<outline>
		<contour>
			<point x="249" y="141" type="line"/>
			<point x="316" y="141" type="line"/>
			<point x="323" y="306" type="line"/>
			<point x="507" y="306" type="line"/>
			<point x="510" y="369" type="line"/>
			<point x="326" y="369" type="line"/>
			<point x="333" y="521" type="line"/>
			<point x="266" y="521" type="line"/>
			<point x="259" y="369" type="line"/>
			<point x="82" y="369" type="line"/>
			<point x="79" y="306" type="line"/>
			<point x="256" y="306" type="line"/>
		</contour>
		<contour>
			<point x="66" y="1" type="line"/>
			<point x="494" y="1" type="line"/>
			<point x="497" y="64" type="line"/>
			<point x="69" y="64" type="line"/>
		</contour>
	</outline>
</glyph>
<glyph name="paragraph" format="2">
	<unicode hex="00B6"/>
	<advance width="581"/>
	<outline>
		<contour>
			<point x="336" y="-82" type="curve" smooth="yes"/>
			<point x="331" y="-128"/>
			<point x="303" y="-147"/>
			<point x="265" y="-131" type="curve" smooth="yes"/>
			<point x="224" y="-114" type="line"/>
			<point x="207" y="-137"/>
			<point x="201" y="-155"/>
			<point x="201" y="-181" type="curve" smooth="yes"/>
			<point x="201" y="-209"/>
			<point x="229" y="-229"/>
			<point x="267" y="-229" type="curve" smooth="yes"/>
			<point x="296" y="-229"/>
			<point x="324" y="-213"/>
			<point x="348" y="-184" type="curve" smooth="yes"/>
			<point x="392" y="-132"/>
			<point x="428" y="-3"/>
			<point x="433" y="122" type="curve" smooth="yes"/>
			<point x="452" y="637" type="line"/>
			<point x="535" y="654" type="line"/>
			<point x="541" y="700" type="line"/>
			<point x="369" y="700" type="line"/>
			<point x="343" y="23" type="line" smooth="yes"/>
			<point x="341" y="-30"/>
			<point x="340" y="-49"/>
		</contour>
		<contour>
			<point x="284" y="238" type="line"/>
			<point x="309" y="700" type="line"/>
			<point x="297" y="700" type="line" smooth="yes"/>
			<point x="148" y="700"/>
			<point x="65" y="611"/>
			<point x="65" y="451" type="curve" smooth="yes"/>
			<point x="65" y="314"/>
			<point x="137" y="238"/>
			<point x="268" y="238" type="curve" smooth="yes"/>
		</contour>
	</outline>
</glyph>
<glyph name="periodcentered" format="2">
	<unicode hex="00B7"/>
	<advance width="319"/>
	<outline>
		<contour>
			<point x="94" y="305" type="curve" smooth="yes"/>
			<point x="94" y="262"/>
			<point x="125" y="238"/>
			<point x="169" y="238" type="curve" smooth="yes"/>
			<point x="215" y="238"/>
			<point x="251" y="266"/>
			<point x="251" y="314" type="curve" smooth="yes"/>
			<point x="251" y="355"/>
			<point x="220" y="383"/>
			<point x="174" y="383" type="curve" smooth="yes"/>
			<point x="126" y="383"/>
			<point x="94" y="350"/>
		</contour>
	</outline>
</glyph>
<glyph name="ordmasculine" format="2">
	<unicode hex="00BA"/>
	<advance width="427"/>
	<outline>
		<contour>
			<point x="218" y="362" type="curve" smooth="yes"/>
			<point x="341" y="362"/>
			<point x="395" y="458"/>
			<point x="395" y="566" type="curve" smooth="yes"/>
			<point x="395" y="672"/>
			<point x="340" y="741"/>
			<point x="239" y="741" type="curve" smooth="yes"/>
			<point x="115" y="741"/>
			<point x="64" y="645"/>
			<point x="64" y="538" type="curve" smooth="yes"/>
			<point x="64" y="432"/>
			<point x="122" y="362"/>
		</contour>
		<contour>
			<point x="222" y="410" type="curve" smooth="yes"/>
			<point x="164" y="410"/>
			<point x="141" y="457"/>
			<point x="141" y="536" type="curve" smooth="yes"/>
			<point x="141" y="621"/>
			<point x="158" y="694"/>
			<point x="233" y="694" type="curve" smooth="yes"/>
			<point x="299" y="694"/>
			<point x="319" y="644"/>
			<point x="319" y="567" type="curve" smooth="yes"/>
			<point x="319" y="481"/>
			<point x="300" y="410"/>
		</contour>
	</outline>
</glyph>
<glyph name="Eth" format="2">
	<unicode hex="00D0"/>
	<advance width="736"/>
	<outline>
		<contour>
			<point x="357" y="700" type="curve" smooth="yes"/>
			<point x="90" y="700" type="line"/>
			<point x="84" y="654" type="line"/>
			<point x="171" y="637" type="line"/>
			<point x="160" y="393" type="line"/>
			<point x="45" y="393" type="line"/>
			<point x="40" y="330" type="line"/>
			<point x="158" y="330" type="line"/>
			<point x="146" y="60" type="line"/>
			<point x="57" y="45" type="line"/>
			<point x="52" y="0" type="line"/>
			<point x="270" y="0" type="line" smooth="yes"/>
			<point x="539" y="0"/>
			<point x="695" y="144"/>
			<point x="695" y="392" type="curve" smooth="yes"/>
			<point x="695" y="588"/>
			<point x="572" y="700"/>
		</contour>
		<contour>
			<point x="262" y="55" type="curve" smooth="yes"/>
			<point x="234" y="55" type="line"/>
			<point x="245" y="330" type="line"/>
			<point x="436" y="330" type="line"/>
			<point x="441" y="393" type="line"/>
			<point x="247" y="393" type="line"/>
			<point x="257" y="646" type="line"/>
			<point x="346" y="646" type="line" smooth="yes"/>
			<point x="506" y="646"/>
			<point x="598" y="550"/>
			<point x="598" y="383" type="curve" smooth="yes"/>
			<point x="598" y="171"/>
			<point x="479" y="55"/>
		</contour>
	</outline>
	<anchor name="bottom" x="350" y="-30"/>
	<anchor name="top" x="365" y="730"/>
</glyph>
<glyph name="multiply" format="2">
	<unicode hex="00D7"/>
	<advance width="577"/>
	<outline>
		<contour>
			<point x="420" y="120" type="line"/>
			<point x="466" y="164" type="line"/>
			<point x="329" y="306" type="line"/>
			<point x="473" y="444" type="line"/>
			<point x="433" y="488" type="line"/>
			<point x="288" y="350" type="line"/>
			<point x="155" y="488" type="line"/>
			<point x="108" y="446" type="line"/>
			<point x="244" y="307" type="line"/>
			<point x="104" y="171" type="line"/>
			<point x="145" y="129" type="line"/>
			<point x="285" y="263" type="line"/>
		</contour>
	</outline>
</glyph>
<glyph name="Oslash" format="2">
	<unicode hex="00D8"/>
	<advance width="715"/>
	<outline>
		<contour>
			<point x="52" y="-14" type="line"/>
			<point x="128" y="-14" type="line"/>
			<point x="174" y="45" type="line"/>
			<point x="221" y="7"/>
			<point x="282" y="-14"/>
			<point x="353" y="-14" type="curve" smooth="yes"/>
			<point x="546" y="-14"/>
			<point x="674" y="144"/>
			<point x="674" y="382" type="curve" smooth="yes"/>
			<point x="674" y="474"/>
			<point x="651" y="551"/>
			<point x="610" y="608" type="curve"/>
			<point x="693" y="715" type="line"/>
			<point x="617" y="715" type="line"/>
			<point x="568" y="652" type="line"/>
			<point x="521" y="693"/>
			<point x="458" y="715"/>
			<point x="385" y="715" type="curve" smooth="yes"/>
			<point x="185" y="715"/>
			<point x="59" y="565"/>
			<point x="59" y="328" type="curve" smooth="yes"/>
			<point x="59" y="229"/>
			<point x="85" y="147"/>
			<point x="131" y="88" type="curve"/>
		</contour>
		<contour>
			<point x="366" y="51" type="curve" smooth="yes"/>
			<point x="309" y="51"/>
			<point x="261" y="73"/>
			<point x="226" y="112" type="curve"/>
			<point x="549" y="529" type="line"/>
			<point x="567" y="484"/>
			<point x="576" y="429"/>
			<point x="576" y="364" type="curve" smooth="yes"/>
			<point x="576" y="165"/>
			<point x="500" y="51"/>
		</contour>
		<contour>
			<point x="191" y="165" type="line"/>
			<point x="167" y="213"/>
			<point x="154" y="276"/>
			<point x="154" y="349" type="curve" smooth="yes"/>
			<point x="154" y="541"/>
			<point x="234" y="653"/>
			<point x="371" y="653" type="curve" smooth="yes"/>
			<point x="432" y="653"/>
			<point x="482" y="629"/>
			<point x="516" y="585" type="curve"/>
		</contour>
	</outline>
</glyph>
<glyph name="germandbls" format="2">
	<unicode hex="00DF"/>
	<advance width="640"/>
	<outline>
		<contour>
			<point x="422" y="44" type="curve" smooth="yes"/>
			<point x="368" y="44"/>
			<point x="350" y="59"/>
			<point x="350" y="96" type="curve" smooth="yes"/>
			<point x="350" y="122" type="line"/>
			<point x="340" y="128"/>
			<point x="322" y="133"/>
			<point x="306" y="133" type="curve" smooth="yes"/>
			<point x="277" y="133"/>
			<point x="250" y="116"/>
			<point x="250" y="79" type="curve" smooth="yes"/>
			<point x="250" y="24"/>
			<point x="316" y="-14"/>
			<point x="408" y="-14" type="curve" smooth="yes"/>
			<point x="521" y="-14"/>
			<point x="587" y="63"/>
			<point x="587" y="153" type="curve" smooth="yes"/>
			<point x="587" y="305"/>
			<point x="388" y="310"/>
			<point x="388" y="403" type="curve" smooth="yes"/>
			<point x="388" y="492"/>
			<point x="536" y="537"/>
			<point x="536" y="652" type="curve" smooth="yes"/>
			<point x="536" y="742"/>
			<point x="446" y="782"/>
			<point x="358" y="782" type="curve" smooth="yes"/>
			<point x="212" y="782"/>
			<point x="125" y="687"/>
			<point x="120" y="559" type="curve" smooth="yes"/>
			<point x="100" y="23" type="line" smooth="yes"/>
			<point x="98" y="-26"/>
			<point x="99" y="-39"/>
			<point x="93" y="-82" type="curve" smooth="yes"/>
			<point x="88" y="-128"/>
			<point x="60" y="-147"/>
			<point x="22" y="-131" type="curve" smooth="yes"/>
			<point x="-19" y="-114" type="line"/>
			<point x="-37" y="-139"/>
			<point x="-42" y="-164"/>
			<point x="-42" y="-183" type="curve" smooth="yes"/>
			<point x="-42" y="-209"/>
			<point x="-14" y="-229"/>
			<point x="24" y="-229" type="curve" smooth="yes"/>
			<point x="53" y="-229"/>
			<point x="81" y="-213"/>
			<point x="105" y="-184" type="curve" smooth="yes"/>
			<point x="155" y="-124"/>
			<point x="186" y="14"/>
			<point x="190" y="122" type="curve" smooth="yes"/>
			<point x="209" y="602" type="line" smooth="yes"/>
			<point x="212" y="677"/>
			<point x="256" y="734"/>
			<point x="351" y="734" type="curve" smooth="yes"/>
			<point x="409" y="734"/>
			<point x="456" y="706"/>
			<point x="456" y="648" type="curve" smooth="yes"/>
			<point x="456" y="532"/>
			<point x="311" y="495"/>
			<point x="311" y="374" type="curve" smooth="yes"/>
			<point x="311" y="239"/>
			<point x="515" y="241"/>
			<point x="515" y="131" type="curve" smooth="yes"/>
			<point x="515" y="80"/>
			<point x="474" y="44"/>
		</contour>
	</outline>
</glyph>
<glyph name="ae" format="2">
	<unicode hex="00E6"/>
	<advance width="773"/>
	<outline>
		<contour>
			<point x="593" y="521" type="curve" smooth="yes"/>
			<point x="544" y="521"/>
			<point x="499" y="501"/>
			<point x="464" y="467" type="curve"/>
			<point x="472" y="513" type="line"/>
			<point x="455" y="521" type="line"/>
			<point x="392" y="496" type="line"/>
			<point x="368" y="508"/>
			<point x="325" y="521"/>
			<point x="278" y="521" type="curve" smooth="yes"/>
			<point x="145" y="521"/>
			<point x="48" y="390"/>
			<point x="48" y="201" type="curve" smooth="yes"/>
			<point x="48" y="77"/>
			<point x="96" y="-14"/>
			<point x="203" y="-14" type="curve" smooth="yes"/>
			<point x="290" y="-14"/>
			<point x="332" y="46"/>
			<point x="366" y="158" type="curve"/>
			<point x="381" y="56"/>
			<point x="434" y="-14"/>
			<point x="541" y="-14" type="curve" smooth="yes"/>
			<point x="607" y="-14"/>
			<point x="680" y="23"/>
			<point x="725" y="80" type="curve"/>
			<point x="691" y="117" type="line"/>
			<point x="643" y="72"/>
			<point x="603" y="52"/>
			<point x="561" y="52" type="curve" smooth="yes"/>
			<point x="478" y="52"/>
			<point x="440" y="132"/>
			<point x="434" y="199" type="curve"/>
			<point x="545" y="226" type="line" smooth="yes"/>
			<point x="627" y="246"/>
			<point x="728" y="282"/>
			<point x="728" y="394" type="curve" smooth="yes"/>
			<point x="728" y="471"/>
			<point x="683" y="521"/>
		</contour>
		<contour>
			<point x="216" y="54" type="curve" smooth="yes"/>
			<point x="163" y="54"/>
			<point x="139" y="101"/>
			<point x="139" y="205" type="curve" smooth="yes"/>
			<point x="139" y="355"/>
			<point x="199" y="460"/>
			<point x="287" y="460" type="curve" smooth="yes"/>
			<point x="323" y="460"/>
			<point x="372" y="449"/>
			<point x="397" y="436" type="curve"/>
			<point x="364" y="317" type="line" smooth="yes"/>
			<point x="303" y="98"/>
			<point x="278" y="54"/>
		</contour>
		<contour>
			<point x="639" y="391" type="curve" smooth="yes"/>
			<point x="639" y="326"/>
			<point x="605" y="300"/>
			<point x="535" y="282" type="curve" smooth="yes"/>
			<point x="434" y="256" type="line"/>
			<point x="441" y="387"/>
			<point x="493" y="465"/>
			<point x="576" y="465" type="curve" smooth="yes"/>
			<point x="622" y="465"/>
			<point x="639" y="430"/>
		</contour>
	</outline>
	<anchor name="top" x="457" y="550"/>
</glyph>
<glyph name="oslash" format="2">
	<unicode hex="00F8"/>
	<advance width="539"/>
	<outline>
		<contour>
			<point x="19" y="-14" type="line"/>
			<point x="96" y="-14" type="line"/>
			<point x="129" y="27" type="line"/>
			<point x="161" y="0"/>
			<point x="203" y="-14"/>
			<point x="254" y="-14" type="curve" smooth="yes"/>
			<point x="424" y="-14"/>
			<point x="491" y="122"/>
			<point x="491" y="274" type="curve" smooth="yes"/>
			<point x="491" y="336"/>
			<point x="478" y="389"/>
			<point x="453" y="430" type="curve"/>
			<point x="527" y="521" type="line"/>
			<point x="451" y="521" type="line"/>
			<point x="415" y="476" type="line"/>
			<point x="381" y="505"/>
			<point x="336" y="521"/>
			<point x="283" y="521" type="curve" smooth="yes"/>
			<point x="112" y="521"/>
			<point x="48" y="385"/>
			<point x="48" y="235" type="curve" smooth="yes"/>
			<point x="48" y="169"/>
			<point x="62" y="114"/>
			<point x="88" y="72" type="curve"/>
		</contour>
		<contour>
			<point x="260" y="45" type="curve" smooth="yes"/>
			<point x="224" y="45"/>
			<point x="196" y="60"/>
			<point x="177" y="87" type="curve"/>
			<point x="391" y="352" type="line"/>
			<point x="395" y="329"/>
			<point x="397" y="303"/>
			<point x="397" y="275" type="curve" smooth="yes"/>
			<point x="397" y="154"/>
			<point x="367" y="45"/>
		</contour>
		<contour>
			<point x="151" y="150" type="line"/>
			<point x="146" y="174"/>
			<point x="143" y="201"/>
			<point x="143" y="231" type="curve" smooth="yes"/>
			<point x="143" y="352"/>
			<point x="168" y="463"/>
			<point x="275" y="463" type="curve" smooth="yes"/>
			<point x="318" y="463"/>
			<point x="347" y="446"/>
			<point x="366" y="416" type="curve"/>
		</contour>
	</outline>
</glyph>
<glyph name="thorn" format="2">
	<unicode hex="00FE"/>
	<advance width="567"/>
	<outline>
		<contour>
			<point x="86" y="-227" type="line"/>
			<point x="243" y="-224" type="line"/>
			<point x="248" y="-176" type="line"/>
			<point x="155" y="-166" type="line"/>
			<point x="167" y="13" type="line"/>
			<point x="190" y="1"/>
			<point x="234" y="-14"/>
			<point x="283" y="-14" type="curve" smooth="yes"/>
			<point x="416" y="-14"/>
			<point x="521" y="100"/>
			<point x="521" y="308" type="curve" smooth="yes"/>
			<point x="521" y="440"/>
			<point x="476" y="521"/>
			<point x="373" y="521" type="curve" smooth="yes"/>
			<point x="283" y="521"/>
			<point x="237" y="462"/>
			<point x="201" y="326" type="curve" smooth="yes"/>
			<point x="164" y="188" type="line"/>
			<point x="156" y="190" type="line"/>
			<point x="183" y="425" type="line"/>
			<point x="195" y="756" type="line"/>
			<point x="179" y="767" type="line"/>
			<point x="23" y="767" type="line"/>
			<point x="17" y="719" type="line"/>
			<point x="110" y="698" type="line"/>
			<point x="88" y="61" type="line"/>
			<point x="70" y="-215" type="line"/>
		</contour>
		<contour>
			<point x="360" y="451" type="curve" smooth="yes"/>
			<point x="430" y="451"/>
			<point x="431" y="357"/>
			<point x="431" y="301" type="curve" smooth="yes"/>
			<point x="431" y="153"/>
			<point x="371" y="48"/>
			<point x="278" y="48" type="curve" smooth="yes"/>
			<point x="234" y="48"/>
			<point x="202" y="60"/>
			<point x="178" y="71" type="curve"/>
			<point x="211" y="186" type="line" smooth="yes"/>
			<point x="276" y="415"/>
			<point x="296" y="451"/>
		</contour>
	</outline>
</glyph>
<glyph name="aogonek" format="2">
	<unicode hex="0105"/>
	<advance width="571"/>
	<outline>
		<contour>
			<point x="203" y="-14" type="curve" smooth="yes"/>
			<point x="289" y="-14"/>
			<point x="335" y="41"/>
			<point x="376" y="193" type="curve" smooth="yes"/>
			<point x="398" y="275" type="line"/>
			<point x="405" y="274" type="line"/>
			<point x="388" y="86" type="line" smooth="yes"/>
			<point x="382" y="21"/>
			<point x="403" y="-11"/>
			<point x="449" y="-14" type="curve"/>
			<point x="372" y="-84"/>
			<point x="353" y="-112"/>
			<point x="353" y="-155" type="curve" smooth="yes"/>
			<point x="353" y="-199"/>
			<point x="383" y="-229"/>
			<point x="428" y="-229" type="curve" smooth="yes"/>
			<point x="476" y="-229"/>
			<point x="521" y="-202"/>
			<point x="552" y="-156" type="curve"/>
			<point x="524" y="-128" type="line"/>
			<point x="504" y="-149"/>
			<point x="483" y="-161"/>
			<point x="467" y="-161" type="curve" smooth="yes"/>
			<point x="446" y="-161"/>
			<point x="436" y="-150"/>
			<point x="436" y="-128" type="curve" smooth="yes"/>
			<point x="436" y="-87"/>
			<point x="483" y="-36"/>
			<point x="565" y="34" type="curve"/>
			<point x="540" y="72" type="line"/>
			<point x="521" y="56"/>
			<point x="504" y="47"/>
			<point x="491" y="47" type="curve" smooth="yes"/>
			<point x="471" y="47"/>
			<point x="465" y="56"/>
			<point x="466" y="90" type="curve" smooth="yes"/>
			<point x="479" y="511" type="line"/>
			<point x="462" y="519" type="line"/>
			<point x="392" y="496" type="line"/>
			<point x="362" y="511"/>
			<point x="317" y="521"/>
			<point x="278" y="521" type="curve" smooth="yes"/>
			<point x="144" y="521"/>
			<point x="48" y="388"/>
			<point x="48" y="201" type="curve" smooth="yes"/>
			<point x="48" y="65"/>
			<point x="105" y="-14"/>
		</contour>
		<contour>
			<point x="216" y="54" type="curve" smooth="yes"/>
			<point x="163" y="54"/>
			<point x="139" y="102"/>
			<point x="139" y="205" type="curve" smooth="yes"/>
			<point x="139" y="356"/>
			<point x="199" y="460"/>
			<point x="287" y="460" type="curve" smooth="yes"/>
			<point x="321" y="460"/>
			<point x="368" y="450"/>
			<point x="395" y="436" type="curve"/>
			<point x="362" y="317" type="line" smooth="yes"/>
			<point x="302" y="97"/>
			<point x="278" y="54"/>
		</contour>
	</outline>
</glyph>
<glyph name="dcroat" format="2">
	<unicode hex="0111"/>
	<advance width="573"/>
	<outline>
		<contour>
			<point x="198" y="-14" type="curve" smooth="yes"/>
			<point x="305" y="-14"/>
			<point x="342" y="68"/>
			<point x="374" y="189" type="curve" smooth="yes"/>
			<point x="397" y="275" type="line"/>
			<point x="404" y="274" type="line"/>
			<point x="388" y="86" type="line" smooth="yes"/>
			<point x="383" y="29"/>
			<point x="398" y="-14"/>
			<point x="456" y="-14" type="curve" smooth="yes"/>
			<point x="497" y="-14"/>
			<point x="549" y="16"/>
			<point x="571" y="37" type="curve"/>
			<point x="548" y="71" type="line"/>
			<point x="528" y="58"/>
			<point x="509" y="46"/>
			<point x="491" y="46" type="curve" smooth="yes"/>
			<point x="470" y="46"/>
			<point x="464" y="56"/>
			<point x="465" y="86" type="curve" smooth="yes"/>
			<point x="480" y="572" type="line"/>
			<point x="573" y="572" type="line"/>
			<point x="575" y="629" type="line"/>
			<point x="481" y="629" type="line"/>
			<point x="485" y="756" type="line"/>
			<point x="469" y="767" type="line"/>
			<point x="313" y="767" type="line"/>
			<point x="307" y="719" type="line"/>
			<point x="400" y="698" type="line"/>
			<point x="397" y="629" type="line"/>
			<point x="250" y="629" type="line"/>
			<point x="247" y="572" type="line"/>
			<point x="395" y="572" type="line"/>
			<point x="392" y="496" type="line"/>
			<point x="368" y="508"/>
			<point x="320" y="521"/>
			<point x="280" y="521" type="curve" smooth="yes"/>
			<point x="139" y="521"/>
			<point x="47" y="393"/>
			<point x="47" y="206" type="curve" smooth="yes"/>
			<point x="47" y="87"/>
			<point x="91" y="-14"/>
		</contour>
		<contour>
			<point x="214" y="54" type="curve" smooth="yes"/>
			<point x="163" y="54"/>
			<point x="137" y="107"/>
			<point x="137" y="211" type="curve" smooth="yes"/>
			<point x="137" y="354"/>
			<point x="194" y="460"/>
			<point x="288" y="460" type="curve" smooth="yes"/>
			<point x="318" y="460"/>
			<point x="370" y="450"/>
			<point x="395" y="437" type="curve"/>
			<point x="362" y="316" type="line" smooth="yes"/>
			<point x="303" y="100"/>
			<point x="277" y="54"/>
		</contour>
	</outline>
</glyph>
<glyph name="Iogonek" format="2">
	<unicode hex="012E"/>
	<advance width="359"/>
	<outline>
		<contour>
			<point x="52" y="0" type="line"/>
			<point x="181" y="0" type="line"/>
			<point x="130" y="-36"/>
			<point x="73" y="-92"/>
			<point x="73" y="-155" type="curve" smooth="yes"/>
			<point x="73" y="-204"/>
			<point x="108" y="-229"/>
			<point x="148" y="-229" type="curve" smooth="yes"/>
			<point x="203" y="-229"/>
			<point x="246" y="-195"/>
			<point x="272" y="-156" type="curve"/>
			<point x="244" y="-128" type="line"/>
			<point x="226" y="-147"/>
			<point x="205" y="-161"/>
			<point x="187" y="-161" type="curve" smooth="yes"/>
			<point x="166" y="-161"/>
			<point x="156" y="-150"/>
			<point x="156" y="-128" type="curve" smooth="yes"/>
			<point x="156" y="-80"/>
			<point x="198" y="-33"/>
			<point x="237" y="0" type="curve"/>
			<point x="317" y="0" type="line"/>
			<point x="323" y="46" type="line"/>
			<point x="228" y="59" type="line"/>
			<point x="250" y="637" type="line"/>
			<point x="335" y="654" type="line"/>
			<point x="341" y="700" type="line"/>
			<point x="85" y="700" type="line"/>
			<point x="79" y="654" type="line"/>
			<point x="165" y="637" type="line"/>
			<point x="140" y="59" type="line"/>
			<point x="58" y="46" type="line"/>
		</contour>
	</outline>
</glyph>
<glyph name="iogonek" format="2">
	<unicode hex="012F"/>
	<advance width="298"/>
	<outline>
		<contour>
			<point x="93" y="77" type="line" smooth="yes"/>
			<point x="88" y="16"/>
			<point x="113" y="-14"/>
			<point x="165" y="-14" type="curve"/>
			<point x="102" y="-68"/>
			<point x="73" y="-112"/>
			<point x="73" y="-155" type="curve" smooth="yes"/>
			<point x="73" y="-199"/>
			<point x="103" y="-229"/>
			<point x="148" y="-229" type="curve" smooth="yes"/>
			<point x="196" y="-229"/>
			<point x="241" y="-202"/>
			<point x="272" y="-156" type="curve"/>
			<point x="244" y="-128" type="line"/>
			<point x="224" y="-149"/>
			<point x="203" y="-161"/>
			<point x="187" y="-161" type="curve" smooth="yes"/>
			<point x="166" y="-161"/>
			<point x="156" y="-150"/>
			<point x="156" y="-128" type="curve" smooth="yes"/>
			<point x="156" y="-86"/>
			<point x="192" y="-34"/>
			<point x="249" y="7" type="curve" smooth="yes"/>
			<point x="263" y="17"/>
			<point x="279" y="31"/>
			<point x="291" y="43" type="curve"/>
			<point x="266" y="81" type="line"/>
			<point x="238" y="56"/>
			<point x="220" y="47"/>
			<point x="204" y="47" type="curve" smooth="yes"/>
			<point x="184" y="47"/>
			<point x="179" y="57"/>
			<point x="181" y="90" type="curve" smooth="yes"/>
			<point x="204" y="408" type="line" smooth="yes"/>
			<point x="209" y="484"/>
			<point x="186" y="521"/>
			<point x="131" y="521" type="curve" smooth="yes"/>
			<point x="97" y="521"/>
			<point x="50" y="507"/>
			<point x="15" y="486" type="curve"/>
			<point x="31" y="441" type="line"/>
			<point x="56" y="452"/>
			<point x="78" y="457"/>
			<point x="94" y="457" type="curve" smooth="yes"/>
			<point x="115" y="457"/>
			<point x="121" y="447"/>
			<point x="119" y="416" type="curve" smooth="yes"/>
		</contour>
		<contour>
			<point x="92" y="686" type="curve" smooth="yes"/>
			<point x="92" y="647"/>
			<point x="118" y="620"/>
			<point x="157" y="620" type="curve" smooth="yes"/>
			<point x="195" y="620"/>
			<point x="221" y="648"/>
			<point x="221" y="687" type="curve" smooth="yes"/>
			<point x="221" y="726"/>
			<point x="195" y="753"/>
			<point x="157" y="753" type="curve" smooth="yes"/>
			<point x="119" y="753"/>
			<point x="92" y="726"/>
		</contour>
	</outline>
</glyph>
<glyph name="kgreenlandic" format="2">
	<unicode hex="0138"/>
	<advance width="555"/>
	<outline>
		<contour>
			<point x="85" y="0" type="line"/>
			<point x="166" y="0" type="line"/>
			<point x="179" y="240" type="line"/>
			<point x="192" y="243"/>
			<point x="210" y="248"/>
			<point x="227" y="253" type="curve"/>
			<point x="334" y="65" type="line" smooth="yes"/>
			<point x="368" y="6"/>
			<point x="394" y="-14"/>
			<point x="439" y="-14" type="curve" smooth="yes"/>
			<point x="486" y="-14"/>
			<point x="529" y="11"/>
			<point x="549" y="30" type="curve"/>
			<point x="527" y="66" type="line"/>
			<point x="510" y="56"/>
			<point x="494" y="47"/>
			<point x="472" y="47" type="curve" smooth="yes"/>
			<point x="449" y="47"/>
			<point x="434" y="60"/>
			<point x="407" y="105" type="curve" smooth="yes"/>
			<point x="302" y="283" type="line"/>
			<point x="325" y="294"/>
			<point x="348" y="306"/>
			<point x="372" y="321" type="curve" smooth="yes"/>
			<point x="442" y="365"/>
			<point x="472" y="399"/>
			<point x="472" y="451" type="curve" smooth="yes"/>
			<point x="472" y="488"/>
			<point x="448" y="521"/>
			<point x="406" y="521" type="curve" smooth="yes"/>
			<point x="368" y="521"/>
			<point x="338" y="497"/>
			<point x="330" y="455" type="curve"/>
			<point x="358" y="438" type="line" smooth="yes"/>
			<point x="385" y="422"/>
			<point x="378" y="391"/>
			<point x="338" y="364" type="curve" smooth="yes"/>
			<point x="285" y="329"/>
			<point x="235" y="310"/>
			<point x="182" y="299" type="curve"/>
			<point x="188" y="408" type="line" smooth="yes"/>
			<point x="192" y="486"/>
			<point x="176" y="521"/>
			<point x="122" y="521" type="curve" smooth="yes"/>
			<point x="78" y="521"/>
			<point x="31" y="501"/>
			<point x="6" y="486" type="curve"/>
			<point x="22" y="441" type="line"/>
			<point x="47" y="452"/>
			<point x="69" y="457"/>
			<point x="85" y="457" type="curve" smooth="yes"/>
			<point x="104" y="457"/>
			<point x="109" y="449"/>
			<point x="107" y="416" type="curve" smooth="yes"/>
		</contour>
	</outline>
</glyph>
<glyph name="Lslash" format="2">
	<unicode hex="0141"/>
	<advance width="584"/>
	<outline>
		<contour>
			<point x="52" y="0" type="line"/>
			<point x="524" y="0" type="line"/>
			<point x="550" y="194" type="line"/>
			<point x="495" y="194" type="line"/>
			<point x="479" y="143" type="line" smooth="yes"/>
			<point x="456" y="69"/>
			<point x="428" y="58"/>
			<point x="376" y="58" type="curve" smooth="yes"/>
			<point x="226" y="58" type="line"/>
			<point x="237" y="325" type="line"/>
			<point x="437" y="446" type="line"/>
			<point x="444" y="516" type="line"/>
			<point x="240" y="393" type="line"/>
			<point x="250" y="637" type="line"/>
			<point x="355" y="654" type="line"/>
			<point x="361" y="700" type="line"/>
			<point x="84" y="700" type="line"/>
			<point x="78" y="654" type="line"/>
			<point x="164" y="637" type="line"/>
			<point x="152" y="353" type="line"/>
			<point x="45" y="287" type="line"/>
			<point x="38" y="217" type="line"/>
			<point x="149" y="285" type="line"/>
			<point x="140" y="59" type="line"/>
			<point x="58" y="46" type="line"/>
		</contour>
	</outline>
</glyph>
<glyph name="Scedilla" format="2">
	<unicode hex="015E"/>
	<advance width="497"/>
	<outline>
		<contour>
			<point x="231" y="-231" type="curve" smooth="yes"/>
			<point x="298" y="-231"/>
			<point x="349" y="-192"/>
			<point x="349" y="-132" type="curve" smooth="yes"/>
			<point x="349" y="-76"/>
			<point x="306" y="-56"/>
			<point x="250" y="-54" type="curve"/>
			<point x="263" y="-13" type="line"/>
			<point x="389" y="-1"/>
			<point x="474" y="82"/>
			<point x="474" y="197" type="curve" smooth="yes"/>
			<point x="474" y="283"/>
			<point x="441" y="320"/>
			<point x="317" y="386" type="curve" smooth="yes"/>
			<point x="192" y="452"/>
			<point x="154" y="488"/>
			<point x="154" y="545" type="curve" smooth="yes"/>
			<point x="154" y="615"/>
			<point x="203" y="653"/>
			<point x="293" y="653" type="curve" smooth="yes"/>
			<point x="360" y="653"/>
			<point x="395" y="621"/>
			<point x="373" y="579" type="curve" smooth="yes"/>
			<point x="354" y="542" type="line"/>
			<point x="368" y="528"/>
			<point x="395" y="518"/>
			<point x="419" y="518" type="curve" smooth="yes"/>
			<point x="455" y="518"/>
			<point x="479" y="544"/>
			<point x="479" y="582" type="curve" smooth="yes"/>
			<point x="479" y="657"/>
			<point x="400" y="715"/>
			<point x="298" y="715" type="curve" smooth="yes"/>
			<point x="166" y="715"/>
			<point x="72" y="633"/>
			<point x="72" y="519" type="curve" smooth="yes"/>
			<point x="72" y="438"/>
			<point x="118" y="386"/>
			<point x="254" y="315" type="curve" smooth="yes"/>
			<point x="362" y="258"/>
			<point x="393" y="228"/>
			<point x="393" y="179" type="curve" smooth="yes"/>
			<point x="393" y="101"/>
			<point x="333" y="49"/>
			<point x="241" y="49" type="curve" smooth="yes"/>
			<point x="168" y="49"/>
			<point x="133" y="81"/>
			<point x="156" y="128" type="curve" smooth="yes"/>
			<point x="172" y="161" type="line"/>
			<point x="156" y="177"/>
			<point x="130" y="187"/>
			<point x="105" y="187" type="curve" smooth="yes"/>
			<point x="68" y="187"/>
			<point x="42" y="157"/>
			<point x="42" y="115" type="curve" smooth="yes"/>
			<point x="42" y="44"/>
			<point x="115" y="-8"/>
			<point x="217" y="-14" type="curve"/>
			<point x="197" y="-78" type="line"/>
			<point x="205" y="-99" type="line"/>
			<point x="234" y="-96"/>
			<point x="273" y="-100"/>
			<point x="273" y="-137" type="curve" smooth="yes"/>
			<point x="273" y="-166"/>
			<point x="252" y="-179"/>
			<point x="221" y="-179" type="curve" smooth="yes"/>
			<point x="201" y="-179"/>
			<point x="175" y="-172"/>
			<point x="164" y="-168" type="curve"/>
			<point x="149" y="-214" type="line"/>
			<point x="170" y="-224"/>
			<point x="203" y="-231"/>
		</contour>
	</outline>
</glyph>
<glyph name="scedilla" format="2">
	<unicode hex="015F"/>
	<advance width="441"/>
	<outline>
		<contour>
			<point x="195" y="-229" type="curve" smooth="yes"/>
			<point x="262" y="-229"/>
			<point x="313" y="-190"/>
			<point x="313" y="-130" type="curve" smooth="yes"/>
			<point x="313" y="-74"/>
			<point x="270" y="-54"/>
			<point x="214" y="-52" type="curve"/>
			<point x="227" y="-13" type="line"/>
			<point x="328" y="-3"/>
			<point x="386" y="61"/>
			<point x="386" y="146" type="curve" smooth="yes"/>
			<point x="386" y="231"/>
			<point x="312" y="269"/>
			<point x="246" y="303" type="curve" smooth="yes"/>
			<point x="195" y="329"/>
			<point x="149" y="353"/>
			<point x="149" y="394" type="curve" smooth="yes"/>
			<point x="149" y="431"/>
			<point x="174" y="468"/>
			<point x="249" y="468" type="curve" smooth="yes"/>
			<point x="296" y="468"/>
			<point x="311" y="449"/>
			<point x="305" y="422" type="curve" smooth="yes"/>
			<point x="299" y="393" type="line"/>
			<point x="308" y="385"/>
			<point x="327" y="376"/>
			<point x="350" y="376" type="curve" smooth="yes"/>
			<point x="378" y="376"/>
			<point x="398" y="394"/>
			<point x="398" y="425" type="curve" smooth="yes"/>
			<point x="398" y="480"/>
			<point x="333" y="521"/>
			<point x="253" y="521" type="curve" smooth="yes"/>
			<point x="117" y="521"/>
			<point x="73" y="432"/>
			<point x="73" y="374" type="curve" smooth="yes"/>
			<point x="73" y="286"/>
			<point x="146" y="252"/>
			<point x="211" y="221" type="curve" smooth="yes"/>
			<point x="264" y="196"/>
			<point x="312" y="172"/>
			<point x="312" y="123" type="curve" smooth="yes"/>
			<point x="312" y="72"/>
			<point x="269" y="44"/>
			<point x="211" y="44" type="curve" smooth="yes"/>
			<point x="157" y="44"/>
			<point x="139" y="59"/>
			<point x="139" y="96" type="curve" smooth="yes"/>
			<point x="139" y="122" type="line"/>
			<point x="129" y="128"/>
			<point x="111" y="133"/>
			<point x="95" y="133" type="curve" smooth="yes"/>
			<point x="66" y="133"/>
			<point x="39" y="116"/>
			<point x="39" y="79" type="curve" smooth="yes"/>
			<point x="39" y="28"/>
			<point x="97" y="-9"/>
			<point x="181" y="-14" type="curve"/>
			<point x="161" y="-76" type="line"/>
			<point x="169" y="-97" type="line"/>
			<point x="198" y="-94"/>
			<point x="237" y="-98"/>
			<point x="237" y="-135" type="curve" smooth="yes"/>
			<point x="237" y="-164"/>
			<point x="216" y="-177"/>
			<point x="185" y="-177" type="curve" smooth="yes"/>
			<point x="165" y="-177"/>
			<point x="139" y="-170"/>
			<point x="128" y="-166" type="curve"/>
			<point x="113" y="-212" type="line"/>
			<point x="134" y="-222"/>
			<point x="167" y="-229"/>
		</contour>
	</outline>
</glyph>
<glyph name="Tcedilla" format="2">
	<unicode hex="0162"/>
	<advance width="621"/>
	<outline>
		<contour>
			<point x="292" y="-229" type="curve" smooth="yes"/>
			<point x="359" y="-229"/>
			<point x="410" y="-190"/>
			<point x="410" y="-130" type="curve" smooth="yes"/>
			<point x="410" y="-74"/>
			<point x="367" y="-54"/>
			<point x="311" y="-52" type="curve"/>
			<point x="328" y="0" type="line"/>
			<point x="456" y="0" type="line"/>
			<point x="462" y="46" type="line"/>
			<point x="353" y="58" type="line"/>
			<point x="375" y="643" type="line"/>
			<point x="464" y="643" type="line" smooth="yes"/>
			<point x="519" y="643"/>
			<point x="537" y="628"/>
			<point x="559" y="562" type="curve" smooth="yes"/>
			<point x="572" y="523" type="line"/>
			<point x="626" y="533" type="line"/>
			<point x="612" y="700" type="line"/>
			<point x="59" y="700" type="line"/>
			<point x="35" y="534" type="line"/>
			<point x="91" y="523" type="line"/>
			<point x="104" y="562" type="line" smooth="yes"/>
			<point x="129" y="637"/>
			<point x="149" y="643"/>
			<point x="202" y="643" type="curve" smooth="yes"/>
			<point x="290" y="643" type="line"/>
			<point x="269" y="59" type="line"/>
			<point x="164" y="46" type="line"/>
			<point x="158" y="0" type="line"/>
			<point x="282" y="0" type="line"/>
			<point x="258" y="-76" type="line"/>
			<point x="266" y="-97" type="line"/>
			<point x="295" y="-94"/>
			<point x="334" y="-98"/>
			<point x="334" y="-135" type="curve" smooth="yes"/>
			<point x="334" y="-164"/>
			<point x="313" y="-177"/>
			<point x="282" y="-177" type="curve" smooth="yes"/>
			<point x="262" y="-177"/>
			<point x="236" y="-170"/>
			<point x="225" y="-166" type="curve"/>
			<point x="210" y="-212" type="line"/>
			<point x="231" y="-222"/>
			<point x="264" y="-229"/>
		</contour>
	</outline>
</glyph>
<glyph name="Schwa" format="2">
	<unicode hex="018F"/>
	<advance width="660"/>
	<outline>
		<contour>
			<point x="285" y="-14" type="curve" smooth="yes"/>
			<point x="484" y="-14"/>
			<point x="619" y="146"/>
			<point x="619" y="381" type="curve" smooth="yes"/>
			<point x="619" y="584"/>
			<point x="513" y="714"/>
			<point x="348" y="714" type="curve" smooth="yes"/>
			<point x="242" y="714"/>
			<point x="151" y="666"/>
			<point x="74" y="570" type="curve"/>
			<point x="112" y="533" type="line"/>
			<point x="190" y="608"/>
			<point x="249" y="636"/>
			<point x="329" y="636" type="curve" smooth="yes"/>
			<point x="459" y="636"/>
			<point x="518" y="551"/>
			<point x="521" y="360" type="curve"/>
			<point x="78" y="360" type="line"/>
			<point x="63" y="315"/>
			<point x="55" y="268"/>
			<point x="55" y="222" type="curve" smooth="yes"/>
			<point x="55" y="75"/>
			<point x="142" y="-14"/>
		</contour>
		<contour>
			<point x="299" y="48" type="curve" smooth="yes"/>
			<point x="196" y="48"/>
			<point x="146" y="101"/>
			<point x="146" y="209" type="curve" smooth="yes"/>
			<point x="146" y="240"/>
			<point x="149" y="265"/>
			<point x="155" y="293" type="curve"/>
			<point x="517" y="293" type="line"/>
			<point x="497" y="142"/>
			<point x="413" y="48"/>
		</contour>
	</outline>
</glyph>
<glyph name="florin" format="2">
	<unicode hex="0192"/>
	<advance width="576"/>
	<outline>
		<contour>
			<point x="77" y="-145" type="curve" smooth="yes"/>
			<point x="33" y="-145"/>
			<point x="18" y="-121"/>
			<point x="34" y="-77" type="curve" smooth="yes"/>
			<point x="44" y="-50" type="line"/>
			<point x="32" y="-34"/>
			<point x="12" y="-24"/>
			<point x="-9" y="-24" type="curve" smooth="yes"/>
			<point x="-44" y="-24"/>
			<point x="-67" y="-48"/>
			<point x="-67" y="-82" type="curve" smooth="yes"/>
			<point x="-67" y="-147"/>
			<point x="-11" y="-193"/>
			<point x="69" y="-193" type="curve" smooth="yes"/>
			<point x="175" y="-193"/>
			<point x="254" y="-95"/>
			<point x="272" y="45" type="curve" smooth="yes"/>
			<point x="314" y="381" type="line"/>
			<point x="462" y="381" type="line"/>
			<point x="468" y="435" type="line"/>
			<point x="320" y="435" type="line"/>
			<point x="332" y="532" type="line" smooth="yes"/>
			<point x="343" y="620"/>
			<point x="381" y="667"/>
			<point x="434" y="667" type="curve" smooth="yes"/>
			<point x="478" y="667"/>
			<point x="493" y="643"/>
			<point x="477" y="599" type="curve" smooth="yes"/>
			<point x="467" y="572" type="line"/>
			<point x="479" y="556"/>
			<point x="499" y="546"/>
			<point x="520" y="546" type="curve" smooth="yes"/>
			<point x="555" y="546"/>
			<point x="578" y="569"/>
			<point x="578" y="604" type="curve" smooth="yes"/>
			<point x="578" y="669"/>
			<point x="522" y="715"/>
			<point x="442" y="715" type="curve" smooth="yes"/>
			<point x="336" y="715"/>
			<point x="259" y="619"/>
			<point x="239" y="478" type="curve" smooth="yes"/>
			<point x="233" y="435" type="line"/>
			<point x="153" y="435" type="line"/>
			<point x="146" y="381" type="line"/>
			<point x="226" y="381" type="line"/>
			<point x="177" y="-10" type="line" smooth="yes"/>
			<point x="166" y="-98"/>
			<point x="130" y="-145"/>
		</contour>
	</outline>
</glyph>
<glyph name="Ohorn" format="2">
	<unicode hex="01A0"/>
	<advance width="800"/>
	<outline>
		<contour>
			<point x="353" y="-14" type="curve" smooth="yes"/>
			<point x="546" y="-14"/>
			<point x="674" y="144"/>
			<point x="674" y="382" type="curve" smooth="yes"/>
			<point x="674" y="415"/>
			<point x="671" y="447"/>
			<point x="665" y="476" type="curve"/>
			<point x="761" y="517"/>
			<point x="815" y="606"/>
			<point x="815" y="685" type="curve" smooth="yes"/>
			<point x="815" y="730"/>
			<point x="788" y="762"/>
			<point x="746" y="762" type="curve" smooth="yes"/>
			<point x="703" y="762"/>
			<point x="680" y="733"/>
			<point x="680" y="698" type="curve" smooth="yes"/>
			<point x="680" y="685"/>
			<point x="683" y="673"/>
			<point x="690" y="663" type="curve"/>
			<point x="722" y="658" type="line" smooth="yes"/>
			<point x="737" y="656"/>
			<point x="743" y="648"/>
			<point x="743" y="633" type="curve" smooth="yes"/>
			<point x="743" y="582"/>
			<point x="694" y="544"/>
			<point x="652" y="524" type="curve"/>
			<point x="612" y="644"/>
			<point x="516" y="715"/>
			<point x="385" y="715" type="curve" smooth="yes"/>
			<point x="185" y="715"/>
			<point x="59" y="565"/>
			<point x="59" y="328" type="curve" smooth="yes"/>
			<point x="59" y="120"/>
			<point x="174" y="-14"/>
		</contour>
		<contour>
			<point x="366" y="51" type="curve" smooth="yes"/>
			<point x="235" y="51"/>
			<point x="154" y="165"/>
			<point x="154" y="349" type="curve" smooth="yes"/>
			<point x="154" y="541"/>
			<point x="234" y="653"/>
			<point x="371" y="653" type="curve" smooth="yes"/>
			<point x="501" y="653"/>
			<point x="576" y="547"/>
			<point x="576" y="364" type="curve" smooth="yes"/>
			<point x="576" y="165"/>
			<point x="500" y="51"/>
		</contour>
	</outline>
</glyph>
<glyph name="ohorn" format="2">
	<unicode hex="01A1"/>
	<advance width="584"/>
	<outline>
		<contour>
			<point x="254" y="-14" type="curve" smooth="yes"/>
			<point x="424" y="-14"/>
			<point x="491" y="122"/>
			<point x="491" y="274" type="curve" smooth="yes"/>
			<point x="491" y="317"/>
			<point x="485" y="355"/>
			<point x="473" y="388" type="curve"/>
			<point x="552" y="433"/>
			<point x="595" y="513"/>
			<point x="595" y="584" type="curve" smooth="yes"/>
			<point x="595" y="629"/>
			<point x="568" y="661"/>
			<point x="526" y="661" type="curve" smooth="yes"/>
			<point x="483" y="661"/>
			<point x="460" y="632"/>
			<point x="460" y="597" type="curve" smooth="yes"/>
			<point x="460" y="584"/>
			<point x="463" y="572"/>
			<point x="470" y="562" type="curve"/>
			<point x="502" y="557" type="line" smooth="yes"/>
			<point x="517" y="555"/>
			<point x="523" y="547"/>
			<point x="523" y="532" type="curve" smooth="yes"/>
			<point x="523" y="488"/>
			<point x="487" y="455"/>
			<point x="451" y="433" type="curve"/>
			<point x="416" y="489"/>
			<point x="359" y="521"/>
			<point x="283" y="521" type="curve" smooth="yes"/>
			<point x="112" y="521"/>
			<point x="48" y="385"/>
			<point x="48" y="235" type="curve" smooth="yes"/>
			<point x="48" y="84"/>
			<point x="122" y="-14"/>
		</contour>
		<contour>
			<point x="260" y="45" type="curve" smooth="yes"/>
			<point x="179" y="45"/>
			<point x="143" y="120"/>
			<point x="143" y="231" type="curve" smooth="yes"/>
			<point x="143" y="352"/>
			<point x="168" y="463"/>
			<point x="275" y="463" type="curve" smooth="yes"/>
			<point x="366" y="463"/>
			<point x="397" y="384"/>
			<point x="397" y="275" type="curve" smooth="yes"/>
			<point x="397" y="154"/>
			<point x="367" y="45"/>
		</contour>
	</outline>
</glyph>
<glyph name="uhorn" format="2">
	<unicode hex="01B0"/>
	<advance width="655"/>
	<outline>
		<contour>
			<point x="195" y="-14" type="curve" smooth="yes"/>
			<point x="279" y="-14"/>
			<point x="318" y="43"/>
			<point x="348" y="140" type="curve" smooth="yes"/>
			<point x="416" y="359" type="line"/>
			<point x="424" y="358" type="line"/>
			<point x="399" y="88" type="line" smooth="yes"/>
			<point x="393" y="27"/>
			<point x="409" y="-14"/>
			<point x="469" y="-14" type="curve" smooth="yes"/>
			<point x="500" y="-14"/>
			<point x="554" y="1"/>
			<point x="584" y="19" type="curve"/>
			<point x="567" y="69" type="line"/>
			<point x="545" y="59"/>
			<point x="524" y="51"/>
			<point x="508" y="51" type="curve" smooth="yes"/>
			<point x="487" y="51"/>
			<point x="480" y="62"/>
			<point x="481" y="91" type="curve" smooth="yes"/>
			<point x="492" y="366" type="line"/>
			<point x="603" y="400"/>
			<point x="666" y="499"/>
			<point x="666" y="584" type="curve" smooth="yes"/>
			<point x="666" y="629"/>
			<point x="639" y="661"/>
			<point x="597" y="661" type="curve" smooth="yes"/>
			<point x="554" y="661"/>
			<point x="531" y="632"/>
			<point x="531" y="597" type="curve" smooth="yes"/>
			<point x="531" y="584"/>
			<point x="534" y="572"/>
			<point x="541" y="562" type="curve"/>
			<point x="573" y="557" type="line" smooth="yes"/>
			<point x="588" y="555"/>
			<point x="594" y="547"/>
			<point x="594" y="532" type="curve" smooth="yes"/>
			<point x="594" y="477"/>
			<point x="536" y="437"/>
			<point x="494" y="419" type="curve"/>
			<point x="497" y="508" type="line"/>
			<point x="415" y="508" type="line"/>
			<point x="302" y="180" type="line" smooth="yes"/>
			<point x="268" y="82"/>
			<point x="253" y="60"/>
			<point x="216" y="60" type="curve" smooth="yes"/>
			<point x="183" y="60"/>
			<point x="175" y="84"/>
			<point x="181" y="156" type="curve" smooth="yes"/>
			<point x="206" y="438" type="line" smooth="yes"/>
			<point x="211" y="493"/>
			<point x="185" y="521"/>
			<point x="133" y="521" type="curve" smooth="yes"/>
			<point x="99" y="521"/>
			<point x="45" y="498"/>
			<point x="16" y="472" type="curve"/>
			<point x="39" y="436" type="line"/>
			<point x="56" y="451"/>
			<point x="79" y="460"/>
			<point x="95" y="460" type="curve" smooth="yes"/>
			<point x="115" y="460"/>
			<point x="121" y="452"/>
			<point x="118" y="417" type="curve" smooth="yes"/>
			<point x="96" y="162" type="line" smooth="yes"/>
			<point x="85" y="35"/>
			<point x="113" y="-14"/>
		</contour>
	</outline>
</glyph>
<glyph name="Aringacute" format="2">
	<unicode hex="01FA"/>
	<advance width="691"/>
	<outline>
		<contour>
			<point x="12" y="0" type="line"/>
			<point x="246" y="0" type="line"/>
			<point x="252" y="46" type="line"/>
			<point x="161" y="58" type="line"/>
			<point x="221" y="231" type="line"/>
			<point x="461" y="231" type="line"/>
			<point x="507" y="58" type="line"/>
			<point x="426" y="46" type="line"/>
			<point x="420" y="0" type="line"/>
			<point x="686" y="0" type="line"/>
			<point x="692" y="46" type="line"/>
			<point x="607" y="57" type="line"/>
			<point x="435" y="672" type="line"/>
			<point x="465" y="690"/>
			<point x="483" y="724"/>
			<point x="483" y="764" type="curve" smooth="yes"/>
			<point x="483" y="824"/>
			<point x="450" y="861"/>
			<point x="384" y="861" type="curve" smooth="yes"/>
			<point x="313" y="861"/>
			<point x="273" y="812"/>
			<point x="273" y="756" type="curve" smooth="yes"/>
			<point x="273" y="715"/>
			<point x="286" y="684"/>
			<point x="316" y="668" type="curve"/>
			<point x="97" y="58" type="line"/>
			<point x="18" y="46" type="line"/>
		</contour>
		<contour>
			<point x="241" y="288" type="line"/>
			<point x="356" y="619" type="line"/>
			<point x="359" y="619" type="line"/>
			<point x="446" y="288" type="line"/>
		</contour>
		<contour>
			<point x="378" y="703" type="curve" smooth="yes"/>
			<point x="343" y="703"/>
			<point x="332" y="728"/>
			<point x="332" y="757" type="curve" smooth="yes"/>
			<point x="332" y="786"/>
			<point x="347" y="815"/>
			<point x="380" y="815" type="curve" smooth="yes"/>
			<point x="412" y="815"/>
			<point x="425" y="791"/>
			<point x="425" y="761" type="curve" smooth="yes"/>
			<point x="425" y="730"/>
			<point x="412" y="703"/>
		</contour>
		<contour>
			<point x="319" y="887" type="line"/>
			<point x="503" y="974" type="line"/>
			<point x="508" y="988"/>
			<point x="511" y="1000"/>
			<point x="511" y="1011" type="curve" smooth="yes"/>
			<point x="511" y="1036"/>
			<point x="495" y="1056"/>
			<point x="471" y="1056" type="curve" smooth="yes"/>
			<point x="457" y="1056"/>
			<point x="446" y="1048"/>
			<point x="430" y="1034" type="curve" smooth="yes"/>
			<point x="300" y="914" type="line"/>
		</contour>
	</outline>
</glyph>
<glyph name="jdotless" format="2">
	<unicode hex="0237"/>
	<advance width="296"/>
	<outline>
		<contour>
			<point x="199" y="122" type="curve" smooth="yes"/>
			<point x="210" y="408" type="line"/>
			<point x="215" y="486"/>
			<point x="191" y="521"/>
			<point x="137" y="521" type="curve" smooth="yes"/>
			<point x="93" y="521"/>
			<point x="46" y="501"/>
			<point x="21" y="486" type="curve"/>
			<point x="37" y="441" type="line"/>
			<point x="61" y="452"/>
			<point x="82" y="457"/>
			<point x="100" y="457" type="curve" smooth="yes"/>
			<point x="120" y="457"/>
			<point x="126" y="447"/>
			<point x="125" y="416" type="curve" smooth="yes"/>
			<point x="109" y="23" type="line" smooth="yes"/>
			<point x="107" y="-26"/>
			<point x="106" y="-49"/>
			<point x="102" y="-82" type="curve" smooth="yes"/>
			<point x="96" y="-133"/>
			<point x="65" y="-145"/>
			<point x="31" y="-131" type="curve" smooth="yes"/>
			<point x="-10" y="-114" type="line"/>
			<point x="-27" y="-138"/>
			<point x="-34" y="-160"/>
			<point x="-34" y="-179" type="curve" smooth="yes"/>
			<point x="-34" y="-205"/>
			<point x="-9" y="-229"/>
			<point x="33" y="-229" type="curve" smooth="yes"/>
			<point x="62" y="-229"/>
			<point x="90" y="-213"/>
			<point x="114" y="-184" type="curve" smooth="yes"/>
			<point x="164" y="-124"/>
			<point x="195" y="14"/>
		</contour>
	</outline>
	<anchor name="top" x="126" y="550"/>
</glyph>
<glyph name="schwa" format="2">
	<unicode hex="0259"/>
	<advance width="471"/>
	<outline>
		<contour>
			<point x="184" y="-14" type="curve" smooth="yes"/>
			<point x="326" y="-14"/>
			<point x="424" y="107"/>
			<point x="424" y="282" type="curve" smooth="yes"/>
			<point x="424" y="428"/>
			<point x="347" y="521"/>
			<point x="226" y="521" type="curve" smooth="yes"/>
			<point x="160" y="521"/>
			<point x="87" y="484"/>
			<point x="42" y="427" type="curve"/>
			<point x="76" y="390" type="line"/>
			<point x="125" y="437"/>
			<point x="166" y="455"/>
			<point x="206" y="455" type="curve" smooth="yes"/>
			<point x="276" y="455"/>
			<point x="325" y="395"/>
			<point x="333" y="308" type="curve"/>
			<point x="222" y="281" type="line" smooth="yes"/>
			<point x="93" y="250"/>
			<point x="39" y="196"/>
			<point x="39" y="113" type="curve" smooth="yes"/>
			<point x="39" y="31"/>
			<point x="90" y="-14"/>
		</contour>
		<contour>
			<point x="191" y="42" type="curve" smooth="yes"/>
			<point x="151" y="42"/>
			<point x="128" y="69"/>
			<point x="128" y="116" type="curve" smooth="yes"/>
			<point x="128" y="176"/>
			<point x="156" y="205"/>
			<point x="232" y="225" type="curve" smooth="yes"/>
			<point x="333" y="251" type="line"/>
			<point x="326" y="119"/>
			<point x="274" y="42"/>
		</contour>
	</outline>
</glyph>
<glyph name="ringhalfright" format="2">
	<unicode hex="02BE"/>
	<advance width="499"/>
	<outline>
		<contour>
			<point x="222" y="781" type="curve" smooth="yes"/>
			<point x="219" y="781" type="line"/>
			<point x="218" y="735" type="line"/>
			<point x="220" y="735" type="line" smooth="yes"/>
			<point x="257" y="735"/>
			<point x="268" y="709"/>
			<point x="268" y="686" type="curve" smooth="yes"/>
			<point x="268" y="654"/>
			<point x="253" y="627"/>
			<point x="218" y="627" type="curve" smooth="yes"/>
			<point x="214" y="627" type="line"/>
			<point x="212" y="582" type="line"/>
			<point x="214" y="582" type="line"/>
			<point x="286" y="582"/>
			<point x="324" y="627"/>
			<point x="324" y="686" type="curve" smooth="yes"/>
			<point x="324" y="741"/>
			<point x="295" y="781"/>
		</contour>
	</outline>
	<anchor name="_top" x="249" y="550"/>
</glyph>
<glyph name="caron" format="2">
	<unicode hex="02C7"/>
	<advance width="500"/>
	<outline>
		<contour>
			<point x="124" y="752" type="line"/>
			<point x="243" y="584" type="line"/>
			<point x="252" y="581"/>
			<point x="259" y="580"/>
			<point x="271" y="580" type="curve" smooth="yes"/>
			<point x="286" y="580"/>
			<point x="299" y="588"/>
			<point x="316" y="611" type="curve" smooth="yes"/>
			<point x="424" y="752" type="line"/>
			<point x="402" y="775" type="line"/>
			<point x="275" y="674" type="line"/>
			<point x="149" y="777" type="line"/>
		</contour>
	</outline>
	<anchor name="_top" x="269" y="550"/>
</glyph>
<glyph name="verticallinemod" format="2">
	<unicode hex="02C8"/>
	<advance width="499"/>
	<outline>
		<contour>
			<point x="246" y="785" type="line"/>
			<point x="237" y="578" type="line"/>
			<point x="299" y="578" type="line"/>
			<point x="308" y="785" type="line"/>
		</contour>
	</outline>
	<anchor name="_top" x="269" y="550"/>
</glyph>
<glyph name="breve" format="2">
	<unicode hex="02D8"/>
	<advance width="500"/>
	<outline>
		<contour>
			<point x="271" y="587" type="curve" smooth="yes"/>
			<point x="368" y="587"/>
			<point x="421" y="678"/>
			<point x="431" y="757" type="curve"/>
			<point x="393" y="767" type="line"/>
			<point x="375" y="710"/>
			<point x="336" y="667"/>
			<point x="276" y="667" type="curve" smooth="yes"/>
			<point x="217" y="667"/>
			<point x="191" y="702"/>
			<point x="172" y="768" type="curve"/>
			<point x="132" y="756" type="line"/>
			<point x="141" y="670"/>
			<point x="176" y="587"/>
		</contour>
	</outline>
	<anchor name="_top" x="269" y="550"/>
</glyph>
<glyph name="dotaccent" format="2">
	<unicode hex="02D9"/>
	<advance width="500"/>
	<outline>
		<contour>
			<point x="210" y="686" type="curve" smooth="yes"/>
			<point x="210" y="647"/>
			<point x="236" y="620"/>
			<point x="275" y="620" type="curve" smooth="yes"/>
			<point x="313" y="620"/>
			<point x="339" y="648"/>
			<point x="339" y="687" type="curve" smooth="yes"/>
			<point x="339" y="726"/>
			<point x="313" y="753"/>
			<point x="275" y="753" type="curve" smooth="yes"/>
			<point x="236" y="753"/>
			<point x="210" y="725"/>
		</contour>
	</outline>
	<anchor name="_top" x="269" y="550"/>
</glyph>
<glyph name="hungarumlaut" format="2">
	<unicode hex="02DD"/>
	<advance width="502"/>
	<outline>
		<contour>
			<point x="410" y="739" type="curve" smooth="yes"/>
			<point x="318" y="605" type="line"/>
			<point x="340" y="582" type="line"/>
			<point x="488" y="698" type="line"/>
			<point x="495" y="744"/>
			<point x="479" y="768"/>
			<point x="452" y="768" type="curve" smooth="yes"/>
			<point x="435" y="768"/>
			<point x="425" y="761"/>
		</contour>
		<contour>
			<point x="257" y="742" type="curve" smooth="yes"/>
			<point x="171" y="605" type="line"/>
			<point x="193" y="582" type="line"/>
			<point x="335" y="701" type="line"/>
			<point x="342" y="747"/>
			<point x="328" y="771"/>
			<point x="299" y="771" type="curve" smooth="yes"/>
			<point x="282" y="771"/>
			<point x="271" y="764"/>
		</contour>
	</outline>
	<anchor name="_top" x="269" y="550"/>
</glyph>
<glyph name="hookabovecomb" format="2">
	<unicode hex="0309"/>
	<outline>
		<contour>
			<point x="22" y="765" type="curve" smooth="yes"/>
			<point x="53" y="765"/>
			<point x="68" y="753"/>
			<point x="68" y="732" type="curve" smooth="yes"/>
			<point x="68" y="685"/>
			<point x="-9" y="676"/>
			<point x="-11" y="627" type="curve" smooth="yes"/>
			<point x="-13" y="575" type="line"/>
			<point x="52" y="575" type="line"/>
			<point x="53" y="603" type="line" smooth="yes"/>
			<point x="54" y="636"/>
			<point x="145" y="661"/>
			<point x="145" y="729" type="curve" smooth="yes"/>
			<point x="145" y="782"/>
			<point x="93" y="808"/>
			<point x="29" y="808" type="curve" smooth="yes"/>
			<point x="-42" y="808"/>
			<point x="-93" y="774"/>
			<point x="-93" y="727" type="curve" smooth="yes"/>
			<point x="-93" y="712"/>
			<point x="-82" y="689"/>
			<point x="-52" y="689" type="curve" smooth="yes"/>
			<point x="-27" y="689"/>
			<point x="-10" y="707"/>
			<point x="-12" y="728" type="curve"/>
			<point x="-24" y="739" type="line" smooth="yes"/>
			<point x="-26" y="741"/>
			<point x="-27" y="743"/>
			<point x="-27" y="745" type="curve" smooth="yes"/>
			<point x="-27" y="756"/>
			<point x="-12" y="765"/>
		</contour>
	</outline>
	<anchor name="_top" x="18" y="550"/>
</glyph>
<glyph name="commaturnedabovecomb" format="2">
	<unicode hex="0312"/>
	<outline>
		<contour>
			<point x="47" y="790" type="line"/>
			<point x="-19" y="746"/>
			<point x="-53" y="687"/>
			<point x="-53" y="644" type="curve" smooth="yes"/>
			<point x="-53" y="610"/>
			<point x="-29" y="578"/>
			<point x="10" y="578" type="curve" smooth="yes"/>
			<point x="59" y="578"/>
			<point x="79" y="627"/>
			<point x="66" y="660" type="curve"/>
			<point x="38" y="670" type="line" smooth="yes"/>
			<point x="26" y="674"/>
			<point x="23" y="680"/>
			<point x="23" y="689" type="curve" smooth="yes"/>
			<point x="23" y="714"/>
			<point x="48" y="742"/>
			<point x="71" y="760" type="curve"/>
		</contour>
	</outline>
	<anchor name="_top" x="9" y="550"/>
</glyph>
<glyph name="horncomb" format="2">
	<unicode hex="031B"/>
	<outline>
		<contour>
			<point x="-92" y="417" type="curve"/>
			<point x="-94" y="365" type="line"/>
			<point x="20" y="398"/>
			<point x="84" y="498"/>
			<point x="84" y="584" type="curve" smooth="yes"/>
			<point x="84" y="629"/>
			<point x="57" y="661"/>
			<point x="15" y="661" type="curve" smooth="yes"/>
			<point x="-28" y="661"/>
			<point x="-51" y="632"/>
			<point x="-51" y="597" type="curve" smooth="yes"/>
			<point x="-51" y="584"/>
			<point x="-48" y="572"/>
			<point x="-41" y="562" type="curve"/>
			<point x="-9" y="557" type="line" smooth="yes"/>
			<point x="6" y="555"/>
			<point x="12" y="547"/>
			<point x="12" y="532" type="curve" smooth="yes"/>
			<point x="12" y="475"/>
			<point x="-49" y="435"/>
		</contour>
	</outline>
</glyph>
<glyph name="commaaccentcomb" format="2">
	<unicode hex="0326"/>
	<outline>
		<contour>
			<point x="-49" y="-268" type="line"/>
			<point x="17" y="-224"/>
			<point x="51" y="-165"/>
			<point x="51" y="-122" type="curve" smooth="yes"/>
			<point x="51" y="-88"/>
			<point x="27" y="-56"/>
			<point x="-12" y="-56" type="curve" smooth="yes"/>
			<point x="-61" y="-56"/>
			<point x="-81" y="-105"/>
			<point x="-68" y="-138" type="curve"/>
			<point x="-40" y="-148" type="line" smooth="yes"/>
			<point x="-28" y="-152"/>
			<point x="-25" y="-158"/>
			<point x="-25" y="-167" type="curve" smooth="yes"/>
			<point x="-25" y="-192"/>
			<point x="-50" y="-220"/>
			<point x="-73" y="-238" type="curve"/>
		</contour>
	</outline>
	<anchor name="_bottom" x="-10" y="-30"/>
</glyph>
<glyph name="numeral-greek" format="2">
	<unicode hex="0374"/>
	<advance width="355"/>
	<outline>
		<contour>
			<point x="106" y="523" type="line"/>
			<point x="255" y="699" type="line"/>
			<point x="257" y="713" type="line"/>
			<point x="243" y="748"/>
			<point x="225" y="762"/>
			<point x="196" y="762" type="curve" smooth="yes"/>
			<point x="172" y="762"/>
			<point x="158" y="750"/>
			<point x="145" y="717" type="curve" smooth="yes"/>
			<point x="72" y="541" type="line"/>
		</contour>
	</outline>
</glyph>
<glyph name="tonos" format="2">
	<unicode hex="0384"/>
	<advance width="498"/>
	<outline>
		<contour>
			<point x="228" y="576" type="line"/>
			<point x="381" y="735" type="line"/>
			<point x="381" y="749" type="line"/>
			<point x="367" y="785"/>
			<point x="350" y="800"/>
			<point x="321" y="800" type="curve" smooth="yes"/>
			<point x="297" y="800"/>
			<point x="284" y="789"/>
			<point x="270" y="757" type="curve" smooth="yes"/>
			<point x="194" y="594" type="line"/>
		</contour>
	</outline>
	<anchor name="_top" x="226" y="550"/>
</glyph>
<glyph name="Delta" format="2">
	<unicode hex="0394"/>
	<advance width="571"/>
	<outline>
		<contour>
			<point x="28" y="0" type="line"/>
			<point x="556" y="0" type="line"/>
			<point x="562" y="46" type="line"/>
			<point x="367" y="706" type="line"/>
			<point x="268" y="695" type="line"/>
			<point x="24" y="46" type="line"/>
		</contour>
		<contour>
			<point x="100" y="77" type="line"/>
			<point x="298" y="619" type="line"/>
			<point x="301" y="619" type="line"/>
			<point x="454" y="77" type="line"/>
		</contour>
	</outline>
</glyph>
<glyph name="Xi" format="2">
	<unicode hex="039E"/>
	<advance width="597"/>
	<outline>
		<contour>
			<point x="27" y="0" type="line"/>
			<point x="535" y="0" type="line"/>
			<point x="559" y="184" type="line"/>
			<point x="504" y="184" type="line"/>
			<point x="490" y="143" type="line" smooth="yes"/>
			<point x="477" y="103"/>
			<point x="447" y="87"/>
			<point x="387" y="87" type="curve" smooth="yes"/>
			<point x="181" y="87" type="line" smooth="yes"/>
			<point x="126" y="87"/>
			<point x="102" y="103"/>
			<point x="95" y="143" type="curve" smooth="yes"/>
			<point x="88" y="184" type="line"/>
			<point x="34" y="184" type="line"/>
		</contour>
		<contour>
			<point x="116" y="318" type="line"/>
			<point x="487" y="318" type="line"/>
			<point x="490" y="391" type="line"/>
			<point x="119" y="391" type="line"/>
		</contour>
		<contour>
			<point x="118" y="523" type="line"/>
			<point x="136" y="559" type="line" smooth="yes"/>
			<point x="156" y="599"/>
			<point x="186" y="613"/>
			<point x="246" y="613" type="curve" smooth="yes"/>
			<point x="403" y="613" type="line" smooth="yes"/>
			<point x="461" y="613"/>
			<point x="487" y="598"/>
			<point x="499" y="559" type="curve" smooth="yes"/>
			<point x="510" y="523" type="line"/>
			<point x="565" y="532" type="line"/>
			<point x="551" y="700" type="line"/>
			<point x="107" y="700" type="line"/>
			<point x="67" y="532" type="line"/>
		</contour>
	</outline>
</glyph>
<glyph name="Sigma" format="2">
	<unicode hex="03A3"/>
	<advance width="615"/>
	<outline>
		<contour>
			<point x="59" y="0" type="line"/>
			<point x="550" y="0" type="line"/>
			<point x="577" y="204" type="line"/>
			<point x="522" y="204" type="line"/>
			<point x="514" y="176" type="line" smooth="yes"/>
			<point x="490" y="92"/>
			<point x="466" y="68"/>
			<point x="404" y="68" type="curve" smooth="yes"/>
			<point x="125" y="68" type="line"/>
			<point x="142" y="43" type="line"/>
			<point x="362" y="359" type="line"/>
			<point x="362" y="369" type="line"/>
			<point x="201" y="643" type="line"/>
			<point x="409" y="643" type="line" smooth="yes"/>
			<point x="464" y="643"/>
			<point x="482" y="628"/>
			<point x="504" y="562" type="curve" smooth="yes"/>
			<point x="517" y="523" type="line"/>
			<point x="571" y="533" type="line"/>
			<point x="557" y="700" type="line"/>
			<point x="99" y="700" type="line"/>
			<point x="91" y="650" type="line"/>
			<point x="269" y="347" type="line"/>
			<point x="61" y="48" type="line"/>
		</contour>
	</outline>
</glyph>
<glyph name="Phi" format="2">
	<unicode hex="03A6"/>
	<advance width="787"/>
	<outline>
		<contour>
			<point x="258" y="-20" type="line"/>
			<point x="523" y="-20" type="line"/>
			<point x="529" y="26" type="line"/>
			<point x="434" y="39" type="line"/>
			<point x="436" y="80" type="line"/>
			<point x="632" y="93"/>
			<point x="746" y="201"/>
			<point x="746" y="375" type="curve" smooth="yes"/>
			<point x="746" y="525"/>
			<point x="641" y="617"/>
			<point x="457" y="630" type="curve"/>
			<point x="459" y="667" type="line"/>
			<point x="544" y="684" type="line"/>
			<point x="549" y="730" type="line"/>
			<point x="294" y="730" type="line"/>
			<point x="288" y="684" type="line"/>
			<point x="374" y="667" type="line"/>
			<point x="372" y="630" type="line"/>
			<point x="174" y="618"/>
			<point x="59" y="512"/>
			<point x="59" y="342" type="curve" smooth="yes"/>
			<point x="59" y="187"/>
			<point x="163" y="93"/>
			<point x="348" y="81" type="curve"/>
			<point x="346" y="39" type="line"/>
			<point x="264" y="26" type="line"/>
		</contour>
		<contour>
			<point x="351" y="137" type="line"/>
			<point x="223" y="151"/>
			<point x="155" y="226"/>
			<point x="155" y="355" type="curve" smooth="yes"/>
			<point x="155" y="501"/>
			<point x="226" y="574"/>
			<point x="370" y="577" type="curve"/>
		</contour>
		<contour>
			<point x="437" y="133" type="curve"/>
			<point x="455" y="573" type="line"/>
			<point x="584" y="559"/>
			<point x="650" y="489"/>
			<point x="650" y="365" type="curve" smooth="yes"/>
			<point x="650" y="213"/>
			<point x="580" y="137"/>
		</contour>
	</outline>
</glyph>
<glyph name="Psi" format="2">
	<unicode hex="03A8"/>
	<advance width="872"/>
	<outline>
		<contour>
			<point x="296" y="0" type="line"/>
			<point x="561" y="0" type="line"/>
			<point x="567" y="46" type="line"/>
			<point x="472" y="59" type="line"/>
			<point x="477" y="191" type="line"/>
			<point x="638" y="191"/>
			<point x="744" y="272"/>
			<point x="748" y="398" type="curve" smooth="yes"/>
			<point x="756" y="639" type="line"/>
			<point x="831" y="654" type="line"/>
			<point x="837" y="700" type="line"/>
			<point x="673" y="700" type="line"/>
			<point x="662" y="406" type="line" smooth="yes"/>
			<point x="658" y="311"/>
			<point x="599" y="264"/>
			<point x="480" y="263" type="curve"/>
			<point x="494" y="637" type="line"/>
			<point x="579" y="654" type="line"/>
			<point x="585" y="700" type="line"/>
			<point x="329" y="700" type="line"/>
			<point x="323" y="654" type="line"/>
			<point x="409" y="637" type="line"/>
			<point x="393" y="263" type="line"/>
			<point x="269" y="263"/>
			<point x="214" y="309"/>
			<point x="218" y="411" type="curve" smooth="yes"/>
			<point x="229" y="700" type="line"/>
			<point x="71" y="700" type="line"/>
			<point x="65" y="654" type="line"/>
			<point x="141" y="639" type="line"/>
			<point x="132" y="403" type="line" smooth="yes"/>
			<point x="127" y="273"/>
			<point x="221" y="195"/>
			<point x="390" y="191" type="curve"/>
			<point x="384" y="59" type="line"/>
			<point x="302" y="46" type="line"/>
		</contour>
	</outline>
</glyph>
<glyph name="gamma" format="2">
	<unicode hex="03B3"/>
	<advance width="525"/>
	<outline>
		<contour>
			<point x="177" y="-186" type="curve" smooth="yes"/>
			<point x="189" y="-186"/>
			<point x="205" y="-183"/>
			<point x="228" y="-178" type="curve"/>
			<point x="233" y="-160"/>
			<point x="235" y="-136"/>
			<point x="235" y="-103" type="curve" smooth="yes"/>
			<point x="235" y="-83"/>
			<point x="233" y="-30"/>
			<point x="231" y="-1" type="curve"/>
			<point x="369" y="119"/>
			<point x="472" y="296"/>
			<point x="472" y="412" type="curve" smooth="yes"/>
			<point x="472" y="480"/>
			<point x="439" y="521"/>
			<point x="385" y="521" type="curve" smooth="yes"/>
			<point x="341" y="521"/>
			<point x="315" y="486"/>
			<point x="324" y="436" type="curve"/>
			<point x="355" y="425" type="line" smooth="yes"/>
			<point x="382" y="415"/>
			<point x="394" y="401"/>
			<point x="394" y="378" type="curve" smooth="yes"/>
			<point x="394" y="297"/>
			<point x="304" y="119"/>
			<point x="230" y="54" type="curve"/>
			<point x="230" y="133"/>
			<point x="227" y="224"/>
			<point x="223" y="296" type="curve" smooth="yes"/>
			<point x="212" y="477"/>
			<point x="190" y="521"/>
			<point x="113" y="521" type="curve" smooth="yes"/>
			<point x="78" y="521"/>
			<point x="33" y="501"/>
			<point x="0" y="472" type="curve"/>
			<point x="23" y="436" type="line"/>
			<point x="48" y="454"/>
			<point x="63" y="460"/>
			<point x="79" y="460" type="curve" smooth="yes"/>
			<point x="113" y="460"/>
			<point x="124" y="427"/>
			<point x="138" y="283" type="curve" smooth="yes"/>
			<point x="153" y="118"/>
			<point x="155" y="97"/>
			<point x="160" y="-5" type="curve"/>
			<point x="144" y="-29"/>
			<point x="134" y="-67"/>
			<point x="134" y="-104" type="curve" smooth="yes"/>
			<point x="134" y="-158"/>
			<point x="149" y="-186"/>
		</contour>
	</outline>
</glyph>
<glyph name="delta" format="2">
	<unicode hex="03B4"/>
	<advance width="523"/>
	<outline>
		<contour>
			<point x="242" y="-14" type="curve" smooth="yes"/>
			<point x="376" y="-14"/>
			<point x="469" y="87"/>
			<point x="469" y="234" type="curve" smooth="yes"/>
			<point x="469" y="339"/>
			<point x="432" y="406"/>
			<point x="318" y="504" type="curve" smooth="yes"/>
			<point x="225" y="584"/>
			<point x="209" y="604"/>
			<point x="209" y="646" type="curve" smooth="yes"/>
			<point x="209" y="701"/>
			<point x="247" y="734"/>
			<point x="309" y="734" type="curve" smooth="yes"/>
			<point x="364" y="734"/>
			<point x="396" y="712"/>
			<point x="396" y="675" type="curve" smooth="yes"/>
			<point x="396" y="663"/>
			<point x="391" y="644"/>
			<point x="380" y="617" type="curve"/>
			<point x="393" y="600"/>
			<point x="412" y="591"/>
			<point x="433" y="591" type="curve" smooth="yes"/>
			<point x="469" y="591"/>
			<point x="494" y="617"/>
			<point x="494" y="655" type="curve" smooth="yes"/>
			<point x="494" y="732"/>
			<point x="424" y="782"/>
			<point x="316" y="782" type="curve" smooth="yes"/>
			<point x="207" y="782"/>
			<point x="134" y="722"/>
			<point x="134" y="633" type="curve" smooth="yes"/>
			<point x="134" y="578"/>
			<point x="156" y="544"/>
			<point x="241" y="466" type="curve"/>
			<point x="107" y="420"/>
			<point x="36" y="325"/>
			<point x="36" y="192" type="curve" smooth="yes"/>
			<point x="36" y="67"/>
			<point x="117" y="-14"/>
		</contour>
		<contour>
			<point x="244" y="45" type="curve" smooth="yes"/>
			<point x="168" y="45"/>
			<point x="123" y="105"/>
			<point x="123" y="204" type="curve" smooth="yes"/>
			<point x="123" y="307"/>
			<point x="184" y="402"/>
			<point x="273" y="438" type="curve"/>
			<point x="351" y="372"/>
			<point x="382" y="312"/>
			<point x="382" y="229" type="curve" smooth="yes"/>
			<point x="382" y="115"/>
			<point x="329" y="45"/>
		</contour>
	</outline>
</glyph>
<glyph name="epsilon" format="2">
	<unicode hex="03B5"/>
	<advance width="532"/>
	<outline>
		<contour>
			<point x="258" y="-14" type="curve" smooth="yes"/>
			<point x="343" y="-14"/>
			<point x="418" y="25"/>
			<point x="466" y="93" type="curve"/>
			<point x="431" y="129" type="line"/>
			<point x="376" y="74"/>
			<point x="327" y="52"/>
			<point x="259" y="52" type="curve" smooth="yes"/>
			<point x="191" y="52"/>
			<point x="144" y="87"/>
			<point x="144" y="139" type="curve" smooth="yes"/>
			<point x="144" y="186"/>
			<point x="175" y="227"/>
			<point x="223" y="242" type="curve"/>
			<point x="244" y="221"/>
			<point x="270" y="209"/>
			<point x="294" y="209" type="curve" smooth="yes"/>
			<point x="328" y="209"/>
			<point x="354" y="234"/>
			<point x="354" y="266" type="curve" smooth="yes"/>
			<point x="354" y="295"/>
			<point x="330" y="314"/>
			<point x="294" y="314" type="curve" smooth="yes"/>
			<point x="271" y="314"/>
			<point x="243" y="300"/>
			<point x="224" y="280" type="curve"/>
			<point x="187" y="291"/>
			<point x="164" y="323"/>
			<point x="164" y="366" type="curve" smooth="yes"/>
			<point x="164" y="431"/>
			<point x="216" y="472"/>
			<point x="296" y="472" type="curve" smooth="yes"/>
			<point x="359" y="472"/>
			<point x="400" y="455"/>
			<point x="400" y="428" type="curve" smooth="yes"/>
			<point x="400" y="415"/>
			<point x="392" y="403"/>
			<point x="363" y="372" type="curve"/>
			<point x="375" y="345"/>
			<point x="398" y="330"/>
			<point x="426" y="330" type="curve" smooth="yes"/>
			<point x="462" y="330"/>
			<point x="486" y="356"/>
			<point x="486" y="395" type="curve" smooth="yes"/>
			<point x="486" y="472"/>
			<point x="409" y="521"/>
			<point x="288" y="521" type="curve" smooth="yes"/>
			<point x="163" y="521"/>
			<point x="74" y="459"/>
			<point x="74" y="372" type="curve" smooth="yes"/>
			<point x="74" y="315"/>
			<point x="101" y="281"/>
			<point x="165" y="259" type="curve"/>
			<point x="165" y="257" type="line"/>
			<point x="92" y="237"/>
			<point x="49" y="189"/>
			<point x="49" y="128" type="curve" smooth="yes"/>
			<point x="49" y="38"/>
			<point x="126" y="-14"/>
		</contour>
	</outline>
	<anchor name="top" x="290" y="550"/>
</glyph>
<glyph name="zeta" format="2">
	<unicode hex="03B6"/>
	<advance width="445"/>
	<outline>
		<contour>
			<point x="296" y="-234" type="line"/>
			<point x="348" y="-181"/>
			<point x="377" y="-123"/>
			<point x="377" y="-74" type="curve" smooth="yes"/>
			<point x="377" y="-10"/>
			<point x="344" y="24"/>
			<point x="238" y="70" type="curve" smooth="yes"/>
			<point x="163" y="103"/>
			<point x="141" y="135"/>
			<point x="141" y="212" type="curve" smooth="yes"/>
			<point x="141" y="331"/>
			<point x="223" y="511"/>
			<point x="321" y="608" type="curve"/>
			<point x="398" y="600"/>
			<point x="454" y="636"/>
			<point x="454" y="693" type="curve" smooth="yes"/>
			<point x="454" y="720"/>
			<point x="433" y="745"/>
			<point x="408" y="749" type="curve"/>
			<point x="381" y="739"/>
			<point x="330" y="697"/>
			<point x="282" y="645" type="curve"/>
			<point x="221" y="648"/>
			<point x="186" y="675"/>
			<point x="186" y="719" type="curve" smooth="yes"/>
			<point x="186" y="731"/>
			<point x="187" y="738"/>
			<point x="194" y="766" type="curve"/>
			<point x="181" y="774"/>
			<point x="165" y="779"/>
			<point x="148" y="779" type="curve" smooth="yes"/>
			<point x="105" y="779"/>
			<point x="79" y="753"/>
			<point x="79" y="708" type="curve" smooth="yes"/>
			<point x="79" y="641"/>
			<point x="155" y="599"/>
			<point x="253" y="611" type="curve"/>
			<point x="113" y="444"/>
			<point x="46" y="306"/>
			<point x="46" y="190" type="curve" smooth="yes"/>
			<point x="46" y="95"/>
			<point x="88" y="43"/>
			<point x="209" y="-12" type="curve" smooth="yes"/>
			<point x="283" y="-46"/>
			<point x="308" y="-70"/>
			<point x="308" y="-108" type="curve" smooth="yes"/>
			<point x="308" y="-133"/>
			<point x="291" y="-170"/>
			<point x="261" y="-210" type="curve"/>
		</contour>
	</outline>
</glyph>
<glyph name="theta" format="2">
	<unicode hex="03B8"/>
	<advance width="616"/>
	<outline>
		<contour>
			<point x="307" y="-14" type="curve" smooth="yes"/>
			<point x="469" y="-14"/>
			<point x="565" y="166"/>
			<point x="565" y="469" type="curve" smooth="yes"/>
			<point x="565" y="674"/>
			<point x="486" y="782"/>
			<point x="335" y="782" type="curve" smooth="yes"/>
			<point x="228" y="782"/>
			<point x="151" y="703"/>
			<point x="151" y="594" type="curve" smooth="yes"/>
			<point x="151" y="448"/>
			<point x="267" y="356"/>
			<point x="475" y="337" type="curve"/>
			<point x="466" y="166"/>
			<point x="397" y="50"/>
			<point x="304" y="50" type="curve" smooth="yes"/>
			<point x="256" y="50"/>
			<point x="232" y="73"/>
			<point x="232" y="119" type="curve" smooth="yes"/>
			<point x="232" y="169"/>
			<point x="251" y="240"/>
			<point x="251" y="275" type="curve" smooth="yes"/>
			<point x="251" y="318"/>
			<point x="223" y="343"/>
			<point x="176" y="343" type="curve" smooth="yes"/>
			<point x="147" y="343"/>
			<point x="98" y="329"/>
			<point x="60" y="310" type="curve"/>
			<point x="77" y="263" type="line"/>
			<point x="101" y="274"/>
			<point x="124" y="280"/>
			<point x="137" y="280" type="curve" smooth="yes"/>
			<point x="154" y="280"/>
			<point x="163" y="270"/>
			<point x="163" y="250" type="curve" smooth="yes"/>
			<point x="163" y="221"/>
			<point x="146" y="163"/>
			<point x="146" y="111" type="curve" smooth="yes"/>
			<point x="146" y="32"/>
			<point x="206" y="-14"/>
		</contour>
		<contour>
			<point x="477" y="381" type="curve"/>
			<point x="326" y="403"/>
			<point x="240" y="484"/>
			<point x="240" y="603" type="curve" smooth="yes"/>
			<point x="240" y="682"/>
			<point x="280" y="734"/>
			<point x="341" y="734" type="curve" smooth="yes"/>
			<point x="430" y="734"/>
			<point x="480" y="634"/>
			<point x="480" y="456" type="curve" smooth="yes"/>
			<point x="480" y="433"/>
			<point x="479" y="408"/>
		</contour>
	</outline>
</glyph>
<glyph name="iota" format="2">
	<unicode hex="03B9"/>
	<advance width="282"/>
	<outline>
		<contour>
			<point x="130" y="-14" type="curve" smooth="yes"/>
			<point x="173" y="-14"/>
			<point x="203" y="-2"/>
			<point x="241" y="29" type="curve"/>
			<point x="220" y="68" type="line"/>
			<point x="199" y="56"/>
			<point x="185" y="52"/>
			<point x="161" y="52" type="curve" smooth="yes"/>
			<point x="122" y="52"/>
			<point x="106" y="71"/>
			<point x="106" y="120" type="curve" smooth="yes"/>
			<point x="106" y="185"/>
			<point x="122" y="321"/>
			<point x="153" y="511" type="curve"/>
			<point x="142" y="516" type="line"/>
			<point x="49" y="508" type="line"/>
			<point x="36" y="270"/>
			<point x="29" y="134"/>
			<point x="29" y="91" type="curve" smooth="yes"/>
			<point x="29" y="23"/>
			<point x="64" y="-14"/>
		</contour>
	</outline>
	<anchor name="top" x="110" y="550"/>
</glyph>
<glyph name="nu" format="2">
	<unicode hex="03BD"/>
	<advance width="525"/>
	<outline>
		<contour>
			<point x="221" y="-11" type="line"/>
			<point x="367" y="118"/>
			<point x="472" y="295"/>
			<point x="472" y="412" type="curve" smooth="yes"/>
			<point x="472" y="480"/>
			<point x="439" y="521"/>
			<point x="385" y="521" type="curve" smooth="yes"/>
			<point x="341" y="521"/>
			<point x="315" y="486"/>
			<point x="324" y="436" type="curve"/>
			<point x="355" y="425" type="line" smooth="yes"/>
			<point x="382" y="415"/>
			<point x="394" y="401"/>
			<point x="394" y="378" type="curve" smooth="yes"/>
			<point x="394" y="297"/>
			<point x="304" y="119"/>
			<point x="230" y="54" type="curve"/>
			<point x="230" y="133"/>
			<point x="227" y="224"/>
			<point x="223" y="296" type="curve" smooth="yes"/>
			<point x="212" y="477"/>
			<point x="190" y="521"/>
			<point x="113" y="521" type="curve" smooth="yes"/>
			<point x="78" y="521"/>
			<point x="33" y="501"/>
			<point x="0" y="472" type="curve"/>
			<point x="23" y="436" type="line"/>
			<point x="48" y="454"/>
			<point x="63" y="460"/>
			<point x="79" y="460" type="curve" smooth="yes"/>
			<point x="113" y="460"/>
			<point x="124" y="427"/>
			<point x="138" y="283" type="curve" smooth="yes"/>
			<point x="154" y="109"/>
			<point x="155" y="92"/>
			<point x="160" y="15" type="curve"/>
		</contour>
	</outline>
</glyph>
<glyph name="xi" format="2">
	<unicode hex="03BE"/>
	<advance width="437"/>
	<outline>
		<contour>
			<point x="282" y="-234" type="line"/>
			<point x="332" y="-183"/>
			<point x="363" y="-122"/>
			<point x="363" y="-75" type="curve" smooth="yes"/>
			<point x="363" y="-10"/>
			<point x="330" y="25"/>
			<point x="225" y="70" type="curve" smooth="yes"/>
			<point x="156" y="100"/>
			<point x="128" y="133"/>
			<point x="128" y="185" type="curve" smooth="yes"/>
			<point x="128" y="249"/>
			<point x="160" y="304"/>
			<point x="213" y="330" type="curve"/>
			<point x="242" y="304"/>
			<point x="268" y="292"/>
			<point x="297" y="292" type="curve" smooth="yes"/>
			<point x="337" y="292"/>
			<point x="365" y="319"/>
			<point x="365" y="359" type="curve" smooth="yes"/>
			<point x="365" y="389"/>
			<point x="337" y="411"/>
			<point x="298" y="411" type="curve" smooth="yes"/>
			<point x="273" y="411"/>
			<point x="245" y="399"/>
			<point x="213" y="374" type="curve"/>
			<point x="177" y="385"/>
			<point x="151" y="419"/>
			<point x="151" y="458" type="curve" smooth="yes"/>
			<point x="151" y="545"/>
			<point x="229" y="609"/>
			<point x="393" y="656" type="curve" smooth="yes"/>
			<point x="407" y="660"/>
			<point x="416" y="676"/>
			<point x="416" y="696" type="curve" smooth="yes"/>
			<point x="416" y="723"/>
			<point x="394" y="740"/>
			<point x="367" y="732" type="curve" smooth="yes"/>
			<point x="314" y="716"/>
			<point x="249" y="685"/>
			<point x="202" y="655" type="curve"/>
			<point x="163" y="661"/>
			<point x="134" y="690"/>
			<point x="134" y="724" type="curve" smooth="yes"/>
			<point x="134" y="736"/>
			<point x="135" y="743"/>
			<point x="141" y="770" type="curve"/>
			<point x="131" y="777"/>
			<point x="114" y="782"/>
			<point x="98" y="782" type="curve" smooth="yes"/>
			<point x="57" y="782"/>
			<point x="34" y="759"/>
			<point x="34" y="720" type="curve" smooth="yes"/>
			<point x="34" y="667"/>
			<point x="84" y="625"/>
			<point x="153" y="620" type="curve"/>
			<point x="101" y="577"/>
			<point x="73" y="526"/>
			<point x="73" y="476" type="curve" smooth="yes"/>
			<point x="73" y="422"/>
			<point x="112" y="375"/>
			<point x="175" y="352" type="curve"/>
			<point x="175" y="350" type="line"/>
			<point x="93" y="321"/>
			<point x="32" y="240"/>
			<point x="32" y="161" type="curve" smooth="yes"/>
			<point x="32" y="89"/>
			<point x="73" y="45"/>
			<point x="193" y="-11" type="curve" smooth="yes"/>
			<point x="267" y="-45"/>
			<point x="294" y="-71"/>
			<point x="294" y="-107" type="curve" smooth="yes"/>
			<point x="294" y="-132"/>
			<point x="274" y="-176"/>
			<point x="248" y="-209" type="curve"/>
		</contour>
	</outline>
</glyph>
<glyph name="sigmafinal" format="2">
	<unicode hex="03C2"/>
	<advance width="488"/>
	<outline>
		<contour>
			<point x="297" y="-234" type="line"/>
			<point x="349" y="-179"/>
			<point x="377" y="-123"/>
			<point x="377" y="-74" type="curve" smooth="yes"/>
			<point x="377" y="-13"/>
			<point x="345" y="23"/>
			<point x="262" y="59" type="curve" smooth="yes"/>
			<point x="173" y="98"/>
			<point x="141" y="143"/>
			<point x="141" y="230" type="curve" smooth="yes"/>
			<point x="141" y="377"/>
			<point x="198" y="465"/>
			<point x="293" y="465" type="curve" smooth="yes"/>
			<point x="334" y="465"/>
			<point x="361" y="450"/>
			<point x="361" y="428" type="curve" smooth="yes"/>
			<point x="361" y="419"/>
			<point x="355" y="407"/>
			<point x="345" y="396" type="curve" smooth="yes"/>
			<point x="324" y="372" type="line"/>
			<point x="335" y="346"/>
			<point x="360" y="330"/>
			<point x="386" y="330" type="curve" smooth="yes"/>
			<point x="423" y="330"/>
			<point x="447" y="355"/>
			<point x="447" y="394" type="curve" smooth="yes"/>
			<point x="447" y="470"/>
			<point x="386" y="521"/>
			<point x="295" y="521" type="curve" smooth="yes"/>
			<point x="144" y="521"/>
			<point x="47" y="406"/>
			<point x="47" y="227" type="curve" smooth="yes"/>
			<point x="47" y="104"/>
			<point x="93" y="39"/>
			<point x="226" y="-21" type="curve" smooth="yes"/>
			<point x="285" y="-47"/>
			<point x="309" y="-72"/>
			<point x="309" y="-108" type="curve" smooth="yes"/>
			<point x="309" y="-133"/>
			<point x="292" y="-170"/>
			<point x="262" y="-210" type="curve"/>
		</contour>
	</outline>
</glyph>
<glyph name="sigma" format="2">
	<unicode hex="03C3"/>
	<advance width="626"/>
	<outline>
		<contour>
			<point x="258" y="-14" type="curve" smooth="yes"/>
			<point x="394" y="-14"/>
			<point x="486" y="94"/>
			<point x="486" y="253" type="curve" smooth="yes"/>
			<point x="486" y="330"/>
			<point x="456" y="403"/>
			<point x="416" y="423" type="curve"/>
			<point x="416" y="425" type="line"/>
			<point x="470" y="417"/>
			<point x="505" y="414"/>
			<point x="526" y="414" type="curve" smooth="yes"/>
			<point x="563" y="414"/>
			<point x="589" y="439"/>
			<point x="589" y="476" type="curve" smooth="yes"/>
			<point x="589" y="493"/>
			<point x="583" y="503"/>
			<point x="562" y="521" type="curve"/>
			<point x="447" y="494" type="line"/>
			<point x="383" y="503"/>
			<point x="330" y="508"/>
			<point x="303" y="508" type="curve" smooth="yes"/>
			<point x="148" y="508"/>
			<point x="48" y="401"/>
			<point x="48" y="234" type="curve" smooth="yes"/>
			<point x="48" y="75"/>
			<point x="124" y="-14"/>
		</contour>
		<contour>
			<point x="264" y="43" type="curve" smooth="yes"/>
			<point x="182" y="43"/>
			<point x="141" y="107"/>
			<point x="141" y="234" type="curve" smooth="yes"/>
			<point x="141" y="359"/>
			<point x="197" y="430"/>
			<point x="294" y="430" type="curve" smooth="yes"/>
			<point x="307" y="430"/>
			<point x="327" y="428"/>
			<point x="344" y="424" type="curve"/>
			<point x="380" y="394"/>
			<point x="397" y="337"/>
			<point x="397" y="247" type="curve" smooth="yes"/>
			<point x="397" y="117"/>
			<point x="349" y="43"/>
		</contour>
	</outline>
</glyph>
<glyph name="tau" format="2">
	<unicode hex="03C4"/>
	<advance width="520"/>
	<outline>
		<contour>
			<point x="278" y="-14" type="curve" smooth="yes"/>
			<point x="336" y="-14"/>
			<point x="392" y="17"/>
			<point x="432" y="70" type="curve"/>
			<point x="400" y="105" type="line"/>
			<point x="363" y="69"/>
			<point x="332" y="52"/>
			<point x="304" y="52" type="curve" smooth="yes"/>
			<point x="262" y="52"/>
			<point x="244" y="75"/>
			<point x="244" y="129" type="curve" smooth="yes"/>
			<point x="244" y="186"/>
			<point x="260" y="328"/>
			<point x="278" y="434" type="curve"/>
			<point x="375" y="427"/>
			<point x="413" y="424"/>
			<point x="428" y="424" type="curve" smooth="yes"/>
			<point x="467" y="424"/>
			<point x="493" y="450"/>
			<point x="493" y="488" type="curve" smooth="yes"/>
			<point x="493" y="505"/>
			<point x="484" y="520"/>
			<point x="466" y="534" type="curve"/>
			<point x="351" y="506" type="line"/>
			<point x="88" y="521" type="line"/>
			<point x="45" y="521"/>
			<point x="14" y="489"/>
			<point x="14" y="444" type="curve" smooth="yes"/>
			<point x="14" y="404"/>
			<point x="48" y="379"/>
			<point x="101" y="381" type="curve"/>
			<point x="112" y="412" type="line" smooth="yes"/>
			<point x="119" y="432"/>
			<point x="131" y="441"/>
			<point x="150" y="441" type="curve" smooth="yes"/>
			<point x="169" y="441"/>
			<point x="194" y="440"/>
			<point x="220" y="438" type="curve"/>
			<point x="179" y="276"/>
			<point x="158" y="168"/>
			<point x="158" y="115" type="curve" smooth="yes"/>
			<point x="158" y="30"/>
			<point x="199" y="-14"/>
		</contour>
	</outline>
</glyph>
<glyph name="phi" format="2">
	<unicode hex="03C6"/>
	<advance width="707"/>
	<outline>
		<contour>
			<point x="256" y="-230" type="line"/>
			<point x="310" y="-218" type="line"/>
			<point x="348" y="-12" type="line"/>
			<point x="529" y="2"/>
			<point x="661" y="144"/>
			<point x="661" y="323" type="curve" smooth="yes"/>
			<point x="661" y="448"/>
			<point x="599" y="521"/>
			<point x="492" y="521" type="curve" smooth="yes"/>
			<point x="404" y="521"/>
			<point x="358" y="470"/>
			<point x="338" y="350" type="curve" smooth="yes"/>
			<point x="288" y="41" type="line"/>
			<point x="189" y="52"/>
			<point x="140" y="112"/>
			<point x="140" y="222" type="curve" smooth="yes"/>
			<point x="140" y="347"/>
			<point x="191" y="444"/>
			<point x="278" y="484" type="curve"/>
			<point x="255" y="520" type="line"/>
			<point x="131" y="491"/>
			<point x="47" y="369"/>
			<point x="47" y="219" type="curve" smooth="yes"/>
			<point x="47" y="72"/>
			<point x="125" y="-6"/>
			<point x="279" y="-13" type="curve"/>
			<point x="245" y="-225" type="line"/>
		</contour>
		<contour>
			<point x="358" y="42" type="curve"/>
			<point x="420" y="381" type="line" smooth="yes"/>
			<point x="431" y="439"/>
			<point x="454" y="468"/>
			<point x="490" y="468" type="curve" smooth="yes"/>
			<point x="538" y="468"/>
			<point x="569" y="419"/>
			<point x="569" y="343" type="curve" smooth="yes"/>
			<point x="569" y="176"/>
			<point x="486" y="57"/>
		</contour>
	</outline>
</glyph>
<glyph name="chi" format="2">
	<unicode hex="03C7"/>
	<advance width="494"/>
	<outline>
		<contour>
			<point x="89" y="-230" type="curve" smooth="yes"/>
			<point x="133" y="-230"/>
			<point x="156" y="-200"/>
			<point x="153" y="-145" type="curve"/>
			<point x="122" y="-134" type="line" smooth="yes"/>
			<point x="96" y="-124"/>
			<point x="83" y="-111"/>
			<point x="83" y="-93" type="curve" smooth="yes"/>
			<point x="83" y="-48"/>
			<point x="137" y="30"/>
			<point x="223" y="109" type="curve"/>
			<point x="297" y="-159" type="line"/>
			<point x="311" y="-210"/>
			<point x="334" y="-230"/>
			<point x="380" y="-230" type="curve" smooth="yes"/>
			<point x="422" y="-230"/>
			<point x="464" y="-213"/>
			<point x="501" y="-181" type="curve"/>
			<point x="478" y="-145" type="line"/>
			<point x="454" y="-162"/>
			<point x="437" y="-169"/>
			<point x="420" y="-169" type="curve" smooth="yes"/>
			<point x="402" y="-169"/>
			<point x="390" y="-156"/>
			<point x="382" y="-128" type="curve" smooth="yes"/>
			<point x="295" y="161" type="line"/>
			<point x="435" y="286"/>
			<point x="494" y="367"/>
			<point x="494" y="433" type="curve" smooth="yes"/>
			<point x="494" y="486"/>
			<point x="463" y="521"/>
			<point x="416" y="521" type="curve" smooth="yes"/>
			<point x="368" y="521"/>
			<point x="341" y="487"/>
			<point x="348" y="436" type="curve"/>
			<point x="382" y="425" type="line" smooth="yes"/>
			<point x="408" y="417"/>
			<point x="418" y="407"/>
			<point x="418" y="385" type="curve" smooth="yes"/>
			<point x="418" y="341"/>
			<point x="391" y="304"/>
			<point x="284" y="201" type="curve"/>
			<point x="218" y="443" type="line" smooth="yes"/>
			<point x="202" y="500"/>
			<point x="178" y="521"/>
			<point x="127" y="521" type="curve" smooth="yes"/>
			<point x="96" y="521"/>
			<point x="39" y="504"/>
			<point x="16" y="488" type="curve"/>
			<point x="33" y="441" type="line"/>
			<point x="50" y="448"/>
			<point x="69" y="457"/>
			<point x="92" y="457" type="curve" smooth="yes"/>
			<point x="113" y="457"/>
			<point x="124" y="446"/>
			<point x="132" y="416" type="curve"/>
			<point x="210" y="150" type="line"/>
			<point x="70" y="28"/>
			<point x="7" y="-62"/>
			<point x="7" y="-139" type="curve" smooth="yes"/>
			<point x="7" y="-197"/>
			<point x="37" y="-230"/>
		</contour>
	</outline>
</glyph>
<glyph name="kaiSymbol" format="2">
	<unicode hex="03D7"/>
	<advance width="600"/>
	<outline>
		<contour>
			<point x="290" y="-229" type="curve" smooth="yes"/>
			<point x="430" y="-229"/>
			<point x="534" y="-148"/>
			<point x="534" y="-39" type="curve" smooth="yes"/>
			<point x="534" y="3"/>
			<point x="514" y="49"/>
			<point x="464" y="123" type="curve" smooth="yes"/>
			<point x="402" y="217"/>
			<point x="385" y="253"/>
			<point x="385" y="291" type="curve" smooth="yes"/>
			<point x="385" y="306"/>
			<point x="384" y="303"/>
			<point x="403" y="373" type="curve"/>
			<point x="453" y="411"/>
			<point x="501" y="428"/>
			<point x="562" y="431" type="curve"/>
			<point x="567" y="442" type="line"/>
			<point x="544" y="515" type="line"/>
			<point x="402" y="521"/>
			<point x="316" y="443"/>
			<point x="184" y="188" type="curve"/>
			<point x="182" y="189" type="line"/>
			<point x="218" y="332"/>
			<point x="238" y="424"/>
			<point x="238" y="450" type="curve" smooth="yes"/>
			<point x="238" y="496"/>
			<point x="211" y="521"/>
			<point x="160" y="521" type="curve" smooth="yes"/>
			<point x="128" y="521"/>
			<point x="80" y="507"/>
			<point x="47" y="488" type="curve"/>
			<point x="65" y="441" type="line"/>
			<point x="87" y="451"/>
			<point x="109" y="457"/>
			<point x="125" y="457" type="curve" smooth="yes"/>
			<point x="142" y="457"/>
			<point x="150" y="446"/>
			<point x="150" y="424" type="curve" smooth="yes"/>
			<point x="150" y="410"/>
			<point x="126" y="280"/>
			<point x="73" y="0" type="curve"/>
			<point x="145" y="0" type="line"/>
			<point x="178" y="102"/>
			<point x="249" y="216"/>
			<point x="352" y="332" type="curve"/>
			<point x="330" y="290"/>
			<point x="321" y="260"/>
			<point x="321" y="230" type="curve" smooth="yes"/>
			<point x="321" y="189"/>
			<point x="337" y="155"/>
			<point x="394" y="73" type="curve" smooth="yes"/>
			<point x="429" y="23"/>
			<point x="442" y="-8"/>
			<point x="442" y="-37" type="curve" smooth="yes"/>
			<point x="442" y="-130"/>
			<point x="371" y="-176"/>
			<point x="226" y="-176" type="curve"/>
			<point x="218" y="-219" type="line"/>
			<point x="233" y="-225"/>
			<point x="262" y="-229"/>
		</contour>
	</outline>
</glyph>
<glyph name="KoppaArchaic" format="2">
	<unicode hex="03D8"/>
	<advance width="715"/>
	<outline>
		<contour>
			<point x="307" y="-219" type="line"/>
			<point x="388" y="-211" type="line"/>
			<point x="387" y="-145"/>
			<point x="387" y="-78"/>
			<point x="386" y="-12" type="curve"/>
			<point x="562" y="5"/>
			<point x="674" y="159"/>
			<point x="674" y="382" type="curve" smooth="yes"/>
			<point x="674" y="586"/>
			<point x="562" y="715"/>
			<point x="385" y="715" type="curve" smooth="yes"/>
			<point x="185" y="715"/>
			<point x="59" y="565"/>
			<point x="59" y="328" type="curve" smooth="yes"/>
			<point x="59" y="138"/>
			<point x="155" y="8"/>
			<point x="311" y="-11" type="curve"/>
			<point x="308" y="-75"/>
			<point x="299" y="-172"/>
			<point x="296" y="-214" type="curve"/>
		</contour>
		<contour>
			<point x="388" y="52" type="curve"/>
			<point x="390" y="86"/>
			<point x="397" y="141"/>
			<point x="407" y="220" type="curve"/>
			<point x="395" y="226" type="line"/>
			<point x="317" y="215" type="line"/>
			<point x="316" y="176"/>
			<point x="315" y="110"/>
			<point x="313" y="58" type="curve"/>
			<point x="213" y="85"/>
			<point x="154" y="193"/>
			<point x="154" y="349" type="curve" smooth="yes"/>
			<point x="154" y="541"/>
			<point x="234" y="653"/>
			<point x="371" y="653" type="curve" smooth="yes"/>
			<point x="501" y="653"/>
			<point x="576" y="547"/>
			<point x="576" y="364" type="curve" smooth="yes"/>
			<point x="576" y="176"/>
			<point x="508" y="64"/>
		</contour>
	</outline>
</glyph>
<glyph name="stigma" format="2">
	<unicode hex="03DB"/>
	<advance width="506"/>
	<outline>
		<contour>
			<point x="296" y="-234" type="line"/>
			<point x="348" y="-179"/>
			<point x="376" y="-123"/>
			<point x="376" y="-74" type="curve" smooth="yes"/>
			<point x="376" y="-13"/>
			<point x="344" y="23"/>
			<point x="261" y="59" type="curve" smooth="yes"/>
			<point x="159" y="103"/>
			<point x="130" y="145"/>
			<point x="130" y="247" type="curve" smooth="yes"/>
			<point x="130" y="378"/>
			<point x="206" y="445"/>
			<point x="351" y="442" type="curve" smooth="yes"/>
			<point x="428" y="440"/>
			<point x="470" y="473"/>
			<point x="470" y="536" type="curve" smooth="yes"/>
			<point x="470" y="568"/>
			<point x="461" y="592"/>
			<point x="437" y="625" type="curve"/>
			<point x="398" y="615" type="line"/>
			<point x="402" y="601"/>
			<point x="403" y="593"/>
			<point x="403" y="583" type="curve" smooth="yes"/>
			<point x="403" y="527"/>
			<point x="394" y="521"/>
			<point x="320" y="521" type="curve" smooth="yes"/>
			<point x="156" y="521"/>
			<point x="47" y="406"/>
			<point x="47" y="232" type="curve" smooth="yes"/>
			<point x="47" y="108"/>
			<point x="96" y="37"/>
			<point x="225" y="-21" type="curve" smooth="yes"/>
			<point x="284" y="-47"/>
			<point x="308" y="-72"/>
			<point x="308" y="-108" type="curve" smooth="yes"/>
			<point x="308" y="-133"/>
			<point x="291" y="-170"/>
			<point x="261" y="-210" type="curve"/>
		</contour>
	</outline>
</glyph>
<glyph name="digamma" format="2">
	<unicode hex="03DD"/>
	<advance width="333"/>
	<outline>
		<contour>
			<point x="69" y="0" type="line"/>
			<point x="146" y="0" type="line"/>
			<point x="165" y="448" type="line"/>
			<point x="305" y="448" type="line"/>
			<point x="309" y="507" type="line"/>
			<point x="165" y="507" type="line"/>
			<point x="170" y="602" type="line" smooth="yes"/>
			<point x="174" y="685"/>
			<point x="213" y="734"/>
			<point x="277" y="734" type="curve" smooth="yes"/>
			<point x="321" y="734"/>
			<point x="336" y="710"/>
			<point x="320" y="666" type="curve" smooth="yes"/>
			<point x="310" y="639" type="line"/>
			<point x="322" y="623"/>
			<point x="342" y="613"/>
			<point x="363" y="613" type="curve" smooth="yes"/>
			<point x="398" y="613"/>
			<point x="421" y="636"/>
			<point x="421" y="671" type="curve" smooth="yes"/>
			<point x="421" y="737"/>
			<point x="365" y="782"/>
			<point x="283" y="782" type="curve" smooth="yes"/>
			<point x="165" y="782"/>
			<point x="90" y="699"/>
			<point x="81" y="559" type="curve" smooth="yes"/>
			<point x="78" y="508" type="line"/>
			<point x="-3" y="500" type="line"/>
			<point x="-10" y="448" type="line"/>
			<point x="76" y="448" type="line"/>
			<point x="58" y="5" type="line"/>
		</contour>
	</outline>
</glyph>
<glyph name="Koppa" format="2">
	<unicode hex="03DE"/>
	<advance width="549"/>
	<outline>
		<contour>
			<point x="301" y="-89" type="curve" smooth="yes"/>
			<point x="335" y="-89"/>
			<point x="370" y="-74"/>
			<point x="393" y="-49" type="curve"/>
			<point x="387" y="-13" type="line"/>
			<point x="370" y="-19"/>
			<point x="358" y="-21"/>
			<point x="345" y="-21" type="curve" smooth="yes"/>
			<point x="323" y="-21"/>
			<point x="309" y="-8"/>
			<point x="309" y="12" type="curve" smooth="yes"/>
			<point x="309" y="44"/>
			<point x="333" y="93"/>
			<point x="388" y="172" type="curve" smooth="yes"/>
			<point x="503" y="339" type="line"/>
			<point x="469" y="399" type="line"/>
			<point x="160" y="242" type="line"/>
			<point x="318" y="456"/>
			<point x="327" y="470"/>
			<point x="327" y="522" type="curve" smooth="yes"/>
			<point x="327" y="570"/>
			<point x="295" y="600"/>
			<point x="243" y="600" type="curve" smooth="yes"/>
			<point x="210" y="600"/>
			<point x="175" y="585"/>
			<point x="152" y="560" type="curve"/>
			<point x="158" y="524" type="line"/>
			<point x="175" y="530"/>
			<point x="187" y="532"/>
			<point x="200" y="532" type="curve" smooth="yes"/>
			<point x="223" y="532"/>
			<point x="236" y="521"/>
			<point x="236" y="500" type="curve" smooth="yes"/>
			<point x="236" y="465"/>
			<point x="213" y="420"/>
			<point x="142" y="317" type="curve" smooth="yes"/>
			<point x="42" y="172" type="line"/>
			<point x="76" y="112" type="line"/>
			<point x="385" y="269" type="line"/>
			<point x="230" y="59"/>
			<point x="218" y="40"/>
			<point x="218" y="-11" type="curve" smooth="yes"/>
			<point x="218" y="-59"/>
			<point x="250" y="-89"/>
		</contour>
	</outline>
</glyph>
<glyph name="Sampi" format="2">
	<unicode hex="03E0"/>
	<advance width="730"/>
	<outline>
		<contour>
			<point x="225" y="-162" type="line"/>
			<point x="260" y="-140" type="line"/>
			<point x="244" y="-107" type="line" smooth="yes"/>
			<point x="237" y="-97"/>
			<point x="242" y="-85"/>
			<point x="259" y="-73" type="curve" smooth="yes"/>
			<point x="566" y="142" type="line"/>
			<point x="573" y="102"/>
			<point x="577" y="62"/>
			<point x="577" y="20" type="curve" smooth="yes"/>
			<point x="577" y="-17"/>
			<point x="569" y="-120"/>
			<point x="563" y="-163" type="curve"/>
			<point x="650" y="-165" type="line"/>
			<point x="659" y="-107"/>
			<point x="665" y="-38"/>
			<point x="665" y="19" type="curve" smooth="yes"/>
			<point x="665" y="346"/>
			<point x="497" y="508"/>
			<point x="151" y="512" type="curve"/>
			<point x="144" y="440" type="line"/>
			<point x="260" y="438"/>
			<point x="350" y="416"/>
			<point x="418" y="373" type="curve"/>
			<point x="114" y="156" type="line" smooth="yes"/>
			<point x="92" y="140"/>
			<point x="89" y="140"/>
			<point x="72" y="157" type="curve" smooth="yes"/>
			<point x="55" y="175" type="line"/>
			<point x="22" y="155" type="line"/>
			<point x="117" y="6" type="line"/>
			<point x="152" y="28" type="line"/>
			<point x="136" y="61" type="line" smooth="yes"/>
			<point x="131" y="75"/>
			<point x="135" y="84"/>
			<point x="152" y="95" type="curve" smooth="yes"/>
			<point x="478" y="325" type="line"/>
			<point x="508" y="293"/>
			<point x="530" y="257"/>
			<point x="545" y="218" type="curve"/>
			<point x="222" y="-12" type="line" smooth="yes"/>
			<point x="200" y="-28"/>
			<point x="194" y="-28"/>
			<point x="179" y="-11" type="curve" smooth="yes"/>
			<point x="162" y="7" type="line"/>
			<point x="129" y="-13" type="line"/>
		</contour>
	</outline>
</glyph>
<glyph name="sampi" format="2">
	<unicode hex="03E1"/>
	<advance width="573"/>
	<outline>
		<contour>
			<point x="445" y="-247" type="line"/>
			<point x="494" y="-128"/>
			<point x="522" y="-7"/>
			<point x="522" y="90" type="curve" smooth="yes"/>
			<point x="522" y="313"/>
			<point x="402" y="464"/>
			<point x="178" y="525" type="curve"/>
			<point x="155" y="465" type="line"/>
			<point x="254" y="443"/>
			<point x="330" y="387"/>
			<point x="378" y="305" type="curve"/>
			<point x="115" y="200" type="line" smooth="yes"/>
			<point x="95" y="192"/>
			<point x="90" y="193"/>
			<point x="84" y="205" type="curve" smooth="yes"/>
			<point x="71" y="231" type="line"/>
			<point x="38" y="218" type="line"/>
			<point x="88" y="67" type="line"/>
			<point x="121" y="78" type="line"/>
			<point x="116" y="111" type="line"/>
			<point x="113" y="123"/>
			<point x="119" y="130"/>
			<point x="136" y="137" type="curve" smooth="yes"/>
			<point x="406" y="243" type="line"/>
			<point x="418" y="209"/>
			<point x="426" y="173"/>
			<point x="431" y="133" type="curve"/>
			<point x="169" y="29" type="line" smooth="yes"/>
			<point x="149" y="21"/>
			<point x="144" y="22"/>
			<point x="138" y="34" type="curve" smooth="yes"/>
			<point x="125" y="60" type="line"/>
			<point x="92" y="47" type="line"/>
			<point x="142" y="-104" type="line"/>
			<point x="175" y="-93" type="line"/>
			<point x="170" y="-60" type="line"/>
			<point x="167" y="-48"/>
			<point x="173" y="-41"/>
			<point x="190" y="-34" type="curve" smooth="yes"/>
			<point x="434" y="62" type="line"/>
			<point x="433" y="-32"/>
			<point x="411" y="-135"/>
			<point x="373" y="-227" type="curve"/>
		</contour>
	</outline>
</glyph>
<glyph name="E-cy" format="2">
	<unicode hex="0404"/>
	<advance width="619"/>
	<outline>
		<contour>
			<point x="487" y="571" type="curve" smooth="yes"/>
			<point x="470" y="537" type="line"/>
			<point x="486" y="521"/>
			<point x="511" y="507"/>
			<point x="542" y="507" type="curve" smooth="yes"/>
			<point x="571" y="507"/>
			<point x="597" y="528"/>
			<point x="597" y="566" type="curve" smooth="yes"/>
			<point x="597" y="662"/>
			<point x="480" y="715"/>
			<point x="377" y="715" type="curve" smooth="yes"/>
			<point x="203" y="715"/>
			<point x="59" y="585"/>
			<point x="59" y="325" type="curve" smooth="yes"/>
			<point x="59" y="174"/>
			<point x="124" y="-14"/>
			<point x="342" y="-14" type="curve" smooth="yes"/>
			<point x="465" y="-14"/>
			<point x="539" y="61"/>
			<point x="587" y="128" type="curve"/>
			<point x="548" y="168" type="line"/>
			<point x="495" y="105"/>
			<point x="436" y="55"/>
			<point x="352" y="55" type="curve" smooth="yes"/>
			<point x="213" y="55"/>
			<point x="154" y="190"/>
			<point x="153" y="331" type="curve"/>
			<point x="483" y="331" type="line"/>
			<point x="488" y="401" type="line"/>
			<point x="155" y="389" type="line"/>
			<point x="168" y="561"/>
			<point x="248" y="652"/>
			<point x="373" y="652" type="curve" smooth="yes"/>
			<point x="440" y="652"/>
			<point x="514" y="626"/>
		</contour>
	</outline>
	<anchor name="top" x="371" y="730"/>
</glyph>
<glyph name="Lje-cy" format="2">
	<unicode hex="0409"/>
	<advance width="960"/>
	<outline>
		<contour>
			<point x="519" y="640" type="line"/>
			<point x="495" y="60" type="line"/>
			<point x="406" y="44" type="line"/>
			<point x="401" y="0" type="line"/>
			<point x="635" y="0" type="line" smooth="yes"/>
			<point x="845" y="0"/>
			<point x="931" y="91"/>
			<point x="931" y="223" type="curve" smooth="yes"/>
			<point x="931" y="308"/>
			<point x="872" y="399"/>
			<point x="740" y="399" type="curve" smooth="yes"/>
			<point x="695" y="399"/>
			<point x="666" y="395"/>
			<point x="632" y="390" type="curve"/>
			<point x="630" y="340" type="line"/>
			<point x="654" y="345"/>
			<point x="669" y="347"/>
			<point x="694" y="347" type="curve" smooth="yes"/>
			<point x="790" y="347"/>
			<point x="834" y="300"/>
			<point x="834" y="217" type="curve" smooth="yes"/>
			<point x="834" y="124"/>
			<point x="792" y="54"/>
			<point x="647" y="54" type="curve" smooth="yes"/>
			<point x="583" y="54" type="line"/>
			<point x="605" y="637" type="line"/>
			<point x="690" y="654" type="line"/>
			<point x="696" y="700" type="line"/>
			<point x="191" y="700" type="line"/>
			<point x="185" y="654" type="line"/>
			<point x="271" y="637" type="line"/>
			<point x="256" y="361"/>
			<point x="201" y="78"/>
			<point x="137" y="76" type="curve"/>
			<point x="88" y="139" type="line"/>
			<point x="44" y="133"/>
			<point x="18" y="104"/>
			<point x="18" y="65" type="curve" smooth="yes"/>
			<point x="18" y="30"/>
			<point x="43" y="-12"/>
			<point x="107" y="-12" type="curve" smooth="yes"/>
			<point x="231" y="-12"/>
			<point x="303" y="170"/>
			<point x="339" y="640" type="curve"/>
		</contour>
	</outline>
</glyph>
<glyph name="Nje-cy" format="2">
	<unicode hex="040A"/>
	<advance width="996"/>
	<outline>
		<contour>
			<point x="542" y="328" type="line"/>
			<point x="531" y="60" type="line"/>
			<point x="442" y="44" type="line"/>
			<point x="437" y="0" type="line"/>
			<point x="671" y="0" type="line" smooth="yes"/>
			<point x="881" y="0"/>
			<point x="967" y="91"/>
			<point x="967" y="223" type="curve" smooth="yes"/>
			<point x="967" y="309"/>
			<point x="908" y="399"/>
			<point x="782" y="399" type="curve" smooth="yes"/>
			<point x="732" y="399"/>
			<point x="701" y="395"/>
			<point x="668" y="390" type="curve"/>
			<point x="666" y="340" type="line"/>
			<point x="690" y="345"/>
			<point x="705" y="347"/>
			<point x="730" y="347" type="curve" smooth="yes"/>
			<point x="826" y="347"/>
			<point x="870" y="298"/>
			<point x="870" y="215" type="curve" smooth="yes"/>
			<point x="870" y="122"/>
			<point x="828" y="54"/>
			<point x="683" y="54" type="curve" smooth="yes"/>
			<point x="619" y="54" type="line"/>
			<point x="642" y="637" type="line"/>
			<point x="727" y="654" type="line"/>
			<point x="733" y="700" type="line"/>
			<point x="477" y="700" type="line"/>
			<point x="471" y="654" type="line"/>
			<point x="556" y="637" type="line"/>
			<point x="545" y="391" type="line"/>
			<point x="240" y="391" type="line"/>
			<point x="250" y="637" type="line"/>
			<point x="335" y="654" type="line"/>
			<point x="341" y="700" type="line"/>
			<point x="83" y="700" type="line"/>
			<point x="77" y="654" type="line"/>
			<point x="163" y="637" type="line"/>
			<point x="140" y="59" type="line"/>
			<point x="58" y="46" type="line"/>
			<point x="52" y="0" type="line"/>
			<point x="317" y="0" type="line"/>
			<point x="323" y="46" type="line"/>
			<point x="228" y="59" type="line"/>
			<point x="238" y="328" type="line"/>
		</contour>
	</outline>
</glyph>
<glyph name="Tshe-cy" format="2">
	<unicode hex="040B"/>
	<advance width="844"/>
	<outline>
		<contour>
			<point x="343" y="372" type="curve"/>
			<point x="355" y="643" type="line"/>
			<point x="468" y="643" type="line" smooth="yes"/>
			<point x="523" y="643"/>
			<point x="540" y="628"/>
			<point x="560" y="562" type="curve" smooth="yes"/>
			<point x="572" y="523" type="line"/>
			<point x="626" y="533" type="line"/>
			<point x="612" y="700" type="line"/>
			<point x="59" y="700" type="line"/>
			<point x="35" y="534" type="line"/>
			<point x="91" y="523" type="line"/>
			<point x="100" y="562" type="line" smooth="yes"/>
			<point x="115" y="625"/>
			<point x="136" y="643"/>
			<point x="198" y="643" type="curve" smooth="yes"/>
			<point x="266" y="643" type="line"/>
			<point x="244" y="63" type="line"/>
			<point x="159" y="46" type="line"/>
			<point x="153" y="0" type="line"/>
			<point x="410" y="0" type="line"/>
			<point x="416" y="46" type="line"/>
			<point x="330" y="63" type="line"/>
			<point x="342" y="312" type="line"/>
			<point x="412" y="361"/>
			<point x="482" y="386"/>
			<point x="546" y="386" type="curve" smooth="yes"/>
			<point x="625" y="386"/>
			<point x="658" y="350"/>
			<point x="654" y="268" type="curve" smooth="yes"/>
			<point x="651" y="200"/>
			<point x="648" y="131"/>
			<point x="645" y="63" type="curve"/>
			<point x="560" y="46" type="line"/>
			<point x="554" y="0" type="line"/>
			<point x="812" y="0" type="line"/>
			<point x="818" y="46" type="line"/>
			<point x="732" y="63" type="line"/>
			<point x="734" y="133"/>
			<point x="737" y="202"/>
			<point x="739" y="272" type="curve" smooth="yes"/>
			<point x="743" y="385"/>
			<point x="680" y="450"/>
			<point x="568" y="450" type="curve" smooth="yes"/>
			<point x="496" y="450"/>
			<point x="441" y="431"/>
		</contour>
	</outline>
</glyph>
<glyph name="De-cy" format="2">
	<unicode hex="0414"/>
	<advance width="715"/>
	<outline>
		<contour>
			<point x="20" y="-156" type="line"/>
			<point x="76" y="-156" type="line"/>
			<point x="99" y="-24"/>
			<point x="111" y="0"/>
			<point x="153" y="0" type="curve" smooth="yes"/>
			<point x="540" y="0" type="line" smooth="yes"/>
			<point x="588" y="0"/>
			<point x="597" y="-28"/>
			<point x="592" y="-157" type="curve"/>
			<point x="648" y="-160" type="line"/>
			<point x="675" y="61" type="line"/>
			<point x="565" y="61" type="line"/>
			<point x="587" y="637" type="line"/>
			<point x="672" y="654" type="line"/>
			<point x="678" y="700" type="line"/>
			<point x="157" y="700" type="line"/>
			<point x="151" y="654" type="line"/>
			<point x="237" y="637" type="line"/>
			<point x="222" y="366"/>
			<point x="198" y="207"/>
			<point x="118" y="61" type="curve"/>
			<point x="26" y="61" type="line"/>
		</contour>
		<contour>
			<point x="191" y="61" type="line"/>
			<point x="252" y="185"/>
			<point x="285" y="326"/>
			<point x="311" y="640" type="curve"/>
			<point x="501" y="640" type="line"/>
			<point x="477" y="61" type="line"/>
		</contour>
	</outline>
</glyph>
<glyph name="Zhe-cy" format="2">
	<unicode hex="0416"/>
	<advance width="1011"/>
	<outline>
		<contour>
			<point x="470" y="347" type="curve"/>
			<point x="458" y="59" type="line"/>
			<point x="376" y="46" type="line"/>
			<point x="370" y="0" type="line"/>
			<point x="635" y="0" type="line"/>
			<point x="641" y="46" type="line"/>
			<point x="546" y="59" type="line"/>
			<point x="557" y="347" type="line"/>
			<point x="588" y="346"/>
			<point x="626" y="344"/>
			<point x="637" y="342" type="curve" smooth="yes"/>
			<point x="683" y="332"/>
			<point x="708" y="306"/>
			<point x="733" y="243" type="curve" smooth="yes"/>
			<point x="761" y="172"/>
			<point x="775" y="134"/>
			<point x="787" y="103" type="curve" smooth="yes"/>
			<point x="818" y="22"/>
			<point x="847" y="-11"/>
			<point x="907" y="-11" type="curve" smooth="yes"/>
			<point x="945" y="-11"/>
			<point x="987" y="12"/>
			<point x="1014" y="38" type="curve"/>
			<point x="994" y="73" type="line"/>
			<point x="974" y="61"/>
			<point x="955" y="50"/>
			<point x="934" y="50" type="curve" smooth="yes"/>
			<point x="911" y="50"/>
			<point x="900" y="66"/>
			<point x="869" y="155" type="curve" smooth="yes"/>
			<point x="857" y="189"/>
			<point x="838" y="233"/>
			<point x="813" y="288" type="curve" smooth="yes"/>
			<point x="789" y="341"/>
			<point x="745" y="372"/>
			<point x="675" y="375" type="curve"/>
			<point x="675" y="379" type="line"/>
			<point x="721" y="403"/>
			<point x="741" y="429"/>
			<point x="785" y="525" type="curve" smooth="yes"/>
			<point x="824" y="610"/>
			<point x="834" y="616"/>
			<point x="848" y="616" type="curve" smooth="yes"/>
			<point x="854" y="616"/>
			<point x="859" y="614"/>
			<point x="867" y="606" type="curve" smooth="yes"/>
			<point x="898" y="577" type="line"/>
			<point x="929" y="588"/>
			<point x="950" y="618"/>
			<point x="950" y="644" type="curve" smooth="yes"/>
			<point x="950" y="690"/>
			<point x="914" y="708"/>
			<point x="882" y="708" type="curve" smooth="yes"/>
			<point x="825" y="708"/>
			<point x="801" y="681"/>
			<point x="743" y="552" type="curve" smooth="yes"/>
			<point x="698" y="452"/>
			<point x="672" y="420"/>
			<point x="622" y="404" type="curve" smooth="yes"/>
			<point x="615" y="402"/>
			<point x="585" y="398"/>
			<point x="559" y="397" type="curve"/>
			<point x="568" y="637" type="line"/>
			<point x="653" y="654" type="line"/>
			<point x="659" y="700" type="line"/>
			<point x="403" y="700" type="line"/>
			<point x="397" y="654" type="line"/>
			<point x="483" y="637" type="line"/>
			<point x="472" y="398" type="line"/>
			<point x="456" y="398"/>
			<point x="432" y="400"/>
			<point x="425" y="402" type="curve" smooth="yes"/>
			<point x="357" y="419"/>
			<point x="322" y="468"/>
			<point x="292" y="552" type="curve" smooth="yes"/>
			<point x="246" y="681"/>
			<point x="225" y="707"/>
			<point x="171" y="707" type="curve" smooth="yes"/>
			<point x="129" y="707"/>
			<point x="100" y="681"/>
			<point x="100" y="643" type="curve" smooth="yes"/>
			<point x="100" y="617"/>
			<point x="117" y="595"/>
			<point x="133" y="584" type="curve"/>
			<point x="161" y="606" type="line" smooth="yes"/>
			<point x="168" y="612"/>
			<point x="174" y="614"/>
			<point x="181" y="614" type="curve" smooth="yes"/>
			<point x="201" y="614"/>
			<point x="216" y="594"/>
			<point x="245" y="521" type="curve" smooth="yes"/>
			<point x="277" y="441"/>
			<point x="297" y="409"/>
			<point x="359" y="379" type="curve"/>
			<point x="359" y="375" type="line"/>
			<point x="291" y="370"/>
			<point x="256" y="324"/>
			<point x="231" y="280" type="curve" smooth="yes"/>
			<point x="206" y="236"/>
			<point x="183" y="191"/>
			<point x="159" y="142" type="curve" smooth="yes"/>
			<point x="129" y="80"/>
			<point x="111" y="50"/>
			<point x="84" y="50" type="curve" smooth="yes"/>
			<point x="68" y="50"/>
			<point x="52" y="56"/>
			<point x="23" y="73" type="curve"/>
			<point x="3" y="38" type="line"/>
			<point x="30" y="12"/>
			<point x="73" y="-11"/>
			<point x="111" y="-11" type="curve" smooth="yes"/>
			<point x="187" y="-11"/>
			<point x="220" y="42"/>
			<point x="302" y="219" type="curve" smooth="yes"/>
			<point x="331" y="282"/>
			<point x="360" y="337"/>
			<point x="410" y="345" type="curve" smooth="yes"/>
			<point x="419" y="346"/>
			<point x="452" y="347"/>
		</contour>
	</outline>
</glyph>
<glyph name="Ze-cy" format="2">
	<unicode hex="0417"/>
	<advance width="561"/>
	<outline>
		<contour>
			<point x="84" y="576" type="curve"/>
			<point x="133" y="543" type="line"/>
			<point x="169" y="610"/>
			<point x="229" y="650"/>
			<point x="292" y="650" type="curve" smooth="yes"/>
			<point x="375" y="650"/>
			<point x="411" y="609"/>
			<point x="411" y="548" type="curve" smooth="yes"/>
			<point x="411" y="463"/>
			<point x="350" y="419"/>
			<point x="276" y="404" type="curve" smooth="yes"/>
			<point x="252" y="399"/>
			<point x="189" y="395"/>
			<point x="162" y="391" type="curve"/>
			<point x="155" y="331" type="line"/>
			<point x="174" y="332"/>
			<point x="233" y="334"/>
			<point x="282" y="334" type="curve" smooth="yes"/>
			<point x="379" y="334"/>
			<point x="429" y="291"/>
			<point x="429" y="208" type="curve" smooth="yes"/>
			<point x="429" y="117"/>
			<point x="362" y="44"/>
			<point x="259" y="44" type="curve" smooth="yes"/>
			<point x="166" y="44"/>
			<point x="143" y="81"/>
			<point x="154" y="117" type="curve" smooth="yes"/>
			<point x="169" y="168" type="line"/>
			<point x="143" y="186"/>
			<point x="124" y="193"/>
			<point x="102" y="193" type="curve" smooth="yes"/>
			<point x="62" y="193"/>
			<point x="42" y="158"/>
			<point x="42" y="123" type="curve" smooth="yes"/>
			<point x="42" y="48"/>
			<point x="125" y="-11"/>
			<point x="246" y="-11" type="curve" smooth="yes"/>
			<point x="430" y="-11"/>
			<point x="526" y="104"/>
			<point x="526" y="225" type="curve" smooth="yes"/>
			<point x="526" y="318"/>
			<point x="462" y="369"/>
			<point x="333" y="375" type="curve"/>
			<point x="333" y="383" type="line"/>
			<point x="431" y="401"/>
			<point x="508" y="462"/>
			<point x="508" y="568" type="curve" smooth="yes"/>
			<point x="508" y="656"/>
			<point x="444" y="715"/>
			<point x="323" y="715" type="curve" smooth="yes"/>
			<point x="221" y="715"/>
			<point x="131" y="675"/>
		</contour>
	</outline>
</glyph>
<glyph name="Ii-cy" format="2">
	<unicode hex="0418"/>
	<advance width="760"/>
	<outline>
		<contour>
			<point x="558" y="467" type="line"/>
			<point x="541" y="59" type="line"/>
			<point x="459" y="46" type="line"/>
			<point x="453" y="0" type="line"/>
			<point x="718" y="0" type="line"/>
			<point x="724" y="46" type="line"/>
			<point x="629" y="59" type="line"/>
			<point x="651" y="637" type="line"/>
			<point x="736" y="654" type="line"/>
			<point x="742" y="700" type="line"/>
			<point x="485" y="700" type="line"/>
			<point x="479" y="654" type="line"/>
			<point x="565" y="637" type="line"/>
			<point x="561" y="553" type="line"/>
			<point x="234" y="228" type="line"/>
			<point x="250" y="637" type="line"/>
			<point x="335" y="654" type="line"/>
			<point x="341" y="700" type="line"/>
			<point x="83" y="700" type="line"/>
			<point x="77" y="654" type="line"/>
			<point x="163" y="637" type="line"/>
			<point x="140" y="59" type="line"/>
			<point x="58" y="46" type="line"/>
			<point x="52" y="0" type="line"/>
			<point x="317" y="0" type="line"/>
			<point x="323" y="46" type="line"/>
			<point x="228" y="59" type="line"/>
			<point x="231" y="142" type="line"/>
		</contour>
	</outline>
	<anchor name="top" x="416" y="730"/>
</glyph>
<glyph name="Pe-cy" format="2">
	<unicode hex="041F"/>
	<advance width="760"/>
	<outline>
		<contour>
			<point x="52" y="0" type="line"/>
			<point x="317" y="0" type="line"/>
			<point x="323" y="46" type="line"/>
			<point x="228" y="59" type="line"/>
			<point x="250" y="640" type="line"/>
			<point x="565" y="640" type="line"/>
			<point x="541" y="59" type="line"/>
			<point x="459" y="46" type="line"/>
			<point x="453" y="0" type="line"/>
			<point x="718" y="0" type="line"/>
			<point x="724" y="46" type="line"/>
			<point x="629" y="59" type="line"/>
			<point x="651" y="637" type="line"/>
			<point x="736" y="654" type="line"/>
			<point x="742" y="700" type="line"/>
			<point x="83" y="700" type="line"/>
			<point x="77" y="654" type="line"/>
			<point x="163" y="637" type="line"/>
			<point x="140" y="59" type="line"/>
			<point x="58" y="46" type="line"/>
		</contour>
	</outline>
</glyph>
<glyph name="Ef-cy" format="2">
	<unicode hex="0424"/>
	<advance width="777"/>
	<outline>
		<contour>
			<point x="256" y="0" type="line"/>
			<point x="521" y="0" type="line"/>
			<point x="527" y="46" type="line"/>
			<point x="431" y="59" type="line"/>
			<point x="435" y="163" type="line"/>
			<point x="463" y="159"/>
			<point x="496" y="157"/>
			<point x="510" y="157" type="curve" smooth="yes"/>
			<point x="658" y="157"/>
			<point x="749" y="267"/>
			<point x="749" y="409" type="curve" smooth="yes"/>
			<point x="749" y="537"/>
			<point x="662" y="615"/>
			<point x="543" y="615" type="curve" smooth="yes"/>
			<point x="503" y="615"/>
			<point x="476" y="609"/>
			<point x="451" y="602" type="curve"/>
			<point x="454" y="670" type="line"/>
			<point x="539" y="687" type="line"/>
			<point x="545" y="733" type="line"/>
			<point x="289" y="733" type="line"/>
			<point x="283" y="687" type="line"/>
			<point x="369" y="670" type="line"/>
			<point x="366" y="604" type="line"/>
			<point x="349" y="610"/>
			<point x="319" y="615"/>
			<point x="285" y="615" type="curve" smooth="yes"/>
			<point x="125" y="615"/>
			<point x="50" y="504"/>
			<point x="50" y="378" type="curve" smooth="yes"/>
			<point x="50" y="275"/>
			<point x="107" y="155"/>
			<point x="251" y="155" type="curve" smooth="yes"/>
			<point x="289" y="155"/>
			<point x="322" y="163"/>
			<point x="348" y="171" type="curve"/>
			<point x="343" y="59" type="line"/>
			<point x="262" y="46" type="line"/>
		</contour>
		<contour>
			<point x="268" y="210" type="curve" smooth="yes"/>
			<point x="179" y="210"/>
			<point x="142" y="289"/>
			<point x="142" y="360" type="curve" smooth="yes"/>
			<point x="142" y="473"/>
			<point x="170" y="561"/>
			<point x="297" y="561" type="curve" smooth="yes"/>
			<point x="320" y="561"/>
			<point x="341" y="558"/>
			<point x="364" y="550" type="curve"/>
			<point x="350" y="221" type="line"/>
			<point x="325" y="215"/>
			<point x="301" y="210"/>
		</contour>
		<contour>
			<point x="437" y="216" type="curve"/>
			<point x="451" y="551" type="line"/>
			<point x="476" y="558"/>
			<point x="496" y="560"/>
			<point x="529" y="560" type="curve" smooth="yes"/>
			<point x="613" y="560"/>
			<point x="657" y="506"/>
			<point x="657" y="412" type="curve" smooth="yes"/>
			<point x="657" y="278"/>
			<point x="606" y="211"/>
			<point x="505" y="211" type="curve" smooth="yes"/>
			<point x="477" y="211"/>
			<point x="454" y="212"/>
		</contour>
	</outline>
</glyph>
<glyph name="Sha-cy" format="2">
	<unicode hex="0428"/>
	<advance width="1101"/>
	<outline>
		<contour>
			<point x="50" y="0" type="line"/>
			<point x="1050" y="0" type="line"/>
			<point x="1056" y="46" type="line"/>
			<point x="970" y="63" type="line"/>
			<point x="993" y="641" type="line"/>
			<point x="1075" y="654" type="line"/>
			<point x="1081" y="700" type="line"/>
			<point x="816" y="700" type="line"/>
			<point x="810" y="654" type="line"/>
			<point x="905" y="641" type="line"/>
			<point x="883" y="60" type="line"/>
			<point x="599" y="60" type="line"/>
			<point x="622" y="641" type="line"/>
			<point x="704" y="654" type="line"/>
			<point x="710" y="700" type="line"/>
			<point x="445" y="700" type="line"/>
			<point x="439" y="654" type="line"/>
			<point x="534" y="641" type="line"/>
			<point x="512" y="60" type="line"/>
			<point x="227" y="60" type="line"/>
			<point x="251" y="641" type="line"/>
			<point x="333" y="654" type="line"/>
			<point x="339" y="700" type="line"/>
			<point x="74" y="700" type="line"/>
			<point x="68" y="654" type="line"/>
			<point x="163" y="641" type="line"/>
			<point x="141" y="63" type="line"/>
			<point x="56" y="46" type="line"/>
		</contour>
	</outline>
</glyph>
<glyph name="Hardsign-cy" format="2">
	<unicode hex="042A"/>
	<advance width="719"/>
	<outline>
		<contour>
			<point x="268" y="643" type="line"/>
			<point x="244" y="60" type="line"/>
			<point x="155" y="44" type="line"/>
			<point x="150" y="0" type="line"/>
			<point x="384" y="0" type="line" smooth="yes"/>
			<point x="594" y="0"/>
			<point x="690" y="91"/>
			<point x="690" y="227" type="curve" smooth="yes"/>
			<point x="690" y="301"/>
			<point x="633" y="399"/>
			<point x="500" y="399" type="curve" smooth="yes"/>
			<point x="442" y="399"/>
			<point x="433" y="398"/>
			<point x="381" y="390" type="curve"/>
			<point x="379" y="340" type="line"/>
			<point x="403" y="345"/>
			<point x="423" y="347"/>
			<point x="448" y="347" type="curve" smooth="yes"/>
			<point x="554" y="347"/>
			<point x="593" y="298"/>
			<point x="593" y="215" type="curve" smooth="yes"/>
			<point x="593" y="122"/>
			<point x="541" y="54"/>
			<point x="396" y="54" type="curve" smooth="yes"/>
			<point x="332" y="54" type="line"/>
			<point x="355" y="637" type="line"/>
			<point x="440" y="654" type="line"/>
			<point x="446" y="700" type="line"/>
			<point x="75" y="700" type="line"/>
			<point x="41" y="526" type="line"/>
			<point x="91" y="516" type="line"/>
			<point x="104" y="559" type="line" smooth="yes"/>
			<point x="122" y="617"/>
			<point x="143" y="643"/>
			<point x="211" y="643" type="curve" smooth="yes"/>
		</contour>
	</outline>
	<anchor name="top" x="254" y="730"/>
</glyph>
<glyph name="Softsign-cy" format="2">
	<unicode hex="042C"/>
	<advance width="630"/>
	<outline>
		<contour>
			<point x="180" y="637" type="line"/>
			<point x="155" y="60" type="line"/>
			<point x="66" y="44" type="line"/>
			<point x="61" y="0" type="line"/>
			<point x="295" y="0" type="line" smooth="yes"/>
			<point x="505" y="0"/>
			<point x="601" y="91"/>
			<point x="601" y="227" type="curve" smooth="yes"/>
			<point x="601" y="301"/>
			<point x="544" y="399"/>
			<point x="411" y="399" type="curve" smooth="yes"/>
			<point x="353" y="399"/>
			<point x="344" y="398"/>
			<point x="292" y="390" type="curve"/>
			<point x="290" y="340" type="line"/>
			<point x="314" y="345"/>
			<point x="334" y="347"/>
			<point x="359" y="347" type="curve" smooth="yes"/>
			<point x="465" y="347"/>
			<point x="504" y="298"/>
			<point x="504" y="215" type="curve" smooth="yes"/>
			<point x="504" y="122"/>
			<point x="452" y="54"/>
			<point x="307" y="54" type="curve" smooth="yes"/>
			<point x="243" y="54" type="line"/>
			<point x="266" y="637" type="line"/>
			<point x="351" y="654" type="line"/>
			<point x="357" y="700" type="line"/>
			<point x="101" y="700" type="line"/>
			<point x="95" y="654" type="line"/>
		</contour>
	</outline>
</glyph>
<glyph name="Ereversed-cy" format="2">
	<unicode hex="042D"/>
	<advance width="637"/>
	<outline>
		<contour>
			<point x="500" y="396" type="curve"/>
			<point x="171" y="396" type="line"/>
			<point x="166" y="326" type="line"/>
			<point x="500" y="336" type="line"/>
			<point x="494" y="165"/>
			<point x="412" y="48"/>
			<point x="292" y="48" type="curve" smooth="yes"/>
			<point x="212" y="48"/>
			<point x="165" y="82"/>
			<point x="178" y="120" type="curve" smooth="yes"/>
			<point x="195" y="170" type="line"/>
			<point x="179" y="186"/>
			<point x="160" y="196"/>
			<point x="129" y="196" type="curve" smooth="yes"/>
			<point x="100" y="196"/>
			<point x="70" y="173"/>
			<point x="70" y="131" type="curve" smooth="yes"/>
			<point x="70" y="39"/>
			<point x="175" y="-11"/>
			<point x="281" y="-11" type="curve" smooth="yes"/>
			<point x="462" y="-11"/>
			<point x="595" y="129"/>
			<point x="595" y="385" type="curve" smooth="yes"/>
			<point x="595" y="535"/>
			<point x="551" y="715"/>
			<point x="333" y="715" type="curve" smooth="yes"/>
			<point x="223" y="715"/>
			<point x="141" y="650"/>
			<point x="93" y="583" type="curve"/>
			<point x="132" y="543" type="line"/>
			<point x="185" y="606"/>
			<point x="245" y="646"/>
			<point x="323" y="646" type="curve" smooth="yes"/>
			<point x="456" y="646"/>
			<point x="500" y="535"/>
		</contour>
	</outline>
	<anchor name="top" x="334" y="730"/>
</glyph>
<glyph name="Iu-cy" format="2">
	<unicode hex="042E"/>
	<advance width="1033"/>
	<outline>
		<contour>
			<point x="238" y="328" type="line"/>
			<point x="396" y="332" type="line"/>
			<point x="396" y="142"/>
			<point x="495" y="-11"/>
			<point x="680" y="-11" type="curve" smooth="yes"/>
			<point x="847" y="-11"/>
			<point x="991" y="125"/>
			<point x="991" y="382" type="curve" smooth="yes"/>
			<point x="991" y="600"/>
			<point x="867" y="715"/>
			<point x="712" y="715" type="curve" smooth="yes"/>
			<point x="572" y="715"/>
			<point x="421" y="626"/>
			<point x="399" y="391" type="curve"/>
			<point x="240" y="391" type="line"/>
			<point x="250" y="637" type="line"/>
			<point x="335" y="654" type="line"/>
			<point x="341" y="700" type="line"/>
			<point x="83" y="700" type="line"/>
			<point x="77" y="654" type="line"/>
			<point x="163" y="637" type="line"/>
			<point x="140" y="59" type="line"/>
			<point x="58" y="46" type="line"/>
			<point x="52" y="0" type="line"/>
			<point x="317" y="0" type="line"/>
			<point x="323" y="46" type="line"/>
			<point x="228" y="59" type="line"/>
		</contour>
		<contour>
			<point x="491" y="349" type="curve" smooth="yes"/>
			<point x="491" y="568"/>
			<point x="590" y="653"/>
			<point x="698" y="653" type="curve" smooth="yes"/>
			<point x="817" y="653"/>
			<point x="893" y="549"/>
			<point x="893" y="364" type="curve" smooth="yes"/>
			<point x="893" y="149"/>
			<point x="806" y="54"/>
			<point x="693" y="54" type="curve" smooth="yes"/>
			<point x="566" y="54"/>
			<point x="491" y="173"/>
		</contour>
	</outline>
	<anchor name="top" x="714" y="730"/>
</glyph>
<glyph name="ve-cy" format="2">
	<unicode hex="0432"/>
	<advance width="488"/>
	<outline>
		<contour>
			<point x="223" y="-14" type="curve" smooth="yes"/>
			<point x="357" y="-14"/>
			<point x="442" y="84"/>
			<point x="442" y="174" type="curve" smooth="yes"/>
			<point x="442" y="247"/>
			<point x="402" y="283"/>
			<point x="287" y="271" type="curve"/>
			<point x="287" y="279" type="line"/>
			<point x="370" y="307"/>
			<point x="426" y="354"/>
			<point x="426" y="419" type="curve" smooth="yes"/>
			<point x="426" y="476"/>
			<point x="385" y="521"/>
			<point x="285" y="521" type="curve" smooth="yes"/>
			<point x="141" y="521"/>
			<point x="49" y="394"/>
			<point x="49" y="199" type="curve" smooth="yes"/>
			<point x="49" y="77"/>
			<point x="94" y="-14"/>
		</contour>
		<contour>
			<point x="234" y="40" type="curve" smooth="yes"/>
			<point x="160" y="40"/>
			<point x="138" y="99"/>
			<point x="138" y="171" type="curve" smooth="yes"/>
			<point x="138" y="189"/>
			<point x="139" y="210"/>
			<point x="140" y="228" type="curve"/>
			<point x="169" y="235"/>
			<point x="213" y="240"/>
			<point x="254" y="240" type="curve" smooth="yes"/>
			<point x="301" y="240"/>
			<point x="351" y="229"/>
			<point x="351" y="170" type="curve" smooth="yes"/>
			<point x="351" y="115"/>
			<point x="305" y="40"/>
		</contour>
		<contour>
			<point x="143" y="285" type="line"/>
			<point x="161" y="419"/>
			<point x="214" y="469"/>
			<point x="278" y="469" type="curve" smooth="yes"/>
			<point x="324" y="469"/>
			<point x="337" y="441"/>
			<point x="337" y="412" type="curve" smooth="yes"/>
			<point x="337" y="364"/>
			<point x="313" y="318"/>
			<point x="221" y="300" type="curve" smooth="yes"/>
		</contour>
	</outline>
</glyph>
<glyph name="ge-cy" format="2">
	<unicode hex="0433"/>
	<advance width="413"/>
	<outline>
		<contour>
			<point x="55" y="446" type="curve"/>
			<point x="78" y="398" type="line"/>
			<point x="123" y="425"/>
			<point x="194" y="453"/>
			<point x="221" y="453" type="curve" smooth="yes"/>
			<point x="245" y="453"/>
			<point x="274" y="431"/>
			<point x="274" y="402" type="curve" smooth="yes"/>
			<point x="274" y="352"/>
			<point x="227" y="315"/>
			<point x="168" y="268" type="curve" smooth="yes"/>
			<point x="104" y="217"/>
			<point x="42" y="166"/>
			<point x="42" y="118" type="curve" smooth="yes"/>
			<point x="42" y="48"/>
			<point x="97" y="-14"/>
			<point x="165" y="-14" type="curve" smooth="yes"/>
			<point x="217" y="-14"/>
			<point x="290" y="14"/>
			<point x="369" y="63" type="curve"/>
			<point x="351" y="111" type="line"/>
			<point x="270" y="74"/>
			<point x="220" y="56"/>
			<point x="195" y="56" type="curve" smooth="yes"/>
			<point x="158" y="56"/>
			<point x="134" y="97"/>
			<point x="134" y="122" type="curve" smooth="yes"/>
			<point x="134" y="157"/>
			<point x="173" y="200"/>
			<point x="235" y="249" type="curve" smooth="yes"/>
			<point x="289" y="291"/>
			<point x="368" y="353"/>
			<point x="368" y="402" type="curve" smooth="yes"/>
			<point x="368" y="479"/>
			<point x="303" y="521"/>
			<point x="243" y="521" type="curve" smooth="yes"/>
			<point x="199" y="521"/>
			<point x="106" y="484"/>
		</contour>
	</outline>
	<anchor name="top" x="223" y="550"/>
</glyph>
<glyph name="ka-cy" format="2">
	<unicode hex="043A"/>
	<advance width="542"/>
	<outline>
		<contour>
			<point x="169" y="161" type="line"/>
			<point x="196" y="419" type="line" smooth="yes"/>
			<point x="203" y="486"/>
			<point x="183" y="521"/>
			<point x="126" y="521" type="curve" smooth="yes"/>
			<point x="86" y="521"/>
			<point x="32" y="500"/>
			<point x="11" y="488" type="curve"/>
			<point x="26" y="443" type="line"/>
			<point x="48" y="452"/>
			<point x="69" y="460"/>
			<point x="85" y="460" type="curve" smooth="yes"/>
			<point x="106" y="460"/>
			<point x="116" y="448"/>
			<point x="114" y="420" type="curve" smooth="yes"/>
			<point x="85" y="0" type="line"/>
			<point x="167" y="0" type="line"/>
			<point x="182" y="49"/>
			<point x="219" y="138"/>
			<point x="258" y="217" type="curve"/>
			<point x="276" y="196"/>
			<point x="295" y="171"/>
			<point x="312" y="138" type="curve" smooth="yes"/>
			<point x="374" y="15"/>
			<point x="395" y="-14"/>
			<point x="425" y="-14" type="curve" smooth="yes"/>
			<point x="455" y="-14"/>
			<point x="486" y="19"/>
			<point x="530" y="67" type="curve"/>
			<point x="501" y="101" type="line"/>
			<point x="484" y="83"/>
			<point x="466" y="66"/>
			<point x="456" y="66" type="curve" smooth="yes"/>
			<point x="438" y="66"/>
			<point x="423" y="111"/>
			<point x="384" y="181" type="curve" smooth="yes"/>
			<point x="345" y="251"/>
			<point x="327" y="273"/>
			<point x="300" y="300" type="curve"/>
			<point x="324" y="347"/>
			<point x="346" y="379"/>
			<point x="360" y="396" type="curve" smooth="yes"/>
			<point x="378" y="418"/>
			<point x="394" y="428"/>
			<point x="407" y="428" type="curve" smooth="yes"/>
			<point x="416" y="428"/>
			<point x="424" y="423"/>
			<point x="431" y="413" type="curve" smooth="yes"/>
			<point x="450" y="387" type="line"/>
			<point x="486" y="399"/>
			<point x="506" y="426"/>
			<point x="506" y="459" type="curve" smooth="yes"/>
			<point x="506" y="486"/>
			<point x="484" y="521"/>
			<point x="437" y="521" type="curve" smooth="yes"/>
			<point x="391" y="521"/>
			<point x="358" y="499"/>
			<point x="318" y="434" type="curve" smooth="yes"/>
			<point x="282" y="376"/>
			<point x="219" y="255"/>
			<point x="179" y="160" type="curve"/>
		</contour>
	</outline>
	<anchor name="top" x="295" y="550"/>
</glyph>
